<svg width="25" height="25" viewBox="0 0 25 25" fill="none" xmlns="http://www.w3.org/2000/svg">
<path d="M0 12.2007C0.135744 11.8307 0.434642 11.627 0.742677 11.4071C1.33003 10.9875 1.92456 10.564 2.4447 10.0673C3.35183 9.20005 3.7545 8.0913 3.67488 6.84484C3.62659 6.09436 3.48497 5.34844 3.35118 4.60645C3.22066 3.88598 3.89285 3.20467 4.61008 3.3378C5.30381 3.46636 6.0008 3.60014 6.70236 3.65757C8.26277 3.78417 9.53211 3.18248 10.5136 1.98171C10.8785 1.53599 11.2465 1.07722 11.5141 0.571457C11.9246 -0.204477 13.0686 -0.173154 13.4994 0.561666C13.8857 1.22209 14.3758 1.83749 14.8999 2.39807C15.7822 3.34237 16.921 3.75155 18.2047 3.66084C18.9389 3.60928 19.6685 3.47093 20.3949 3.33911C21.1154 3.20793 21.7948 3.88011 21.6649 4.59731C21.5318 5.33148 21.4319 6.07152 21.3314 6.81091C21.2798 7.18941 21.1069 7.38389 20.7897 7.36431C20.4895 7.34538 20.297 7.10783 20.342 6.73259C20.4269 6.03171 20.5352 5.33343 20.6501 4.63712C20.7042 4.30756 20.6938 4.29907 20.3538 4.35455C19.649 4.47005 18.9441 4.62537 18.2341 4.65669C16.303 4.74283 14.7687 3.93754 13.5881 2.43266C13.3225 2.09396 13.0771 1.7383 12.8376 1.38067C12.5022 0.879483 12.5263 0.88862 12.1804 1.36893C11.7725 1.93538 11.3712 2.51684 10.8922 3.01999C9.68156 4.29059 8.16618 4.80549 6.42631 4.6319C5.82982 4.57251 5.23855 4.45569 4.64728 4.35128C4.32815 4.29516 4.31118 4.31343 4.36208 4.62733C4.47825 5.33996 4.63879 6.05324 4.67012 6.77044C4.75561 8.70147 3.95028 10.237 2.44144 11.4137C2.01854 11.7432 1.56628 12.0349 1.12576 12.341C0.924757 12.4806 0.926062 12.5048 1.1225 12.6457C1.67004 13.0393 2.245 13.4021 2.75404 13.8413C4.19697 15.0864 4.83262 16.6781 4.64401 18.5778C4.58397 19.1821 4.45998 19.7806 4.35621 20.3803C4.30726 20.6635 4.33598 20.6896 4.62117 20.6439C5.33383 20.5291 6.04583 20.364 6.76371 20.3307C8.8201 20.2341 10.3975 21.1451 11.5963 22.7714C11.8613 23.131 12.1041 23.5075 12.356 23.8775C12.4924 24.0772 12.5185 24.0733 12.6614 23.8756C13.066 23.3163 13.4393 22.7283 13.8916 22.2095C15.1315 20.7855 16.7161 20.1702 18.595 20.3561C19.1915 20.4155 19.7827 20.5343 20.374 20.6387C20.6866 20.6935 20.7023 20.6727 20.6501 20.3529C20.5339 19.6403 20.374 18.927 20.3433 18.2098C20.2598 16.2787 21.0671 14.7445 22.5772 13.5698C22.9812 13.2559 23.4106 12.9747 23.8342 12.6856C24.1115 12.4963 24.107 12.4963 23.8264 12.296C23.2775 11.9037 22.7332 11.5057 22.1994 11.0932C21.9925 10.9333 21.9664 10.6527 22.093 10.4556C22.217 10.2618 22.4526 10.1763 22.6686 10.2559C22.7358 10.2807 22.7965 10.3258 22.8553 10.3682C23.3878 10.7552 23.8903 11.1937 24.4581 11.5181C25.1786 11.9305 25.1844 13.0334 24.4529 13.4785C23.7846 13.885 23.1522 14.3758 22.5805 14.9116C21.6512 15.7834 21.2524 16.9118 21.3392 18.1765C21.3901 18.9185 21.5318 19.6566 21.6649 20.3901C21.7948 21.1066 21.1147 21.7827 20.3949 21.6483C19.7097 21.5204 19.0205 21.3899 18.3268 21.3318C16.7357 21.1986 15.4552 21.8238 14.4613 23.0494C14.1494 23.4338 13.8589 23.839 13.5927 24.2567C13.3878 24.5784 13.1704 24.8649 12.7998 25H12.2137C11.8352 24.861 11.6335 24.5497 11.4071 24.2384C10.9692 23.6348 10.528 23.0246 10.0111 22.4914C9.28999 21.7475 8.36784 21.384 7.32627 21.3239C6.40542 21.2704 5.51591 21.4525 4.62574 21.6431C3.89481 21.7997 3.22131 21.1125 3.35379 20.377C3.48627 19.6435 3.62332 18.9054 3.67292 18.1641C3.75907 16.8804 3.33487 15.7514 2.39314 14.8672C1.88671 14.3914 1.31306 13.9829 0.742677 13.5816C0.432684 13.3636 0.136397 13.1574 0.000652616 12.788V12.202L0 12.2007Z" fill="#B0B1B4"/>
<path d="M12.4927 19.7225C8.49932 19.7212 5.27148 16.4844 5.27344 12.4833C5.2754 8.47966 8.51498 5.26106 12.5377 5.26563C16.5108 5.26955 19.7348 8.51359 19.7315 12.5049C19.7289 16.5 16.4952 19.7238 12.492 19.7232L12.4927 19.7225ZM12.5123 6.23995C9.07949 6.23669 6.25628 9.04284 6.24845 12.4664C6.24062 15.9153 9.04556 18.7423 12.4809 18.7482C15.9287 18.7541 18.7526 15.9473 18.7565 12.5094C18.7604 9.06242 15.9528 6.24321 12.5123 6.23995Z" fill="#B0B1B4"/>
<path d="M20.7071 8.90168C20.7044 8.62902 20.925 8.40072 21.1919 8.40137C21.453 8.40137 21.6886 8.64076 21.6853 8.90168C21.6821 9.16064 21.468 9.37524 21.205 9.38241C20.9283 9.38959 20.7097 9.1789 20.7071 8.90168Z" fill="#B0B1B4"/>
<path d="M7.90629 12.2641C8.02181 10.7044 8.71097 9.47881 10.0247 8.61739C10.3262 8.41965 10.6081 8.45619 10.7772 8.70157C10.9455 8.94694 10.8646 9.25432 10.5651 9.44879C9.7036 10.0087 9.16649 10.7899 8.96157 11.7955C8.91981 12.0017 8.90153 12.2138 8.89109 12.424C8.87282 12.7822 8.69661 12.9865 8.38858 12.9839C8.08185 12.9813 7.90303 12.7692 7.90629 12.4109C7.90629 12.362 7.90629 12.3137 7.90629 12.2647V12.2641Z" fill="#B0B1B4"/>
<path d="M12.9966 8.37175C13.0012 8.65224 12.7956 8.86945 12.5195 8.87532C12.2422 8.8812 12.0249 8.67181 12.0196 8.39459C12.0144 8.10954 12.2141 7.9008 12.496 7.89558C12.7799 7.89102 12.992 8.09257 12.9966 8.37175Z" fill="#B0B1B4"/>
</svg>
