<svg width="25" height="30" viewBox="0 0 25 30" fill="none" xmlns="http://www.w3.org/2000/svg">
<path d="M6.51552 0C6.82389 0.189738 6.93079 0.470888 6.90387 0.821941C6.88926 1.01168 6.91003 1.20372 6.89695 1.39346C6.87157 1.7568 6.61626 2.008 6.29865 1.99801C5.98797 1.98802 5.74804 1.74374 5.73035 1.39346C5.71651 1.1269 5.72496 0.859582 5.72804 0.593027C5.73111 0.316486 5.90338 0.145952 6.11255 0.000768187H6.51552V0Z" fill="#B0B1B4"/>
<path d="M14.8757 9.40744C14.8757 11.314 14.8757 13.2214 14.8757 15.128C14.8757 15.6842 14.8019 15.7909 14.2951 15.9761C11.6266 16.9532 9.93245 19.5757 10.1424 22.4033C10.3623 25.3631 12.704 27.8527 15.6232 28.2307C19.1392 28.6862 22.3514 26.2204 22.799 22.7221C23.1604 19.8945 21.5362 17.1368 18.8662 16.0437C18.4086 15.8562 18.3225 15.7318 18.3217 15.2509C18.3202 14.2546 18.3156 13.2575 18.3217 12.2612C18.3248 11.7473 18.7993 11.4561 19.2076 11.7058C19.4314 11.8433 19.4814 12.0569 19.4814 12.2996C19.4814 13.1238 19.4922 13.9481 19.4822 14.7716C19.4799 14.9728 19.5475 15.0719 19.7267 15.161C22.1061 16.3532 23.5218 18.2698 23.934 20.8923C24.5539 24.8323 21.74 28.6731 17.788 29.3268C13.7514 29.9944 10.0247 27.4794 9.12882 23.4841C8.37441 20.1203 10.1639 16.5476 13.3346 15.1295C13.6384 14.9936 13.7245 14.8384 13.723 14.5173C13.7107 10.857 13.7122 7.19665 13.7168 3.53709C13.7183 2.12212 14.6219 0.986764 15.9847 0.663365C17.655 0.266989 19.3868 1.52295 19.4614 3.2375C19.5152 4.4804 19.4814 5.72791 19.476 6.97311C19.4745 7.34106 19.2138 7.59149 18.8869 7.57919C18.567 7.56767 18.3232 7.30265 18.3225 6.93931C18.3186 5.78014 18.3263 4.62021 18.3209 3.46104C18.3179 2.73742 17.8795 2.11751 17.2128 1.86709C16.5514 1.6182 15.7939 1.8041 15.321 2.33029C14.9888 2.70055 14.8757 3.14378 14.8765 3.62927C14.8788 5.55507 14.8773 7.48087 14.8773 9.40744H14.8757Z" fill="#B0B1B4"/>
<path d="M17.0632 10.6876C17.0632 12.671 17.067 14.6544 17.0586 16.6379C17.0578 16.8829 17.0924 16.9943 17.3808 17.0427C19.7471 17.4429 21.4866 19.56 21.4728 21.9874C21.4597 24.3518 19.6848 26.4482 17.3639 26.8415C14.5385 27.32 11.95 25.4234 11.5355 22.572C11.161 19.9963 13.0604 17.4214 15.6367 17.0335C15.8735 16.9981 15.9027 16.9037 15.9027 16.7032C15.8981 12.7271 15.8989 8.75107 15.902 4.77425C15.902 4.63291 15.9104 4.48465 15.9535 4.35176C16.035 4.10364 16.2934 3.95078 16.538 3.97766C16.8079 4.00685 17.0148 4.20581 17.0494 4.47928C17.0632 4.59297 17.0624 4.70896 17.0624 4.82342C17.0624 6.77764 17.0624 8.73263 17.0624 10.6869L17.0632 10.6876ZM12.6659 21.9352C12.6659 24.0376 14.3793 25.7568 16.4787 25.7614C18.5728 25.7653 20.3 24.0492 20.3139 21.949C20.3285 19.8496 18.5889 18.1104 16.4772 18.112C14.3778 18.1135 12.6659 19.8311 12.6659 21.9359V21.9352Z" fill="#B0B1B4"/>
<path d="M2.75468 6.3053C2.75853 4.32112 4.34963 2.75636 6.35755 2.76173C8.28779 2.76711 9.86737 4.36798 9.86352 6.31528C9.86044 8.27873 8.24242 9.88881 6.28987 9.87191C4.33579 9.85424 2.75083 8.25568 2.75391 6.30607L2.75468 6.3053ZM6.30756 8.69661C7.63951 8.69738 8.70383 7.63807 8.70383 6.31068C8.70383 4.99096 7.62797 3.91091 6.31141 3.90938C4.99638 3.90861 3.91744 4.98789 3.9159 6.30684C3.91437 7.635 4.97562 8.69507 6.30756 8.69661Z" fill="#B0B1B4"/>
<path d="M22.8609 13.0676C23.3492 13.0676 23.8375 13.0645 24.3251 13.0683C24.7442 13.0722 24.9972 13.2934 24.9995 13.6475C25.0026 14.0009 24.755 14.2352 24.3359 14.239C23.36 14.2475 22.3833 14.2475 21.4067 14.239C20.9952 14.2352 20.7322 13.9871 20.7384 13.6445C20.7438 13.3034 21.0145 13.0722 21.4251 13.0691C21.9035 13.0645 22.3826 13.0683 22.8609 13.0683V13.0676Z" fill="#B0B1B4"/>
<path d="M22.8641 7.92748C22.3858 7.92748 21.9067 7.92979 21.4283 7.92748C21.0208 7.92518 20.747 7.6955 20.7385 7.35597C20.7293 7.01259 20.99 6.76832 21.4037 6.76524C22.3796 6.75756 23.3563 6.75833 24.3322 6.76524C24.759 6.76832 25.0004 6.99032 24.9989 7.34752C24.9974 7.7147 24.7444 7.92671 24.2991 7.92825C23.8208 7.93056 23.3417 7.92825 22.8633 7.92825L22.8641 7.92748Z" fill="#B0B1B4"/>
<path d="M22.0914 11.0828C21.8522 11.0828 21.613 11.089 21.3747 11.0813C21.0048 11.069 20.7494 10.837 20.7387 10.5144C20.7271 10.1948 20.9732 9.92905 21.34 9.91676C21.8461 9.8991 22.3536 9.89833 22.8596 9.91753C23.2357 9.93213 23.4556 10.1833 23.4441 10.5228C23.4326 10.8439 23.1988 11.0659 22.8373 11.0805C22.5889 11.0905 22.3405 11.0828 22.0914 11.0828Z" fill="#B0B1B4"/>
<path d="M22.1111 3.61858C22.3787 3.61858 22.6471 3.60705 22.9139 3.62165C23.2331 3.63932 23.4422 3.87207 23.4445 4.18241C23.4468 4.49045 23.2377 4.74932 22.9262 4.76008C22.3725 4.77851 21.8173 4.77851 21.2636 4.76008C20.9644 4.75009 20.7337 4.4674 20.7383 4.17934C20.743 3.88129 20.9675 3.63855 21.2805 3.62165C21.5566 3.60705 21.835 3.61858 22.1118 3.61858H22.1111Z" fill="#B0B1B4"/>
<path d="M6.91127 11.6257C6.89819 11.8078 6.90204 11.9914 6.86743 12.1681C6.8136 12.4431 6.58213 12.622 6.31759 12.6259C6.05535 12.6297 5.79003 12.4538 5.76235 12.1811C5.72544 11.8139 5.72467 11.4375 5.76235 11.0703C5.7908 10.7907 6.0392 10.6325 6.31836 10.6348C6.5952 10.6379 6.81206 10.803 6.86743 11.0842C6.90204 11.2608 6.89819 11.4444 6.91127 11.625V11.6257Z" fill="#B0B1B4"/>
<path d="M3.54162 2.92981C3.53316 3.40838 3.05713 3.71104 2.70646 3.46523C2.39885 3.24937 2.13354 2.959 1.89668 2.66402C1.72057 2.44586 1.7944 2.18392 1.98666 1.98727C2.17276 1.79599 2.43884 1.73147 2.64109 1.88664C2.94793 2.12247 3.20863 2.42128 3.47472 2.70627C3.53162 2.76773 3.53008 2.88372 3.54316 2.93058L3.54162 2.92981Z" fill="#B0B1B4"/>
<path d="M10.8221 2.40501C10.8098 2.4511 10.8129 2.51102 10.7844 2.54097C10.4637 2.86898 10.1638 3.22541 9.80468 3.50503C9.60857 3.65789 9.35711 3.51117 9.20484 3.31683C9.04104 3.10865 9.01797 2.85592 9.18484 2.65313C9.40248 2.38888 9.64011 2.12539 9.91849 1.93335C10.0577 1.83733 10.3361 1.83426 10.4983 1.90723C10.6591 1.98021 10.7529 2.20144 10.8767 2.35738C10.8582 2.37351 10.8406 2.38964 10.8221 2.40501Z" fill="#B0B1B4"/>
<path d="M1.00609 5.73907C1.14913 5.73907 1.29371 5.73062 1.43598 5.7406C1.75897 5.76442 1.9766 5.98642 1.9866 6.28985C1.9966 6.5925 1.79204 6.85675 1.47905 6.8821C1.15606 6.90822 0.827682 6.90822 0.504693 6.8821C0.191701 6.85675 -0.00747521 6.59788 0.000215013 6.28985C0.00790523 5.98335 0.220925 5.76442 0.546221 5.7406C0.698487 5.72985 0.852292 5.73907 1.00533 5.7383L1.00609 5.73907Z" fill="#B0B1B4"/>
<path d="M11.6224 5.73982C11.7754 5.73982 11.9292 5.7306 12.0815 5.74212C12.4053 5.7667 12.6167 5.98871 12.6237 6.29521C12.6298 6.6017 12.4283 6.85827 12.1146 6.88362C11.8008 6.90897 11.4824 6.90744 11.1687 6.8867C10.8449 6.86519 10.6242 6.59556 10.6373 6.28599C10.6503 5.98256 10.8687 5.7644 11.1925 5.74136C11.3355 5.73137 11.4793 5.73982 11.6224 5.73982C11.6224 5.73982 11.6224 5.73982 11.6224 5.74059V5.73982Z" fill="#B0B1B4"/>
<path d="M3.53554 9.51967C3.544 10.0013 2.75652 10.834 2.3997 10.7918C2.21744 10.7703 2.01365 10.6351 1.89137 10.4906C1.7368 10.3094 1.77448 10.0628 1.93367 9.88302C2.149 9.64028 2.36586 9.38524 2.63041 9.20626C2.77498 9.10793 3.04568 9.08873 3.20948 9.15556C3.37097 9.22162 3.47018 9.44055 3.53554 9.51967Z" fill="#B0B1B4"/>
<path d="M9.6039 9.02051C10.0153 9.07889 10.8497 9.86549 10.8036 10.2204C10.7797 10.4024 10.6452 10.6291 10.4921 10.7182C10.3529 10.7996 10.0699 10.7942 9.93996 10.702C9.65542 10.5008 9.39241 10.2442 9.19247 9.95998C9.09634 9.82248 9.10403 9.54517 9.17555 9.37847C9.24092 9.22638 9.45548 9.13804 9.6039 9.02128V9.02051Z" fill="#B0B1B4"/>
<path d="M19.4724 9.58402C19.4747 9.90665 19.2148 10.1709 18.898 10.1694C18.5904 10.1678 18.3135 9.88437 18.3204 9.57787C18.3274 9.26523 18.5727 9.02402 18.8895 9.01864C19.2256 9.01327 19.4701 9.25063 19.4724 9.58325V9.58402Z" fill="#B0B1B4"/>
</svg>
