<svg width="25" height="25" viewBox="0 0 25 25" fill="none" xmlns="http://www.w3.org/2000/svg">
<path d="M24.9994 16.3552V24.6545C24.8551 24.9193 24.6331 25 24.3341 25C16.4429 24.9939 8.55101 24.9951 0.659748 24.9951C0.159589 24.9951 0.00488884 24.8404 0.00488884 24.3396C0.00488884 16.4482 0.00611441 8.55611 0 0.664653C0 0.365651 0.0788774 0.143081 0.345466 0H8.64456C8.91053 0.143081 8.99125 0.365651 8.99002 0.664653C8.98085 3.0157 8.98513 5.36736 8.98513 7.71841V8.00885C9.08786 8.00885 9.15205 8.00885 9.21687 8.00885C9.57456 8.00885 9.93287 8.00396 10.2906 8.01069C10.6018 8.01619 10.825 8.22409 10.8292 8.49618C10.8335 8.76706 10.6109 8.97557 10.3003 8.98596C10.1377 8.99146 9.97505 8.98779 9.81241 8.98779C9.53971 8.98779 9.267 8.98779 9.00102 8.98779V15.9963H16.002V8.98718C15.4841 8.98718 14.9815 8.99208 14.4789 8.98535C14.1543 8.98107 13.9568 8.78785 13.9586 8.49802C13.9604 8.21125 14.1622 8.01436 14.4844 8.0113C15.1436 8.00518 15.8027 8.00457 16.4612 8.0113C16.7969 8.01497 16.9834 8.21247 16.9913 8.54877C16.995 8.72059 16.992 8.89302 16.992 9.11009C17.2683 8.7481 17.4811 8.69674 17.8229 8.89974C18.095 9.06117 18.3628 9.2336 18.6159 9.42315C18.959 9.67935 19.2861 9.95695 19.6279 10.2315C19.6456 10.1477 19.667 10.0695 19.6774 9.98936C19.7973 9.07768 20.1005 8.22531 20.5132 7.4084C20.6154 7.20601 20.7584 7.06782 21.0036 7.07149C21.2378 7.07516 21.387 7.2054 21.4708 7.40412C21.6762 7.88901 21.8969 8.37022 22.059 8.86917C22.2051 9.31859 22.2815 9.79003 22.3928 10.2682C22.4588 10.2076 22.5145 10.1496 22.5775 10.1013C23.0935 9.70748 23.5998 9.29903 24.1324 8.92848C24.5115 8.66495 24.7548 8.74138 25 9.12843V9.56807C24.9878 9.58886 24.9682 9.60842 24.9645 9.63044C24.8074 10.6803 24.4515 11.6562 23.8768 12.5501C23.8474 12.596 23.8266 12.6523 23.8187 12.7061C23.7105 13.4282 23.6059 14.1503 23.5001 14.8725C23.4457 15.2454 23.3901 15.6184 23.332 16.0134C23.6866 16.0134 24.0119 16.0281 24.3354 16.0091C24.6356 15.992 24.8569 16.0874 25 16.354L24.9994 16.3552ZM17.003 24.0039H18.6545V23.7208C18.6545 22.8018 18.6545 21.8822 18.6545 20.9632C18.6545 20.9063 18.6532 20.8494 18.6545 20.7926C18.6636 20.4746 18.8562 20.2655 19.1399 20.2643C19.423 20.263 19.6254 20.4734 19.6267 20.7901C19.6303 21.7746 19.6279 22.7584 19.6285 23.7428C19.6285 23.8297 19.6285 23.9159 19.6285 24.0039H24.0034V17.0022H17.003V24.0039ZM7.99398 24.0094V17.0089H0.991756V19.5837C1.09081 19.5837 1.17825 19.5837 1.26569 19.5837C2.2177 19.5837 3.16971 19.6008 4.12112 19.5776C4.72277 19.5629 5.33054 19.9316 5.28713 20.7339C5.27307 20.9986 5.28469 21.2646 5.28469 21.5514C5.45039 21.5514 5.5794 21.5496 5.70841 21.5514C6.44337 21.5618 6.83652 21.9568 6.83836 22.6862C6.83958 23.1234 6.83836 23.5606 6.83836 24.0094H7.99337H7.99398ZM1.87468 8.00152C1.87468 7.73003 1.86857 7.47933 1.87652 7.22864C1.88508 6.94431 1.88079 6.65631 1.92604 6.37749C2.0092 5.86448 2.20669 5.38999 2.55154 4.99621C2.99239 4.49237 3.18744 3.91332 3.1636 3.24989C3.1532 2.94905 3.15443 2.64761 3.16482 2.34677C3.17766 1.98601 3.35926 1.81174 3.71634 1.8093C4.23729 1.80563 4.75762 1.80563 5.27857 1.8093C5.62526 1.81174 5.80992 1.98234 5.82459 2.32598C5.83743 2.61826 5.83988 2.91237 5.82704 3.20464C5.79769 3.89436 6.00008 4.49115 6.45499 5.01944C6.83469 5.4603 7.05114 5.99105 7.08232 6.57499C7.10739 7.04336 7.08722 7.51357 7.08722 7.99173H7.99154V0.989948H0.995428V8.00152H1.87529H1.87468ZM2.04099 16.0036V13.9742C1.61115 13.9222 1.47052 13.7682 1.46991 13.3579C1.46868 12.6504 1.46807 11.9424 1.46991 11.2349C1.47113 10.8228 1.65028 10.6455 2.06667 10.6455C3.68516 10.6442 5.30425 10.6442 6.92274 10.6455C7.34035 10.6455 7.5195 10.8222 7.52012 11.2343C7.52195 11.9173 7.52012 12.6009 7.52012 13.2839C7.52012 13.7718 7.42596 13.888 6.95148 13.9901V15.9957H7.99948V9.01225H0.991144V16.0043H2.04038L2.04099 16.0036ZM9.62654 24.0101C9.62654 23.9079 9.62654 23.8199 9.62654 23.7325C9.62654 22.781 9.64487 21.829 9.6198 20.8776C9.60391 20.263 9.99095 19.6693 10.7773 19.7133C11.0414 19.728 11.3074 19.7158 11.5728 19.7158C11.5905 19.4437 11.5911 19.2077 11.6247 18.9759C11.6853 18.5614 12.0485 18.1853 12.46 18.1774C12.9662 18.1676 13.4835 18.0722 13.9812 18.2654C14.0271 18.2832 14.0888 18.2654 14.142 18.2569C14.3322 18.2269 14.5217 18.1731 14.7125 18.167C15.1405 18.1535 15.5685 18.1627 15.9984 18.1627V17.0083H8.99675V24.0094H9.62592L9.62654 24.0101ZM6.11809 7.99785C6.11809 7.75816 6.10341 7.54537 6.12053 7.33564C6.18412 6.56582 5.96767 5.90422 5.45222 5.31661C5.11593 4.93262 4.93617 4.45262 4.88664 3.93961C4.85057 3.56234 4.84139 3.18263 4.81999 2.79558H4.1474C4.1474 3.0261 4.14924 3.24378 4.1474 3.46145C4.14068 4.19214 3.95358 4.87575 3.45832 5.41811C2.7625 6.17999 2.85971 7.08433 2.88295 7.99785H6.11809ZM19.2451 13.2796C19.3766 14.1509 19.5019 15.0015 19.6389 15.8508C19.6487 15.9125 19.7404 16.0073 19.7948 16.0079C20.6319 16.0177 21.4689 16.0147 22.3304 16.0147C22.4711 15.1005 22.6093 14.198 22.7505 13.2796H19.2457H19.2451ZM16.0088 19.1526H14.5609V24.0021H16.0088V19.1526ZM5.8521 22.5664H1.00154V24.0058H5.8521V22.5664ZM17.0072 9.65428V16.0012H18.6649C18.5499 15.265 18.4258 14.5459 18.3273 13.8238C18.2344 13.1426 18.1243 12.4872 17.7465 11.8751C17.3337 11.2055 17.1528 10.4296 17.0066 9.65367L17.0072 9.65428ZM5.95177 13.9822H3.04314V15.9994H5.95177V13.9822ZM2.45922 11.6232V12.9702H6.52714V11.6232H2.45922ZM13.5281 24.0131V19.1569H12.6104V24.0131H13.5281ZM4.29049 21.5361V20.5969H1.00093V21.5361H4.29049ZM11.5728 24.0131V20.7125H10.6336V24.0131H11.5728ZM20.9969 8.85205C20.575 9.96184 20.4729 11.0924 20.7248 12.2676C20.8294 12.2676 20.918 12.2676 21.0061 12.2676C21.0941 12.2676 21.1803 12.2676 21.272 12.2676C21.5185 11.0851 21.4182 9.95756 20.9969 8.85205ZM18.2368 10.3813C18.3604 10.9457 18.5933 11.4569 18.8948 11.9387C19.1228 12.3031 19.2512 12.3532 19.7312 12.2187C19.5307 11.3602 18.8324 10.9127 18.2368 10.3813ZM22.2461 12.2034C22.2742 12.2346 22.3023 12.2658 22.3304 12.297C22.5292 12.2628 22.8153 12.2994 22.9107 12.1814C23.3314 11.6641 23.6022 11.0576 23.79 10.3617C23.2727 10.7531 22.8545 11.1701 22.512 11.6574C22.3971 11.8213 22.3329 12.0206 22.2455 12.2034H22.2461Z" fill="#B0B1B4"/>
<path d="M12.5121 8.98286C12.2357 8.98775 12.015 8.77313 12.0156 8.4998C12.0162 8.24299 12.2351 8.01859 12.4907 8.01186C12.7549 8.00514 12.9872 8.23504 12.986 8.50286C12.9854 8.76762 12.7769 8.97858 12.5115 8.98286H12.5121Z" fill="#B0B1B4"/>
<path d="M19.1444 19.2413C18.8766 19.2407 18.662 19.0298 18.6602 18.765C18.6577 18.5082 18.8797 18.2771 19.1359 18.2697C19.3976 18.2618 19.636 18.5015 19.6318 18.7687C19.6281 19.034 19.4129 19.2425 19.1444 19.2419V19.2413Z" fill="#B0B1B4"/>
</svg>
