<svg width="17" height="25" viewBox="0 0 17 25" fill="none" xmlns="http://www.w3.org/2000/svg">
<path d="M0.317716 25C0.0593163 24.833 -0.0025257 24.5897 7.78282e-05 24.2929C0.0228587 21.7651 1.6351 19.7278 4.072 19.1694C4.33886 19.1081 4.61288 19.082 4.90317 19.0364C4.90317 18.3645 4.90709 17.6991 4.89732 17.0331C4.89667 16.973 4.82117 16.8948 4.76063 16.8576C3.38142 16.0069 2.39078 14.8288 1.77244 13.3304C1.74576 13.2652 1.66048 13.1902 1.59474 13.181C0.570901 13.0414 0.0944664 12.2652 0.0274257 11.6781C-0.0741118 10.7915 0.33008 10.1366 1.1938 9.7589C1.25824 9.73085 1.32788 9.64213 1.33829 9.57233C1.46001 8.79606 1.69564 8.05827 2.04646 7.3557C2.09788 7.25264 2.1187 7.12413 2.11935 7.00671C2.12391 5.36283 2.12131 3.7196 2.12261 2.07572C2.12326 0.836291 2.96224 0.000652333 4.20282 0C7.06865 0 9.93449 0 12.8003 0C14.0526 0 14.8818 0.83629 14.8825 2.09855C14.8831 3.73395 14.8805 5.36935 14.8871 7.00475C14.8871 7.13587 14.9241 7.27808 14.9821 7.3968C15.3049 8.05827 15.534 8.74974 15.6453 9.47579C15.6727 9.65257 15.7319 9.73476 15.8972 9.8013C17.0395 10.2599 17.3649 11.697 16.5383 12.6089C16.2428 12.9351 15.8653 13.1047 15.4357 13.1784C15.3602 13.1915 15.2619 13.2613 15.234 13.3298C14.6137 14.8269 13.6256 16.0076 12.2451 16.8569C12.1846 16.8941 12.1091 16.9724 12.1084 17.0324C12.0987 17.7063 12.1026 18.3801 12.1026 19.0331C12.5328 19.1434 12.9487 19.2171 13.3406 19.3573C15.4683 20.1179 16.8384 22.1728 16.7609 24.439C16.7518 24.6954 16.634 24.8604 16.4446 25H0.317716ZM8.49538 7.83973C6.70936 7.83973 4.92336 7.84169 3.13799 7.83582C2.96876 7.83582 2.87633 7.88409 2.80603 8.04261C2.51444 8.70212 2.33805 9.39033 2.26841 10.1066C2.23261 10.4706 2.10894 10.6017 1.74314 10.6513C1.24652 10.7185 0.944512 11.072 0.998536 11.5287C1.04735 11.9403 1.47238 12.2632 1.92539 12.1758C2.25734 12.1119 2.43764 12.2462 2.5522 12.5711C2.57107 12.6246 2.58668 12.6794 2.60556 12.7329C3.65478 15.6508 6.52843 17.3181 9.48083 16.8256C11.9405 16.4153 13.5944 14.9554 14.4464 12.5998C14.5798 12.2306 14.7399 12.134 15.124 12.1693C15.2704 12.183 15.4351 12.1654 15.5705 12.1099C15.8933 11.9775 16.0612 11.6357 16.0059 11.2919C15.9525 10.9611 15.674 10.7113 15.2958 10.6546C14.8721 10.5913 14.7816 10.496 14.7347 10.0675C14.6599 9.38511 14.4959 8.72821 14.2231 8.0961C14.1411 7.90562 14.0429 7.83321 13.8294 7.83452C12.0518 7.84365 10.2736 7.83973 8.49603 7.83973H8.49538ZM13.8938 5.80902C12.8524 5.80902 11.8383 5.80902 10.8236 5.80902C10.4239 5.80902 10.2066 5.63355 10.2105 5.31586C10.2144 5.00796 10.4292 4.83509 10.8125 4.83509C11.7544 4.83509 12.6962 4.83509 13.638 4.83509C13.7233 4.83509 13.8085 4.82792 13.8853 4.82465V2.9355C13.7695 2.9355 13.6731 2.9355 13.5768 2.9355C10.7513 2.9355 7.92587 2.9355 5.10104 2.9355C5.00341 2.9355 4.88821 2.96485 4.81271 2.9231C4.66691 2.84221 4.5107 2.74306 4.42022 2.60933C4.31088 2.4469 4.36425 2.2362 4.51655 2.1266C4.64933 2.03071 4.83548 1.96352 4.99885 1.96287C7.86468 1.95308 10.7305 1.95569 13.5963 1.95569C13.692 1.95569 13.7877 1.95569 13.8847 1.95569C13.8417 1.34837 13.4421 0.980456 12.8355 0.979804C9.94491 0.977847 7.055 0.977847 4.16443 0.979804C3.53047 0.979804 3.1074 1.39664 3.10219 2.03202C3.09503 2.91071 3.10023 3.7894 3.10089 4.66809C3.10089 4.71506 3.10674 4.76203 3.11195 4.83509C3.21218 4.83509 3.29875 4.83509 3.38596 4.83509C4.3356 4.83509 5.28589 4.83509 6.23552 4.83509C6.59741 4.83509 6.8018 5.01318 6.80115 5.32304C6.80115 5.63224 6.59676 5.80902 6.23357 5.80902C5.28393 5.80968 4.33366 5.80902 3.38403 5.80902C3.29746 5.80902 3.21088 5.80902 3.11716 5.80902V6.8247H13.8938V5.80902ZM10.6687 24.0137C10.5951 23.9204 10.5522 23.8623 10.506 23.8082C9.41834 22.5251 8.33203 21.2413 7.23985 19.962C7.0986 19.797 7.03546 19.6248 7.04002 19.4082C7.05044 18.9287 7.04588 18.448 7.04002 17.9685C7.03937 17.8981 7.01398 17.7793 6.97233 17.7656C6.62606 17.6476 6.27328 17.5484 5.89772 17.4362C5.89772 18.0846 5.89772 18.7024 5.89772 19.3195C5.89772 19.8968 5.75843 20.0351 5.17849 20.0384C3.30981 20.0494 1.69759 21.24 1.17038 23.015C1.076 23.3333 1.03694 23.6686 0.969249 24.015H10.6693L10.6687 24.0137ZM8.6158 20.0331C8.66462 20.1042 8.68024 20.1323 8.70042 20.1558C9.76136 21.4076 10.8216 22.6607 11.8884 23.9067C11.9451 23.9732 12.0661 24.0163 12.1572 24.0169C13.293 24.0241 14.4295 24.0222 15.5659 24.0208C15.6284 24.0208 15.6909 24.0111 15.7892 24.0026C15.7364 23.7143 15.7013 23.4409 15.6362 23.1748C15.2359 21.5413 13.7415 20.1095 11.7277 20.039C11.248 20.022 11.1106 19.8648 11.1087 19.3893C11.1067 18.8283 11.1087 18.2666 11.1074 17.7056C11.1074 17.6221 11.0996 17.5386 11.095 17.4532C10.7038 17.5699 10.3406 17.6776 9.96182 17.7911C9.96182 18.3566 9.96442 18.9255 9.96117 19.4937C9.95922 19.8368 9.78022 20.0207 9.43851 20.0312C9.18076 20.0384 8.92302 20.0325 8.6158 20.0325V20.0331ZM8.03911 17.8994V19.0299H8.96662V17.8994H8.03911Z" fill="#B0B1B4"/>
<path d="M8.48512 15.7122C7.80365 15.6972 7.2055 15.5217 6.65876 15.1747C6.37368 14.994 6.29882 14.7272 6.45503 14.4701C6.60082 14.2301 6.88591 14.1622 7.15538 14.326C8.04643 14.8661 8.9375 14.8152 9.83181 14.3416C10.1468 14.1746 10.4248 14.2262 10.5699 14.4825C10.7216 14.7487 10.6324 15.0135 10.3239 15.1929C9.74458 15.5302 9.11648 15.6913 8.48512 15.7115V15.7122Z" fill="#B0B1B4"/>
<path d="M12.9787 9.74057C12.9637 10.2292 12.5719 10.4431 12.2106 10.2461C11.8409 10.0446 11.453 9.94214 11.0423 10.0106C10.7754 10.055 10.5118 10.1476 10.2606 10.2513C9.95532 10.3779 9.6813 10.3231 9.54722 10.0693C9.40923 9.80841 9.50099 9.52986 9.7978 9.37852C10.7559 8.88927 11.7218 8.83709 12.6728 9.38896C12.8218 9.47572 12.9136 9.66229 12.9793 9.74057H12.9787Z" fill="#B0B1B4"/>
<path d="M5.81024 8.99219C6.31467 9.00915 6.79046 9.12331 7.2246 9.38294C7.51099 9.5545 7.59692 9.82456 7.45047 10.0829C7.31313 10.3243 7.03194 10.4006 6.75466 10.2479C6.10183 9.88849 5.45551 9.92111 4.80397 10.2466C4.50717 10.3947 4.22469 10.3197 4.09257 10.0659C3.95263 9.79651 4.05546 9.53167 4.36789 9.36402C4.81895 9.122 5.30515 9.01371 5.81024 8.99219Z" fill="#B0B1B4"/>
<path d="M9.58498 12.8044C9.54528 12.792 9.45546 12.7764 9.37801 12.7372C8.79221 12.4398 8.21033 12.4724 7.62453 12.7372C7.29128 12.8879 6.98407 12.7686 6.89425 12.4607C6.82851 12.2356 6.9027 12.0066 7.1175 11.897C8.03589 11.4287 8.96209 11.3915 9.88179 11.8938C10.0933 12.0092 10.1708 12.2349 10.1083 12.458C10.0504 12.6635 9.85575 12.8051 9.58498 12.8031V12.8044Z" fill="#B0B1B4"/>
<path d="M8.49407 4.83497C8.77135 4.83366 8.98418 5.04763 8.98288 5.32487C8.98158 5.60146 8.76483 5.81281 8.48821 5.80825C8.222 5.80433 8.01633 5.59754 8.01177 5.33074C8.00787 5.05285 8.2181 4.83627 8.49407 4.83497Z" fill="#B0B1B4"/>
<path d="M8.10476 22.1875C8.37097 22.1849 8.59813 22.4139 8.59683 22.6826C8.59553 22.9501 8.36382 23.1797 8.10022 23.1745C7.84312 23.1693 7.62898 22.9514 7.62507 22.6905C7.62052 22.4145 7.83465 22.1901 8.10476 22.1875Z" fill="#B0B1B4"/>
<path d="M6.31292 22.6937C6.30837 22.9638 6.07469 23.1889 5.81173 23.1758C5.55398 23.1634 5.34049 22.9397 5.33984 22.6827C5.33984 22.4152 5.56896 22.1862 5.83517 22.1895C6.10399 22.1927 6.31813 22.4185 6.31292 22.6944V22.6937Z" fill="#B0B1B4"/>
</svg>
