<svg width="25" height="28" viewBox="0 0 25 28" fill="none" xmlns="http://www.w3.org/2000/svg">
<path d="M2.28236 0C9.09448 0 15.9066 0 22.718 0C22.7572 0.018132 22.7942 0.044242 22.8349 0.0536707C24.1128 0.334354 24.9979 1.41284 24.9986 2.71327C25.0008 10.8632 25.0001 19.0132 24.9986 27.1632C24.9986 27.5969 24.8026 27.7949 24.3713 27.7949C16.457 27.7949 8.54193 27.7949 0.627614 27.7949C0.19632 27.7949 0.00100374 27.5969 0.00100374 27.1639C0.00100374 19.0045 -0.00335277 10.8458 0.00608633 2.68643C0.00753849 1.58474 0.555006 0.781126 1.53014 0.278507C1.76611 0.15666 2.03113 0.0913852 2.28236 0ZM23.9153 26.6997V26.4357C23.9153 18.5729 23.9153 10.7095 23.9153 2.84672C23.9153 1.77041 23.2255 1.08429 22.1466 1.08429C15.7244 1.08357 9.30214 1.08357 2.8792 1.08429C1.76466 1.08429 1.0865 1.76243 1.0865 2.87718C1.0865 10.7218 1.0865 18.5664 1.0865 26.4118V26.6895H2.44791C2.44791 26.5496 2.44791 26.4321 2.44791 26.3146C2.44791 19.7907 2.44791 13.2668 2.44791 6.74292C2.44791 6.65226 2.44355 6.5616 2.45009 6.47167C2.47042 6.20259 2.67009 5.98138 2.93656 5.97775C3.74251 5.9676 4.54919 5.96687 5.35515 5.97775C5.63614 5.98138 5.85832 6.25118 5.84961 6.52679C5.8409 6.80602 5.61581 7.04609 5.32828 7.05189C4.83019 7.06204 4.33209 7.05552 3.834 7.05552C3.73816 7.05552 3.64304 7.05552 3.55446 7.05552V26.6961H11.9415V7.05624C11.3541 7.05624 10.7848 7.05914 10.2156 7.05479C9.91278 7.05261 9.7102 6.88362 9.65647 6.60512C9.58604 6.24248 9.85977 5.97267 10.302 5.97267C14.1335 5.97267 17.965 5.97267 21.7966 5.97267C22.4036 5.97267 22.5546 6.12136 22.5546 6.71826C22.5546 13.2603 22.5546 19.8023 22.5546 26.3436V26.699H23.916L23.9153 26.6997ZM21.4503 26.699V7.078H13.0567V26.699H21.4503Z" fill="#B0B1B4"/>
<path d="M7.74778 3.64611C7.32883 3.92389 6.91714 4.20022 6.50182 4.47148C6.1671 4.69051 5.85706 4.65352 5.66755 4.37937C5.47369 4.09941 5.56154 3.78609 5.90498 3.55545C6.39218 3.22835 6.88447 2.90923 7.36877 2.57777C7.62507 2.40226 7.86613 2.40153 8.12099 2.57342C8.61473 2.90632 9.11427 3.23198 9.60656 3.56633C9.93257 3.78754 10.0132 4.10086 9.82801 4.37574C9.64286 4.65062 9.32556 4.69124 8.99447 4.47438C8.57915 4.2024 8.16746 3.92534 7.74778 3.64611Z" fill="#B0B1B4"/>
<path d="M17.2548 3.41176C17.7028 3.11512 18.1363 2.82138 18.577 2.53925C18.8123 2.38839 19.0678 2.41232 19.2501 2.58566C19.4331 2.75973 19.4868 2.97514 19.3801 3.20143C19.3292 3.30949 19.2312 3.40886 19.131 3.47776C18.6329 3.82081 18.1261 4.15082 17.6244 4.48807C17.3688 4.65996 17.127 4.65271 16.8722 4.47792C16.3813 4.14066 15.8803 3.81791 15.3866 3.48429C15.0715 3.27105 14.9902 2.97006 15.1637 2.69736C15.3445 2.4145 15.6647 2.363 15.9922 2.57551C16.4082 2.84531 16.8199 3.12382 17.2548 3.41248V3.41176Z" fill="#B0B1B4"/>
<path d="M7.74075 7.05594C7.44016 7.05377 7.1882 6.79847 7.19547 6.50328C7.20273 6.20519 7.45976 5.96585 7.76254 5.97383C8.05225 5.9818 8.2933 6.2255 8.29403 6.51198C8.29548 6.80935 8.04208 7.05812 7.74003 7.05594H7.74075Z" fill="#B0B1B4"/>
</svg>
