<svg width="25" height="26" viewBox="0 0 25 26" fill="none" xmlns="http://www.w3.org/2000/svg">
<path d="M0 24.6594V14.942C0.141274 14.6723 0.365111 14.5934 0.66356 14.5953C2.34662 14.605 4.03029 14.6002 5.71334 14.6002H5.98977V7.18602C5.47177 7.15422 5.26934 7.01967 5.2516 6.70654C5.23448 6.40442 5.40144 6.28272 5.98672 6.16897C6.05338 5.76716 6.08518 5.35863 6.19221 4.97028C6.87839 2.47749 8.46176 0.869049 10.9686 0.191423C11.2634 0.111918 11.5667 0.0629923 11.8658 0C12.289 0 12.7122 0 13.1354 0C13.333 0.0366946 13.5317 0.0654386 13.7274 0.110695C16.2074 0.68313 17.8892 2.15458 18.6934 4.57948C18.8628 5.09015 18.9271 5.63567 19.0426 6.17631C19.5747 6.26376 19.7496 6.37384 19.746 6.66557C19.7447 6.77198 19.7117 6.92732 19.6389 6.97319C19.4512 7.09122 19.2328 7.15972 19.0145 7.2539V14.6008C19.1234 14.6008 19.2127 14.6008 19.3013 14.6008C20.9856 14.6008 22.6705 14.6008 24.3548 14.6008C24.8404 14.6008 25.0006 14.7592 25.0006 15.2399C25.0006 18.2751 25.0006 21.3104 25.0006 24.3456C25.0006 24.8477 24.8477 25.0006 24.3462 25.0006C16.4526 25.0006 8.55962 24.9994 0.666006 25.0055C0.366946 25.0055 0.143109 24.9278 0.000611576 24.66L0 24.6594ZM24.0148 22.0877H0.995034V24.0129H24.0141V22.0877H24.0148ZM12.0132 7.19458H7.00316V11.2561C7.21354 11.0353 7.37866 10.8561 7.5499 10.683C7.6869 10.5442 7.82144 10.4005 7.97495 10.2818C8.15353 10.1442 8.35413 10.1485 8.53943 10.28C8.71801 10.4066 8.7859 10.5919 8.72107 10.7949C8.68377 10.9123 8.59448 11.0218 8.5058 11.1123C8.04467 11.5832 7.57498 12.045 7.1114 12.5135C7.05759 12.5679 6.98909 12.6431 6.98787 12.7098C6.97869 13.333 6.98236 13.9568 6.98236 14.583H12.0003V10.8169C11.4811 11.3374 10.9967 11.8248 10.5099 12.3098C10.4353 12.3838 10.3625 12.489 10.2714 12.511C10.1106 12.5508 9.92221 12.5826 9.77115 12.5355C9.58095 12.4761 9.47882 12.2823 9.52958 12.0817C9.56688 11.9343 9.65434 11.7814 9.76075 11.6725C10.4604 10.957 11.1723 10.2537 11.8762 9.54303C11.9349 9.48371 12.0052 9.39992 12.0065 9.32653C12.0162 8.62016 12.0126 7.91379 12.0126 7.19397L12.0132 7.19458ZM13.0088 7.18969V13.8467C13.1122 13.8033 13.1636 13.728 13.2266 13.6651C14.2326 12.6572 15.2399 11.6505 16.2477 10.6439C16.5798 10.3118 16.8532 10.2684 17.0887 10.5081C17.3217 10.7448 17.274 11.0114 16.937 11.349C16.9027 11.3839 16.8679 11.4181 16.8336 11.4524C15.8557 12.4309 14.8772 13.4094 13.8999 14.3879C13.8418 14.446 13.7874 14.5078 13.714 14.5873H18.0072V7.11752C17.8629 7.1958 17.7394 7.23311 17.6574 7.31261C17.1847 7.77191 16.7217 8.2416 16.2557 8.70762C16.0997 8.86357 15.9279 8.98222 15.6924 8.91678C15.3065 8.80975 15.2081 8.37492 15.5102 8.06057C15.7842 7.77619 16.0771 7.51076 16.411 7.18969H13.0094H13.0088ZM7.02517 6.19588C7.53584 6.19588 8.0465 6.20077 8.55656 6.18793C8.60426 6.1867 8.67704 6.07723 8.69172 6.00873C8.9975 4.55624 9.8427 3.56426 11.2285 3.03892C11.4762 2.94474 11.7416 2.89826 11.9985 2.82915V1.02684C9.26293 1.19808 7.06248 3.64071 7.02517 6.19588ZM12.988 1.03601C12.988 1.49041 12.988 1.9442 12.988 2.39799C12.988 2.8267 12.9905 2.81875 13.388 2.92639C14.9903 3.36183 15.9597 4.39784 16.3107 6.01974C16.3248 6.08396 16.3896 6.18609 16.4324 6.18731C16.9498 6.19893 17.4678 6.19465 17.9858 6.19465C17.8794 3.30924 15.405 1.12836 12.988 1.03601ZM2.98143 15.5934H0.994422V21.0792H2.98143V15.5934ZM5.99039 21.0884V15.5921H4.00949V21.0884H5.99039ZM6.99887 15.5842V21.0804H8.97977V15.5842H6.99887ZM10.0078 21.0792H11.9948V15.5934H10.0078V21.0792ZM14.9934 15.5903H13.0027V21.0829H14.9934V15.5903ZM16.0208 15.5842V21.0816H18.003V15.5842H16.0208ZM19.0108 15.5842V21.0804H20.9917V15.5842H19.0108ZM24.0099 21.0871V15.5909H22.0253V21.0871H24.0099ZM9.68125 6.17753H12.0138C12.0138 5.43508 12.0138 4.71097 12.0138 3.98747C12.0138 3.94772 12.0058 3.90858 12.0016 3.86883C10.8708 4.0046 9.89958 4.96967 9.68247 6.17753H9.68125ZM15.3224 6.18609C15.0992 4.966 14.1286 4.00276 13.0039 3.86944V6.18609H15.3224Z" fill="#B0B1B4"/>
<path d="M9.24219 10.1597C8.98227 10.1573 8.75659 9.93344 8.75782 9.6778C8.75904 9.41422 8.99939 9.17937 9.26359 9.18365C9.52168 9.18732 9.74674 9.4136 9.74735 9.67047C9.74735 9.9365 9.51495 10.1622 9.24219 10.1597Z" fill="#B0B1B4"/>
<path d="M14.7845 9.92792C14.5252 9.90957 14.3142 9.67717 14.3288 9.42459C14.3441 9.16406 14.5961 8.93227 14.8469 8.94695C15.1104 8.96285 15.3367 9.21666 15.3135 9.47046C15.2896 9.73772 15.0487 9.94627 14.7845 9.92792Z" fill="#B0B1B4"/>
</svg>
