<svg width="25" height="25" viewBox="0 0 25 25" fill="none" xmlns="http://www.w3.org/2000/svg">
<path d="M20.1652 25H0.732187C0.467093 24.8689 0.386391 24.6561 0.38688 24.3636C0.39275 17.3231 0.391771 10.2831 0.391771 3.24265C0.391771 3.17759 0.40351 3.1096 0.387858 3.04846C0.374164 2.99416 0.33797 2.94084 0.299331 2.89828C0.203467 2.79262 0.100266 2.69333 0 2.59158C0 1.84268 0 1.09426 0 0.345356C0.13059 0.0787637 0.344817 -0.00096945 0.637301 8.87033e-06C3.13515 0.00832459 5.63251 0.00490047 8.13035 0.00490047C10.5548 0.00490047 12.9793 0.00490047 15.4038 0.00490047C15.8567 0.00490047 16.0137 0.164856 16.0137 0.624177C16.0137 1.20188 16.0088 1.77957 16.0162 2.35678C16.0191 2.59941 15.9467 2.78235 15.7217 2.89779C15.6762 2.92127 15.6283 2.9922 15.6278 3.04161C15.6219 3.76165 15.6239 4.48218 15.6239 5.24821C16.4877 4.56779 17.4218 4.20825 18.4842 4.20238C19.5582 4.19651 20.5125 4.53061 21.3449 5.2037C22.9125 6.47111 23.3326 8.23209 22.6259 10.537C24.9129 11.8167 25.47 14.4332 24.6302 16.3062C24.1988 17.2679 23.5244 18.006 22.5902 18.4917C21.4535 19.0826 20.2665 19.1472 19.0403 18.7578C19.0305 18.8043 19.0188 18.8341 19.0188 18.8645C19.0173 19.7024 19.0212 20.5403 19.0139 21.3783C19.0124 21.5402 19.1014 21.5588 19.2212 21.5822C19.9393 21.7221 20.4391 22.1379 20.7169 22.8086C21.0436 23.5986 20.7878 24.5896 20.1657 25H20.1652ZM1.38367 2.93204V24.0065H12.0119C11.8803 23.4137 12.004 22.8829 12.3278 22.3629C11.8964 22.3629 11.5076 22.3639 11.1188 22.3629C10.727 22.3615 10.549 22.1878 10.5485 21.8019C10.547 20.9395 10.547 20.0771 10.5485 19.2147C10.549 18.8376 10.7255 18.6571 11.0958 18.6556C11.7712 18.6536 12.4467 18.6536 13.1221 18.6556C13.4919 18.6566 13.6694 18.8381 13.6704 19.2137C13.6719 19.9132 13.6704 20.6132 13.6704 21.3127C13.6704 21.3871 13.6704 21.4614 13.6704 21.5509C13.9517 21.2687 14.1864 21.0001 14.4579 20.7756C14.5997 20.6582 14.653 20.5535 14.653 20.375C14.6486 14.6552 14.6496 8.93501 14.6496 3.21526V2.93252C14.5039 2.93252 14.384 2.93252 14.2637 2.93252C12.9211 2.93252 11.5785 2.93399 10.2359 2.93155C9.86814 2.93106 9.64511 2.67033 9.71554 2.33477C9.7664 2.09166 9.95666 1.9591 10.2633 1.95861C11.7605 1.95763 13.2576 1.95861 14.7553 1.95861C14.8423 1.95861 14.9299 1.95861 15.0252 1.95861V0.996917H0.994835V1.95861C1.10342 1.95861 1.19292 1.95861 1.28194 1.95861C2.76294 1.95861 4.24394 1.95812 5.72495 1.95861C6.05607 1.95861 6.28204 2.15329 6.28839 2.43603C6.29475 2.72512 6.06047 2.93155 5.7181 2.93204C4.87978 2.9335 4.04195 2.93204 3.20362 2.93204C2.60252 2.93204 2.00092 2.93204 1.38269 2.93204H1.38367ZM19.0163 14.621C19.1298 14.5134 19.1953 14.4542 19.2579 14.3916C19.6786 13.9719 20.0923 13.5458 20.5203 13.134C20.8226 12.8429 21.2652 12.9686 21.3611 13.3604C21.4144 13.5776 21.3058 13.7342 21.161 13.8785C20.4929 14.5452 19.8224 15.2095 19.1626 15.8845C19.0828 15.9662 19.0271 16.1051 19.0227 16.2201C19.006 16.6427 19.0227 17.0663 19.0129 17.489C19.0095 17.6352 19.0598 17.7091 19.1939 17.7599C19.839 18.0065 20.4998 18.0936 21.1796 17.9541C22.756 17.6308 23.8579 16.4123 24.0052 14.7653C24.1314 13.3511 23.3136 11.8881 21.8394 11.2776C21.4159 11.102 21.3278 10.832 21.5538 10.4255C21.9407 9.72892 22.0942 8.99126 21.9837 8.1954C21.7915 6.80765 20.7766 5.65861 19.4012 5.29419C18.0547 4.9371 16.5889 5.43751 15.7506 6.55329C15.6753 6.65357 15.6283 6.80227 15.6283 6.92847C15.6219 10.5003 15.6229 14.0722 15.6229 17.6435V17.8945C16.4334 18.0901 17.1519 18.0412 17.8337 17.7683C17.975 17.7115 18.0283 17.6377 18.0273 17.4816C18.021 16.2773 18.0273 15.0735 18.0176 13.8692C18.0166 13.7562 17.9535 13.6197 17.8752 13.5351C17.5935 13.2308 17.2917 12.9451 17.0007 12.6497C16.7508 12.3958 16.7283 12.1082 16.9357 11.8979C17.1426 11.688 17.4414 11.7066 17.6884 11.9517C17.7843 12.0466 17.8679 12.1537 17.9574 12.2549C18.0166 12.1415 18.0239 12.0642 18.0239 11.9869C18.0249 11.3769 18.0239 10.7664 18.0244 10.1564C18.0244 9.7299 18.2103 9.48091 18.5248 9.48336C18.8422 9.4858 19.0153 9.72354 19.0158 10.1628C19.0168 11.5378 19.0158 12.9129 19.0158 14.2879C19.0158 14.3754 19.0158 14.463 19.0158 14.6205L19.0163 14.621ZM16.4006 24.0246C17.4497 24.0246 18.4984 24.0207 19.5475 24.0285C19.7133 24.03 19.7945 23.986 19.8365 23.8202C19.9383 23.4186 19.8424 23.0742 19.5455 22.7988C19.2301 22.5063 18.8554 22.4564 18.4578 22.6129C17.9965 22.7944 17.8107 22.7186 17.618 22.2793C17.3436 21.6546 16.8706 21.2829 16.182 21.2354C15.4434 21.1841 14.8907 21.5015 14.5454 22.1531C14.4183 22.3928 14.2603 22.541 13.9776 22.5258C13.9218 22.5229 13.8646 22.5361 13.8083 22.5444C13.2019 22.6374 12.8306 23.2092 12.9779 23.8016C13.0214 23.9762 13.1001 24.03 13.2791 24.0285C14.32 24.0197 15.3608 24.0241 16.4016 24.0241L16.4006 24.0246ZM15.6366 18.9202V20.2654C16.5586 20.1422 17.3358 20.4273 18.0058 21.0721V18.752C17.2238 19.023 16.4456 19.0557 15.6366 18.9202ZM11.5414 19.6378V21.3753H12.681V19.6378H11.5414Z" fill="#B0B1B4"/>
<path d="M9.56933 6.45984C9.56933 6.89862 9.57178 7.33739 9.56836 7.77568C9.56591 8.1132 9.3781 8.29957 9.03768 8.30104C8.34707 8.30397 7.65645 8.30397 6.96584 8.30104C6.6401 8.29957 6.44886 8.11125 6.44788 7.7884C6.44446 6.8947 6.44446 6.00101 6.44788 5.1078C6.44886 4.78447 6.63961 4.59663 6.96535 4.59516C7.65596 4.59174 8.34658 4.59223 9.03719 4.59516C9.37858 4.59663 9.56591 4.78153 9.56836 5.11954C9.57178 5.56614 9.56933 6.01324 9.56933 6.45984ZM7.43293 7.31147H8.57646V5.58082H7.43293V7.31147Z" fill="#B0B1B4"/>
<path d="M2.34491 15.8086C2.34491 15.3698 2.34247 14.931 2.34589 14.4927C2.34834 14.1547 2.53518 13.9698 2.87706 13.9688C3.56767 13.9664 4.25829 13.9659 4.9489 13.9688C5.27415 13.9703 5.4649 14.1586 5.46637 14.4819C5.46979 15.3756 5.46979 16.2693 5.46637 17.1625C5.4649 17.4849 5.27317 17.6727 4.94743 17.6747C4.2485 17.6781 3.55006 17.6786 2.85114 17.6747C2.54153 17.6727 2.34981 17.4815 2.34638 17.1738C2.34149 16.7189 2.34491 16.264 2.34491 15.809V15.8086ZM4.48865 14.9574H3.33682V16.6822H4.48865V14.9574Z" fill="#B0B1B4"/>
<path d="M5.46826 6.45984C5.46826 6.89862 5.47071 7.33739 5.46728 7.77568C5.46484 8.1132 5.27702 8.30006 4.93661 8.30104C4.24599 8.30397 3.55538 8.30397 2.86477 8.30104C2.53902 8.29957 2.34779 8.11125 2.34632 7.7884C2.34289 6.8947 2.34289 6.00101 2.34632 5.1078C2.3473 4.78447 2.53805 4.59663 2.86379 4.59516C3.5544 4.59174 4.24501 4.59223 4.93563 4.59516C5.27702 4.59663 5.46435 4.78153 5.46679 5.11954C5.47022 5.56614 5.46777 6.01324 5.46777 6.45984H5.46826ZM4.47636 7.31734V5.58816H3.33382V7.31734H4.47636Z" fill="#B0B1B4"/>
<path d="M6.44633 20.5006C6.44633 20.0619 6.44388 19.6231 6.44682 19.1848C6.44926 18.8443 6.63415 18.657 6.97309 18.6555C7.66371 18.6526 8.35432 18.6526 9.04493 18.6555C9.38241 18.657 9.56729 18.8458 9.56778 19.1877C9.57023 20.0653 9.56974 20.9423 9.56778 21.8199C9.56681 22.1765 9.38339 22.3604 9.02879 22.3619C8.34649 22.3643 7.66371 22.3643 6.98141 22.3619C6.62974 22.3604 6.4478 22.1741 6.44633 21.8165C6.44437 21.3777 6.44584 20.9389 6.44584 20.5006H6.44633ZM8.58077 21.3767V19.6446H7.43872V21.3767H8.58077Z" fill="#B0B1B4"/>
<path d="M2.3446 20.5021C2.3446 20.0633 2.34264 19.6245 2.34509 19.1863C2.34753 18.8448 2.53143 18.657 2.86989 18.6555C3.56051 18.6526 4.25112 18.6526 4.94173 18.6555C5.27921 18.657 5.46507 18.8453 5.46605 19.1868C5.4685 20.0721 5.46898 20.9575 5.46605 21.8434C5.46507 22.1687 5.27579 22.3599 4.95347 22.3619C4.25454 22.3658 3.5561 22.3658 2.85718 22.3619C2.53486 22.3599 2.34802 22.1687 2.34557 21.8429C2.34215 21.3963 2.3446 20.9492 2.3446 20.5026V20.5021ZM4.48198 19.6422H3.33454V21.3709H4.48198V19.6422Z" fill="#B0B1B4"/>
<path d="M10.5477 15.809C10.5477 15.3703 10.5453 14.9315 10.5487 14.4932C10.5511 14.1547 10.738 13.9698 11.0794 13.9688C11.77 13.9664 12.4606 13.9659 13.1512 13.9688C13.477 13.9703 13.6682 14.1586 13.6692 14.4815C13.6726 15.3752 13.6726 16.2689 13.6692 17.1621C13.6677 17.4849 13.476 17.6732 13.1507 17.6747C12.4601 17.6781 11.7695 17.6776 11.0789 17.6747C10.7385 17.6732 10.5511 17.4869 10.5487 17.1493C10.5453 16.7027 10.5477 16.2556 10.5477 15.809ZM12.6836 14.9579H11.5401V16.6895H12.6836V14.9579Z" fill="#B0B1B4"/>
<path d="M5.46704 11.1407C5.46704 11.5795 5.46948 12.0182 5.46655 12.4565C5.4641 12.7975 5.27922 12.9858 4.94125 12.9873C4.25064 12.9902 3.56003 12.9902 2.86941 12.9873C2.53144 12.9858 2.34607 12.7975 2.34558 12.4555C2.34314 11.5702 2.34314 10.6848 2.34558 9.79891C2.34656 9.47313 2.53438 9.28285 2.85816 9.28089C3.55709 9.27746 4.25553 9.27746 4.95446 9.28089C5.27727 9.28236 5.46361 9.47362 5.46655 9.7994C5.47046 10.246 5.46753 10.6931 5.46753 11.1397L5.46704 11.1407ZM4.4722 12.0089V10.2714H3.33748V12.0089H4.4722Z" fill="#B0B1B4"/>
<path d="M10.5477 6.43715C10.5477 5.99838 10.5453 5.5596 10.5487 5.12131C10.5511 4.78232 10.7375 4.59644 11.0774 4.59497C11.768 4.59204 12.4586 4.59204 13.1493 4.59497C13.4755 4.59644 13.6677 4.78379 13.6692 5.10566C13.6726 5.99935 13.6726 6.89305 13.6692 7.78626C13.6682 8.11008 13.4774 8.2989 13.1527 8.30036C12.4621 8.30379 11.7715 8.3033 11.0808 8.30036C10.7297 8.2989 10.5502 8.11204 10.5482 7.7525C10.5463 7.31373 10.5482 6.87495 10.5482 6.43666L10.5477 6.43715ZM11.5391 5.57916V7.30835H12.6827V5.57916H11.5391Z" fill="#B0B1B4"/>
<path d="M13.6702 11.1407C13.6702 11.5795 13.6726 12.0182 13.6697 12.4565C13.6672 12.7975 13.4823 12.9863 13.1449 12.9877C12.4543 12.9907 11.7636 12.9907 11.073 12.9877C10.7351 12.9863 10.5497 12.7979 10.5487 12.4565C10.5463 11.5711 10.5463 10.6858 10.5487 9.79989C10.5497 9.47362 10.7375 9.28333 11.0608 9.28186C11.7597 9.27844 12.4582 9.27844 13.1571 9.28186C13.4799 9.28333 13.6667 9.47411 13.6697 9.80038C13.6736 10.247 13.6707 10.6941 13.6707 11.1407H13.6702ZM11.5274 11.9938H12.6797V10.2734H11.5274V11.9938Z" fill="#B0B1B4"/>
<path d="M6.44676 15.8265C6.44676 15.3877 6.4448 14.9489 6.44725 14.5106C6.4492 14.1535 6.63017 13.9701 6.98526 13.9686C7.66756 13.9662 8.35034 13.9662 9.03264 13.9686C9.38529 13.9701 9.56772 14.1555 9.56821 14.5131C9.57017 15.3906 9.57066 16.2677 9.56821 17.1452C9.56723 17.4852 9.37991 17.6735 9.04194 17.675C8.35132 17.6779 7.66071 17.6779 6.9701 17.675C6.63213 17.6735 6.4492 17.4852 6.44676 17.1423C6.44382 16.7035 6.44627 16.2647 6.44627 15.8265H6.44676ZM8.58365 14.9592H7.44012V16.6893H8.58365V14.9592Z" fill="#B0B1B4"/>
<path d="M9.56933 11.1469C9.56933 11.5856 9.57178 12.0244 9.56836 12.4627C9.56591 12.8002 9.37809 12.9861 9.03719 12.9876C8.34658 12.99 7.65596 12.9905 6.96535 12.9876C6.63961 12.9861 6.44886 12.7978 6.44788 12.4744C6.44446 11.5807 6.44446 10.687 6.44788 9.79384C6.44886 9.47099 6.6401 9.28315 6.96633 9.28169C7.65694 9.27826 8.34756 9.27875 9.03817 9.28169C9.37907 9.28315 9.56591 9.46854 9.56884 9.80704C9.57227 10.2536 9.56982 10.7007 9.56982 11.1473L9.56933 11.1469ZM7.43489 10.2664V11.9985H8.57743V10.2664H7.43489Z" fill="#B0B1B4"/>
</svg>
