<svg width="25" height="25" viewBox="0 0 25 25" fill="none" xmlns="http://www.w3.org/2000/svg">
<path d="M13.3705 0C13.8538 0.0648247 14.3398 0.116195 14.8203 0.196309C17.4 0.62562 19.6017 1.69523 21.4356 3.36722C23.1534 4.93341 24.2655 6.79743 24.744 8.94948C24.8834 9.57572 24.9695 10.2209 24.9811 10.8594C25.0139 12.584 24.9941 14.3098 24.9934 16.0343C24.9934 16.3976 24.7939 16.6153 24.4623 16.6227C24.1219 16.6306 23.9053 16.4043 23.9053 16.0331C23.9039 14.4706 23.9039 12.9081 23.9053 11.3462C23.9073 8.49388 22.8102 6.02687 20.573 4.00262C18.7418 2.34531 16.5107 1.35582 13.9078 1.06655C11.5072 0.799913 9.23651 1.1748 7.11412 2.20098C5.01771 3.21433 3.42574 4.68206 2.33277 6.58277C1.45305 8.11166 1.08531 9.73961 1.08736 11.4489C1.09283 15.5341 1.08941 19.6187 1.08941 23.7038V24.0249C1.47493 24.0249 1.84403 24.0286 2.21315 24.0206C2.26168 24.0194 2.32183 23.968 2.35396 23.9258C3.51666 22.3921 4.6773 20.8564 5.79421 19.3795C5.4832 19.0059 5.14143 18.683 4.92201 18.3032C4.74976 18.0054 4.65407 17.6378 4.65202 17.3003C4.63288 13.8988 4.63629 10.4973 4.64245 7.09586C4.64518 5.81772 5.90152 4.6949 7.33148 4.69246C10.7786 4.68634 14.2257 4.68634 17.6727 4.69246C19.0877 4.6949 20.3495 5.8171 20.3522 7.07874C20.3597 10.4882 20.3591 13.8982 20.3522 17.3076C20.3508 18.0678 19.9811 18.6848 19.3365 19.1734C19.2811 19.215 19.2251 19.2554 19.1519 19.308C19.2804 19.4786 19.4055 19.645 19.5306 19.8113C20.5429 21.1518 21.5587 22.4905 22.5641 23.8347C22.6735 23.9815 22.787 24.0402 22.9825 24.0298C23.2798 24.0139 23.5785 24.0255 23.9059 24.0255C23.9059 23.6653 23.9059 23.3265 23.9059 22.9871C23.9059 22.4502 23.9039 21.9132 23.9059 21.3757C23.9073 21.0203 24.1213 20.8014 24.4555 20.8045C24.7891 20.8075 24.9934 21.0246 24.9941 21.3861C24.9955 22.3951 24.9962 23.4042 24.9941 24.4132C24.9934 24.8254 24.7939 24.9997 24.3236 24.9997C21.2859 25.0003 18.2476 24.9997 15.21 24.9997C10.3896 24.9997 5.56864 24.9997 0.748327 24.9997C0.170053 24.9997 0.00121518 24.8493 0.00121518 24.3344C0.00121518 19.9562 -0.00151898 15.5787 0.00121518 11.2006C0.00463287 6.26048 3.52418 1.96492 8.80451 0.503921C9.63843 0.273365 10.525 0.195698 11.3869 0.0464783C11.4662 0.0330241 11.5448 0.0159005 11.6241 0.000611685C12.2065 0.000611685 12.7882 0.000611685 13.3705 0.000611685V0ZM19.2613 15.4466H5.73337C5.73337 16.0735 5.70124 16.685 5.74089 17.2923C5.79831 18.1699 6.49278 18.7319 7.47708 18.7509C7.74981 18.7558 8.02254 18.7515 8.29596 18.7515C11.3432 18.7515 14.3897 18.7527 17.4369 18.7509C18.4827 18.7503 19.1936 18.1968 19.2545 17.2917C19.2948 16.6844 19.262 16.0735 19.262 15.4466H19.2613ZM19.2613 8.19544C19.2613 7.82056 19.2852 7.46952 19.2565 7.12277C19.1834 6.2458 18.5019 5.68317 17.5176 5.66422C17.2537 5.65932 16.9899 5.6636 16.726 5.6636C13.6699 5.6636 10.6138 5.66299 7.55774 5.6636C6.67187 5.6636 5.9774 6.06968 5.81472 6.76501C5.7074 7.22551 5.73269 7.71048 5.69783 8.19544H19.2606H19.2613ZM13.0534 14.4364H19.251V9.90412C19.154 9.98546 19.0815 10.0417 19.0139 10.1023C18.1061 10.9132 17.2004 11.7247 16.2913 12.5344C16.2018 12.6139 16.1074 12.6959 15.9988 12.7509C15.7773 12.8628 15.5592 12.8286 15.3713 12.6812C15.1935 12.5424 15.1471 12.2867 15.2694 12.1027C15.3337 12.0066 15.4219 11.921 15.5114 11.8409C16.4226 11.022 17.3364 10.2056 18.249 9.38797C18.3132 9.33048 18.3734 9.26933 18.4547 9.19166H13.0527V14.4357L13.0534 14.4364ZM21.3707 24.0115C20.9906 23.5075 20.6256 23.036 20.2784 22.5547C20.1718 22.4067 20.0556 22.3584 19.8608 22.359C15.0876 22.3645 10.3138 22.3713 5.54062 22.3517C5.0389 22.3499 4.72174 22.4581 4.47976 22.8575C4.24052 23.2519 3.92678 23.6103 3.62466 24.0121H21.3707V24.0115ZM6.58711 14.3874C6.60352 14.4039 6.61924 14.4211 6.63565 14.4376H11.9303V9.19166H5.74978V13.7691C5.82907 13.7025 5.88307 13.6597 5.93365 13.6138C7.05944 12.6072 8.18249 11.5993 9.31101 10.5952C9.58921 10.3475 9.9262 10.3359 10.1538 10.5475C10.3787 10.7566 10.3568 11.0306 10.0944 11.2862C10.0513 11.3284 10.0048 11.367 9.9597 11.4073C9.04649 12.2237 8.13464 13.042 7.2187 13.8566C7.01364 14.0388 6.79696 14.2101 6.58574 14.3868L6.58711 14.3874ZM5.6199 21.3665H19.3734C19.0535 20.9427 18.7309 20.5574 18.4616 20.144C18.251 19.8211 18.0234 19.6064 17.5716 19.7238C17.5128 19.7391 17.4451 19.7263 17.3816 19.7263C14.1252 19.7263 10.8688 19.7263 7.6131 19.7251C7.4224 19.7251 7.23169 19.6994 7.04167 19.7073C6.95964 19.711 6.84959 19.7514 6.80585 19.8076C6.41076 20.314 6.02729 20.8277 5.62059 21.3659L5.6199 21.3665Z" fill="#B0B1B4"/>
<path d="M24.4433 17.9913C24.7284 17.9852 24.9867 18.2066 24.9963 18.4647C25.0059 18.7264 24.7714 18.9521 24.4775 18.9649C24.1754 18.9778 23.9122 18.7539 23.9102 18.4836C23.9081 18.2262 24.1556 17.9981 24.4433 17.9919V17.9913Z" fill="#B0B1B4"/>
<path d="M12.4785 17.5775C11.8066 17.5775 11.1346 17.5793 10.462 17.5769C10.0724 17.5757 9.81884 17.3757 9.82431 17.0828C9.82977 16.7984 10.0772 16.6045 10.4518 16.6039C11.8141 16.6021 13.1764 16.6021 14.5387 16.6039C14.9119 16.6039 15.1593 16.8008 15.1627 17.0858C15.1662 17.3714 14.918 17.5751 14.5489 17.5763C13.8586 17.58 13.1689 17.5775 12.4785 17.5775Z" fill="#B0B1B4"/>
<path d="M8.52458 17.0903C8.52458 17.3564 8.2867 17.5729 7.9921 17.5759C7.70433 17.5784 7.44732 17.3582 7.43775 17.1013C7.42818 16.8396 7.69544 16.6005 7.99415 16.6035C8.28876 16.6072 8.52595 16.8237 8.52526 17.0903H8.52458Z" fill="#B0B1B4"/>
<path d="M16.4727 17.0812C16.4768 16.8157 16.7188 16.6017 17.0134 16.6035C17.3018 16.6048 17.5561 16.8292 17.5595 17.0854C17.5629 17.349 17.2936 17.5826 16.9956 17.5753C16.7003 17.5679 16.4686 17.349 16.4727 17.0818V17.0812Z" fill="#B0B1B4"/>
</svg>
