<svg width="25" height="25" viewBox="0 0 25 25" fill="none" xmlns="http://www.w3.org/2000/svg">
<path d="M0 23.2281C0 20.7467 0 18.2608 0 15.7793C0.0162866 15.7308 0.0407166 15.6823 0.0447883 15.6338C0.183225 14.4746 0.614821 13.4609 1.31922 12.5837C1.44137 12.4295 1.48616 12.284 1.48616 12.0857C1.48616 9.38381 1.48616 6.67754 1.48616 3.97567C1.48616 3.7024 1.48616 3.42472 1.53094 3.16026C1.84446 1.29143 3.24104 0.00881523 4.98778 0.00440762C9.95928 0 14.9267 0 19.8982 0C20.5008 0 21.079 0.136636 21.6002 0.467207C22.8054 1.22972 23.3998 2.38011 23.3998 3.88752C23.3998 6.58939 23.3998 9.29566 23.408 11.9975C23.408 12.1474 23.4731 12.3237 23.5668 12.4339C24.4381 13.4873 24.9593 14.717 24.9796 16.1319C25.0122 18.393 24.9959 20.6585 24.9878 22.9196C24.9837 24.2507 23.75 25.26 22.5529 24.9339C21.6653 24.6915 21.0749 23.9113 21.0342 22.924C21.0261 22.6816 21.0342 22.4392 21.0342 22.1968H3.98616C3.96987 22.567 3.98616 22.924 3.92915 23.2634C3.75 24.2727 2.95195 24.9736 2.00733 24.9956C1.11564 25.0176 0.309446 24.3477 0.0610749 23.3912C0.0447883 23.3339 0.0203583 23.281 0.00407166 23.2237L0 23.2281ZM24.0187 17.9566C23.9984 17.0575 24.0879 16.1848 23.8966 15.3297C23.408 13.1259 21.6775 11.6449 19.5806 11.6405C16.0505 11.6361 12.5204 11.6405 8.99023 11.6405C7.72801 11.6405 6.46987 11.6273 5.20765 11.6493C4.10423 11.6714 3.15554 12.1342 2.35342 12.9452C0.997557 14.3203 0.863192 16.0834 1.0057 17.9566H1.31515C5.55375 17.9566 9.79234 17.9566 14.0309 17.9566C14.1531 17.9566 14.2752 17.961 14.3933 17.9963C14.6132 18.0624 14.7191 18.2475 14.7353 18.49C14.7476 18.7191 14.5928 18.9395 14.3811 18.9968C14.2549 19.0277 14.1246 19.0321 13.9943 19.0321C9.76384 19.0321 5.53339 19.0321 1.30293 19.0321H0.993485V21.0993H24.0065V19.0321C23.8966 19.0321 23.8029 19.0321 23.7052 19.0321C22.215 19.0321 20.7288 19.0321 19.2386 19.0321C18.8599 19.0321 18.6401 18.8337 18.636 18.5032C18.6319 18.1594 18.8559 17.9566 19.2467 17.9566C19.7191 17.9566 20.1914 17.9566 20.6637 17.9566C21.7712 17.9566 22.8746 17.9566 24.0228 17.9566H24.0187ZM22.4104 11.3849C22.4104 11.2879 22.4104 11.213 22.4104 11.138C22.4104 8.70945 22.4104 6.27645 22.4104 3.84785C22.4104 2.22144 21.3518 1.07987 19.8412 1.07987C14.9104 1.07987 9.97964 1.07987 5.05293 1.07987C4.88192 1.07987 4.71091 1.07987 4.54397 1.11513C3.30212 1.37518 2.48778 2.42419 2.48371 3.79055C2.47557 6.27204 2.48371 8.75793 2.48371 11.2394C2.48371 11.3055 2.49186 11.3672 2.5 11.4422C2.79723 11.2879 3.07003 11.1292 3.35098 11.0014C3.48941 10.9397 3.52606 10.8516 3.52199 10.7061C3.51384 10.2389 3.52199 9.77169 3.52199 9.30448C3.52199 7.57669 4.62948 6.35137 6.2215 6.33374C7.58958 6.32052 8.95358 6.32934 10.3217 6.33374C10.9976 6.33374 11.5961 6.56294 12.1091 7.04778C12.2476 7.18001 12.3941 7.30342 12.5611 7.45769C12.5529 7.47532 12.5651 7.43124 12.5896 7.39598C13.123 6.69076 13.8192 6.34256 14.6539 6.33374C16.0383 6.32493 17.4186 6.31611 18.8029 6.33374C20.3746 6.35578 21.4739 7.5811 21.478 9.27363C21.478 9.75846 21.478 10.2433 21.478 10.7281C21.478 10.8031 21.5065 10.9221 21.5554 10.9485C21.8282 11.0984 22.1091 11.2306 22.4104 11.3805V11.3849ZM11.9951 10.5871C11.9951 10.0097 12.0399 9.4896 11.987 8.97831C11.8852 8.02186 11.2296 7.42243 10.342 7.41802C8.92101 7.4092 7.49593 7.4092 6.07492 7.41802C5.39088 7.42243 4.79234 7.90726 4.59283 8.61248C4.40554 9.27363 4.53176 9.94799 4.49511 10.5827H11.9951V10.5871ZM13.0252 10.5871H20.4845C20.4845 10.5518 20.4967 10.4857 20.4967 10.4152C20.4927 9.93917 20.5212 9.45874 20.4723 8.99154C20.3705 8.03508 19.7231 7.42683 18.8355 7.42243C17.4063 7.41361 15.9731 7.41361 14.544 7.42683C13.7948 7.43565 13.1311 8.03508 13.0375 8.84168C12.9764 9.39263 13.0252 9.96121 13.0252 10.5871ZM0.98127 22.1968C0.98127 22.4612 0.960912 22.708 0.98127 22.9461C1.0342 23.4926 1.43322 23.9025 1.90961 23.9201C2.43078 23.9422 2.86645 23.6072 2.95195 23.0651C2.99674 22.7874 2.9601 22.4921 2.9601 22.1923H0.98127V22.1968ZM24.035 22.2012H22.0114C22.0114 22.4392 22.0114 22.6596 22.0114 22.8755C22.0236 23.4089 22.4023 23.8672 22.8746 23.9157C23.408 23.973 23.864 23.6513 23.9699 23.1047C24.0269 22.8182 24.0147 22.5141 24.035 22.1968V22.2012Z" fill="#B0B1B4"/>
<path d="M16.1915 18.508C16.1874 18.2127 16.4032 17.9614 16.6719 17.957C16.9325 17.957 17.1727 18.2083 17.1727 18.4948C17.1727 18.768 16.9569 19.0149 16.6963 19.0281C16.4276 19.0413 16.1955 18.8033 16.1915 18.508Z" fill="#B0B1B4"/>
</svg>
