<svg width="22" height="25" viewBox="0 0 22 25" fill="none" xmlns="http://www.w3.org/2000/svg">
<path d="M17.66 25.0001C18.0205 24.7471 18.0583 24.6323 17.9264 24.2007C17.8674 24.0077 17.8158 23.8121 17.7501 23.621C17.6534 23.3394 17.3936 23.192 17.1378 23.2644C16.8489 23.3465 16.7097 23.6073 16.7952 23.9157C16.8429 24.0866 16.9105 24.2535 16.9476 24.4263C16.9986 24.6643 17.108 24.8586 17.3114 24.9994H17.6594L17.66 25.0001Z" fill="#231F20"/>
<path d="M4.1365 25.0003C4.50165 24.703 4.64281 24.2727 4.80783 23.8645C4.88735 23.6676 4.72233 23.4303 4.50231 23.3403C4.28561 23.2516 4.03378 23.3083 3.91383 23.5137C3.74948 23.7941 3.60103 24.0862 3.47445 24.3855C3.37968 24.6098 3.48903 24.7904 3.78858 25.0003H4.1365Z" fill="#231F20"/>
<path d="M8.11593 25.0002C8.32071 24.8848 8.43536 24.7094 8.48904 24.4845C8.54007 24.2719 8.61893 24.0659 8.66863 23.8527C8.73291 23.5801 8.58513 23.3434 8.32005 23.2665C8.07683 23.1961 7.81639 23.3213 7.72361 23.5756C7.6295 23.8344 7.55196 24.1004 7.47708 24.3658C7.39689 24.652 7.55196 24.8411 7.76801 25.0002H8.11593Z" fill="#231F20"/>
<path d="M21.6885 25.0002C22.0563 24.6918 22.0815 24.5536 21.8528 24.1037C21.764 23.9296 21.6818 23.7522 21.5851 23.5827C21.4333 23.3167 21.1656 23.2293 20.9138 23.3532C20.6659 23.4745 20.5698 23.749 20.6944 24.0183C20.8031 24.2543 20.9157 24.491 21.0516 24.7127C21.1205 24.8248 21.2431 24.905 21.3412 25.0002H21.6891H21.6885Z" fill="#231F20"/>
<path d="M12.8891 24.9996C13.1535 24.8516 13.2589 24.6292 13.235 24.3319C13.2191 24.1304 13.2377 23.9263 13.2297 23.7235C13.2184 23.4314 13.0084 23.2189 12.736 23.213C12.4643 23.2071 12.2476 23.4145 12.233 23.7079C12.223 23.9107 12.2423 24.1148 12.2257 24.3162C12.2018 24.6064 12.2913 24.8359 12.5405 24.9996H12.8884H12.8891Z" fill="#231F20"/>
<path d="M14.8219 6.48637C14.8219 5.92497 14.8219 5.38836 14.8219 4.85174C14.8219 4.42531 14.7186 4.29295 14.3017 4.17885C14.0645 2.5716 13.2454 1.34905 11.79 0.559448C11.1055 0.187141 10.3646 0.00718164 9.57858 0.00783367C6.57981 0.00978975 3.58038 0.015006 0.581619 9.35108e-06C0.208513 -0.00194673 -0.132121 0.303202 0.0507869 0.706806C0.151519 0.929147 0.347681 0.984569 0.582943 0.984569C3.23379 0.981309 5.88529 0.980657 8.53613 0.984569C9.20481 0.985221 9.88011 0.926539 10.5342 1.12215C12.0856 1.58574 12.9723 2.62637 13.301 4.20493C12.9054 4.20493 12.5369 4.21014 12.1691 4.19776C12.126 4.19645 12.0657 4.10712 12.0472 4.04779C11.6655 2.83632 10.733 2.15626 9.44537 2.15561C6.48769 2.15561 3.53002 2.15561 0.573003 2.15561C0.198572 2.15561 -0.0141582 2.35252 0.00373499 2.67527C0.0169892 2.91587 0.196585 3.10366 0.441788 3.12648C0.523964 3.1343 0.607465 3.12974 0.690304 3.12974C3.61485 3.12974 6.53939 3.12908 9.46326 3.13039C10.2168 3.13039 10.7794 3.50987 11.0418 4.19776C10.6946 4.30078 10.625 4.56093 10.6336 4.88369C10.6469 5.41118 10.6376 5.93997 10.6376 6.48246C10.4799 6.5294 10.3288 6.56722 10.1836 6.61938C7.89463 7.4455 6.5924 9.04492 6.27496 11.4209C6.26436 11.4985 6.19743 11.5924 6.1285 11.6348C5.42935 12.0625 5.11853 12.7954 5.33126 13.54C5.54267 14.28 6.1961 14.7475 7.02316 14.7482C10.8172 14.7482 14.6119 14.7482 18.4059 14.7482C19.2495 14.7482 19.9135 14.2807 20.1256 13.5387C20.3377 12.7986 20.0282 12.0801 19.3257 11.6328C19.2409 11.5793 19.1766 11.4457 19.1627 11.3414C18.8824 9.21575 17.7365 7.71674 15.7723 6.80782C15.6232 6.7387 15.4648 6.68915 15.3084 6.63633C15.1526 6.58417 14.9942 6.53918 14.8213 6.48637H14.8219ZM18.164 11.4313C18.054 11.4313 17.9639 11.4313 17.8744 11.4313C16.9048 11.4313 15.9353 11.4287 14.9664 11.4333C14.6662 11.4346 14.4667 11.6439 14.4714 11.9275C14.476 12.2001 14.6722 12.3918 14.9611 12.4042C15.0274 12.4068 15.0937 12.4048 15.1599 12.4048C16.2454 12.4048 17.331 12.4016 18.4158 12.4061C18.9467 12.4087 19.274 12.7954 19.1567 13.2642C19.0759 13.5863 18.7956 13.7728 18.3774 13.7728C14.6079 13.7734 10.8377 13.7734 7.06823 13.7715C6.95424 13.7715 6.83495 13.7571 6.72693 13.7219C6.35581 13.6 6.16893 13.1814 6.32599 12.8293C6.46649 12.5137 6.73356 12.4035 7.06823 12.4042C8.17827 12.4061 9.28897 12.4055 10.399 12.4042C10.7569 12.4042 10.9888 12.2138 10.9921 11.9223C10.9961 11.6315 10.7609 11.4313 10.409 11.4307C9.46459 11.4294 8.52023 11.4307 7.5752 11.4307H7.30415C7.31078 11.3283 7.31078 11.2546 7.32072 11.1829C7.57388 9.36963 9.15709 7.7187 11.0153 7.43963C11.8437 7.31509 12.6986 7.32618 13.5409 7.33596C15.0247 7.35291 16.2488 7.94234 17.1832 9.08078C17.7405 9.75954 18.0586 10.5394 18.164 11.4313ZM11.6575 6.34749V5.19666H13.7994V6.34749H11.6575Z" fill="#231F20"/>
<path d="M19.7978 21.7886C20.1954 21.7305 20.4406 21.3947 20.2922 21.0739C20.0781 20.6097 19.8409 20.1546 19.5963 19.704C19.4598 19.453 19.1782 19.3832 18.9363 19.5071C18.6997 19.6284 18.5956 19.9009 18.7176 20.1526C18.9343 20.5993 19.1523 21.0466 19.4028 21.4749C19.481 21.6092 19.6633 21.6855 19.7985 21.7886H19.7978Z" fill="#231F20"/>
<path d="M5.12588 21.2232C5.12191 21.4703 5.2339 21.6366 5.44862 21.7083C5.66864 21.782 5.89927 21.7468 6.01723 21.5355C6.27966 21.0674 6.52486 20.5895 6.75416 20.1043C6.85821 19.884 6.74223 19.6336 6.53481 19.5175C6.32141 19.3982 6.03446 19.421 5.91517 19.629C5.63617 20.1141 5.39428 20.6201 5.14046 21.1196C5.12323 21.1535 5.12853 21.1991 5.12588 21.2226V21.2232Z" fill="#231F20"/>
<path d="M8.42044 21.2262C8.45623 21.472 8.60865 21.6676 8.83198 21.7198C9.05399 21.7713 9.31444 21.6728 9.38932 21.4577C9.55699 20.9752 9.70543 20.4855 9.83798 19.9926C9.89099 19.7956 9.71803 19.5648 9.51921 19.4931C9.30383 19.4155 9.0129 19.4781 8.9347 19.6828C8.74053 20.1888 8.58877 20.7104 8.42044 21.2255V21.2262Z" fill="#231F20"/>
<path d="M15.6202 20.0278C15.6454 20.1178 15.6838 20.2664 15.7282 20.4138C15.8263 20.7398 15.9191 21.0684 16.0304 21.3905C16.1219 21.6566 16.389 21.7876 16.6435 21.7139C16.9072 21.6377 17.0583 21.3742 16.9788 21.0984C16.8529 20.6622 16.7243 20.226 16.5798 19.7957C16.4937 19.5401 16.2684 19.4273 16.0132 19.4775C15.7687 19.5257 15.6169 19.7142 15.6216 20.0278H15.6202Z" fill="#231F20"/>
<path d="M12.233 20.6044C12.233 20.8235 12.2231 21.0432 12.2357 21.2616C12.2516 21.5335 12.453 21.7193 12.7141 21.7252C12.9653 21.7311 13.2105 21.5413 13.2205 21.2844C13.2384 20.8222 13.2403 20.3586 13.2185 19.8963C13.2059 19.6329 12.9686 19.4646 12.7016 19.4751C12.4464 19.4848 12.2522 19.6602 12.2363 19.9217C12.2224 20.148 12.2337 20.3762 12.233 20.6037V20.6044Z" fill="#231F20"/>
<path d="M7.01683 17.3694C7.10563 17.623 7.20437 17.7964 7.42638 17.8623C7.65237 17.9295 7.86841 17.8832 7.99167 17.6758C8.15271 17.4039 8.29255 17.1183 8.42177 16.8301C8.5172 16.6163 8.42973 16.4278 8.25146 16.2935C8.06987 16.1559 7.81407 16.1188 7.68484 16.2857C7.42638 16.6208 7.23552 17.0055 7.01683 17.37V17.3694Z" fill="#231F20"/>
<path d="M16.9477 16.723C17.1511 17.0777 17.3334 17.4461 17.5673 17.7799C17.6826 17.9449 17.9881 17.924 18.1578 17.7988C18.3533 17.6548 18.4215 17.4513 18.3327 17.2394C18.2115 16.9486 18.065 16.665 17.8987 16.397C17.7741 16.1955 17.5554 16.1466 17.3307 16.2249C17.116 16.2998 17.0053 16.4628 16.9463 16.723H16.9477Z" fill="#231F20"/>
<path d="M14.6199 16.7855C14.7014 17.0294 14.7955 17.3821 14.938 17.7147C15.0294 17.9285 15.3171 17.995 15.5397 17.9064C15.7491 17.8229 15.8903 17.596 15.836 17.3763C15.7624 17.0783 15.6743 16.7823 15.5689 16.4941C15.4827 16.2587 15.2508 16.1544 15.0089 16.2065C14.775 16.2567 14.6252 16.438 14.6199 16.7849V16.7855Z" fill="#231F20"/>
<path d="M9.60796 17.342C9.60729 17.6817 9.75905 17.8728 9.98703 17.9256C10.219 17.9797 10.4595 17.8897 10.543 17.6713C10.6617 17.3622 10.7584 17.0427 10.8353 16.7206C10.8837 16.5198 10.7173 16.2949 10.5172 16.2231C10.2998 16.1449 10.0222 16.2068 9.93335 16.4109C9.78821 16.7428 9.69212 17.0949 9.60796 17.342Z" fill="#231F20"/>
<path d="M12.2344 17.0733C12.2344 17.2187 12.2258 17.3654 12.2364 17.5102C12.2563 17.7853 12.4465 17.9646 12.7109 17.9712C12.9754 17.9777 13.2033 17.8062 13.2219 17.5441C13.2437 17.2383 13.2437 16.9279 13.2219 16.6221C13.2033 16.362 12.9654 16.182 12.7089 16.1918C12.4498 16.2016 12.255 16.3893 12.2358 16.6599C12.2258 16.7969 12.2338 16.9351 12.2344 17.0727V17.0733Z" fill="#231F20"/>
<path d="M12.235 11.9249C12.2384 12.204 12.457 12.4107 12.742 12.4041C13.0064 12.3976 13.2271 12.1805 13.2304 11.9223C13.2337 11.6563 13.0031 11.4307 12.7274 11.4307C12.4438 11.4307 12.2317 11.6439 12.235 11.9242V11.9249Z" fill="#231F20"/>
</svg>
