<svg width="30" height="16" viewBox="0 0 30 16" fill="none" xmlns="http://www.w3.org/2000/svg">
<path d="M0.000783004 9.05393C0.326512 8.57466 0.476849 8.06187 0.441614 7.46959C0.398549 6.74328 0.440048 6.01151 0.42752 5.28285C0.422039 4.94697 0.52931 4.69681 0.793966 4.47393C1.71086 3.70241 2.60818 2.90674 3.52195 2.13055C3.70439 1.97546 3.72866 1.85935 3.56345 1.68011C3.37866 1.47982 3.22284 1.25382 3.0451 1.04809C2.85796 0.830658 2.77262 0.596086 2.90729 0.326445C3.03727 0.0677145 3.26669 0.00225253 3.54387 0.00303184C5.80989 0.00770769 8.0759 0.00536977 10.3419 0.00614908C11.9142 0.00614908 13.4872 -0.0133337 15.0595 0.0170594C16.7899 0.0505697 18.298 0.684927 19.5414 1.87727C20.5609 2.8553 21.5287 3.88555 22.5325 4.87995C22.6805 5.02646 22.8903 5.14647 23.0923 5.19869C24.1478 5.46911 25.2213 5.6764 26.2682 5.97566C28.1239 6.50559 29.4441 7.63948 29.8943 9.5597C30.0509 10.2268 29.9867 10.9492 29.9922 11.6459C29.9937 11.7932 29.8661 11.9452 29.7862 12.0878C29.6069 12.4104 29.4135 12.7253 29.2397 13.051C29.0902 13.3316 28.8693 13.4516 28.5522 13.4485C27.781 13.4399 27.0089 13.4539 26.2377 13.4414C26.002 13.4375 25.8892 13.4851 25.8156 13.743C25.4288 15.0983 24.1964 16.0023 22.7862 16.0007C21.3776 15.9991 20.1529 15.0842 19.7552 13.7368C19.7278 13.6448 19.6996 13.5537 19.6667 13.4461C18.8398 13.4461 18.02 13.4461 17.2002 13.4461C17.0828 13.4461 16.9653 13.4485 16.8487 13.4391C16.501 13.4103 16.2865 13.1827 16.2888 12.8538C16.2912 12.5234 16.5323 12.2779 16.8894 12.2725C17.5244 12.2631 18.1594 12.2694 18.7937 12.2694C19.0857 12.2694 19.3778 12.2694 19.6737 12.2694C19.9267 11.2134 20.5264 10.4442 21.4997 9.99923C23.245 9.20044 25.3184 10.1746 25.8329 12.027C25.8845 12.214 25.9519 12.2764 26.1437 12.2733C26.7983 12.2623 27.4529 12.2772 28.1067 12.2608C28.2148 12.2585 28.3486 12.1712 28.423 12.0831C28.8795 11.543 28.903 10.9063 28.8028 10.2065C28.5444 10.2065 28.2837 10.2112 28.0237 10.2058C27.5656 10.1964 27.1037 10.2151 26.6511 10.159C26.0858 10.0889 25.6105 9.62205 25.5095 9.08666C25.3975 8.49283 25.5674 7.99095 26.0607 7.61766C26.197 7.51479 26.3442 7.42517 26.5665 7.27477C26.02 7.13371 25.5557 7.00824 25.0882 6.89368C24.2183 6.68171 23.3437 6.48611 22.4777 6.26011C22.2827 6.20945 22.0791 6.09411 21.9366 5.95228C20.9485 4.97035 19.9705 3.97673 18.9972 2.97999C17.8125 1.76661 16.3765 1.16888 14.6751 1.17278C11.4616 1.18057 8.24816 1.17511 5.03471 1.17511H4.7035C4.76066 1.35903 4.83191 1.52035 4.85775 1.68868C4.93449 2.18822 4.76927 2.60359 4.38325 2.93557C3.5196 3.67981 2.65517 4.42405 1.80169 5.17998C1.70851 5.26259 1.63726 5.42001 1.63491 5.54392C1.62003 6.36064 1.61534 7.17735 1.63256 7.99329C1.64039 8.35645 1.58245 8.68765 1.37809 8.98847C1.20739 9.23941 1.14475 9.51138 1.16668 9.81376C1.1839 10.046 1.19878 10.2845 1.16433 10.5128C1.07115 11.1362 1.30292 11.6381 1.67563 12.1158C1.88312 12.3816 2.13917 12.2351 2.37172 12.2514C2.42731 12.2553 2.52205 12.0862 2.55416 11.9834C2.97385 10.6281 4.26737 9.6727 5.65094 9.70699C7.07052 9.74206 8.30297 10.7287 8.66785 12.1213C8.67725 12.1579 8.68664 12.1953 8.70465 12.267C8.80722 12.267 8.91136 12.267 9.01629 12.267C9.8956 12.267 10.7741 12.2639 11.6534 12.2686C11.9925 12.2701 12.236 12.4634 12.2939 12.7556C12.3448 13.0105 12.1929 13.3058 11.9416 13.3923C11.8163 13.4352 11.6738 13.4414 11.5391 13.4422C10.6896 13.4461 9.83922 13.4492 8.98966 13.4407C8.78687 13.4383 8.69212 13.4843 8.6287 13.7025C8.22467 15.1045 7.00788 16.0069 5.57029 15.9984C4.15227 15.989 2.93705 15.0702 2.55024 13.6869C2.49073 13.475 2.39756 13.4407 2.20807 13.4414C0.988934 13.443 1.23401 13.5466 0.55515 12.5515C0.369578 12.2795 0.184789 12.0075 0 11.7355C0 10.8409 0 9.94624 0 9.05237L0.000783004 9.05393ZM22.8073 10.8978C21.715 10.8892 20.8208 11.7558 20.8068 12.8359C20.7927 13.9098 21.6822 14.82 22.7572 14.831C23.8605 14.8426 24.7609 13.9651 24.7688 12.871C24.7766 11.7846 23.9035 10.9063 22.8073 10.8978ZM5.62823 10.8986C4.55473 10.8791 3.64488 11.741 3.62531 12.7954C3.60495 13.9114 4.45842 14.8154 5.54836 14.8317C6.63361 14.8481 7.54581 13.9979 7.56773 12.9489C7.592 11.8189 6.74088 10.9196 5.62823 10.8993V10.8986ZM27.6674 7.98238C27.3495 8.18578 27.063 8.35333 26.7975 8.54972C26.7231 8.60505 26.6769 8.74688 26.6832 8.8443C26.6871 8.90352 26.8163 8.99938 26.8915 9.00172C27.3934 9.01574 27.8969 9.00873 28.4998 9.00873C28.1866 8.62297 27.9282 8.30423 27.6666 7.98238H27.6674Z" fill="#231F20"/>
<path d="M11.0174 2.12656C12.1011 2.12656 13.1847 2.12344 14.2676 2.12656C15.9127 2.13201 17.2798 2.74299 18.3565 3.98911C18.8083 4.51202 19.2718 5.02481 19.7252 5.54617C20.007 5.87036 20.0501 6.17429 19.8684 6.50861C19.6844 6.84684 19.3877 6.9723 19.0126 6.94113C16.7482 6.75332 14.4837 6.56239 12.2193 6.37925C10.1686 6.21326 8.11635 6.05584 6.06488 5.89218C5.6859 5.86179 5.30693 5.82516 4.92874 5.78775C4.5944 5.75424 4.36341 5.57189 4.25692 5.2625C4.152 4.95701 4.19428 4.65853 4.43936 4.42942C5.15738 3.75765 5.88009 3.08978 6.60828 2.42815C6.86511 2.19436 7.18927 2.125 7.53144 2.125C8.69342 2.125 9.85461 2.125 11.0166 2.125L11.0174 2.12656ZM5.88635 4.69204C7.99107 4.86349 10.0214 5.02793 12.058 5.19392V3.3189C10.5217 3.3189 9.01132 3.3189 7.50012 3.32124C7.43748 3.32124 7.3584 3.3415 7.31377 3.38203C6.85414 3.7974 6.4 4.21822 5.88557 4.69204H5.88635ZM18.2046 5.68488C17.0301 3.88624 15.4492 3.01263 13.2716 3.37813C13.2716 3.90572 13.2865 4.44968 13.2654 4.9913C13.2552 5.25549 13.357 5.31238 13.5989 5.32796C14.4947 5.38563 15.3881 5.46902 16.2823 5.53993C16.9197 5.59059 17.5578 5.63657 18.2046 5.68488Z" fill="#231F20"/>
<path d="M13.3419 7.96506C13.5471 7.96506 13.7522 7.95727 13.9566 7.96662C14.3199 7.98376 14.5689 8.21522 14.5845 8.53474C14.5994 8.84646 14.3567 9.12701 14.0028 9.14494C13.5549 9.16754 13.1039 9.16754 12.6568 9.1426C12.3154 9.12389 12.0828 8.85503 12.086 8.55188C12.0899 8.23392 12.3381 7.98922 12.6975 7.96818C12.9113 7.95571 13.1266 7.96584 13.3419 7.96506Z" fill="#231F20"/>
<path d="M5.43555 8.34098C5.23118 8.34098 5.02525 8.35111 4.82167 8.33864C4.46227 8.31682 4.22502 8.07757 4.22267 7.75182C4.22033 7.42062 4.44426 7.17747 4.81228 7.16189C5.24998 7.14396 5.69002 7.14318 6.12772 7.16422C6.47929 7.18059 6.69853 7.42373 6.7001 7.74247C6.70166 8.06978 6.46676 8.31526 6.10815 8.33786C5.88499 8.35189 5.66027 8.3402 5.43555 8.34098Z" fill="#231F20"/>
<path d="M14.3545 13.4379C14.017 13.4371 13.761 13.18 13.7657 12.848C13.7704 12.5316 14.0296 12.2729 14.3435 12.2705C14.6607 12.2682 14.9441 12.5534 14.9371 12.8698C14.93 13.1893 14.6732 13.4395 14.3537 13.4387L14.3545 13.4379Z" fill="#231F20"/>
</svg>
