<svg width="25" height="27" viewBox="0 0 25 27" fill="none" xmlns="http://www.w3.org/2000/svg">
<path d="M0 25.6564V15.9391C0.141274 15.6694 0.365111 15.5905 0.66356 15.5923C2.34662 15.6021 4.03029 15.5972 5.71334 15.5972H5.98977V8.18309C5.47177 8.15129 5.26934 8.01674 5.2516 7.70361C5.23448 7.40149 5.40144 7.27979 5.98672 7.16604C6.05338 6.76423 6.08518 6.3557 6.19221 5.96735C6.87839 3.47456 8.46176 1.86612 10.9686 1.18849C11.2634 1.10899 11.5667 1.06006 11.8658 0.99707C12.289 0.99707 12.7122 0.99707 13.1354 0.99707C13.333 1.03376 13.5317 1.06251 13.7274 1.10777C16.2074 1.6802 17.8892 3.15165 18.6934 5.57655C18.8628 6.08722 18.9271 6.63274 19.0426 7.17338C19.5747 7.26083 19.7496 7.37091 19.746 7.66264C19.7447 7.76905 19.7117 7.92439 19.6389 7.97026C19.4512 8.08829 19.2328 8.15679 19.0145 8.25097V15.5978C19.1234 15.5978 19.2127 15.5978 19.3013 15.5978C20.9856 15.5978 22.6705 15.5978 24.3548 15.5978C24.8404 15.5978 25.0006 15.7562 25.0006 16.2369C25.0006 19.2722 25.0006 22.3074 25.0006 25.3427C25.0006 25.8448 24.8477 25.9977 24.3462 25.9977C16.4526 25.9977 8.55962 25.9965 0.666006 26.0026C0.366946 26.0026 0.143109 25.9249 0.000611576 25.657L0 25.6564ZM24.0148 23.0847H0.995034V25.01H24.0141V23.0847H24.0148ZM12.0132 8.19165H7.00316V12.2531C7.21354 12.0323 7.37866 11.8532 7.5499 11.6801C7.6869 11.5413 7.82144 11.3975 7.97495 11.2789C8.15353 11.1413 8.35413 11.1456 8.53943 11.277C8.71801 11.4036 8.7859 11.589 8.72107 11.792C8.68377 11.9094 8.59448 12.0189 8.5058 12.1094C8.04467 12.5803 7.57498 13.0421 7.1114 13.5105C7.05759 13.565 6.98909 13.6402 6.98787 13.7068C6.97869 14.33 6.98236 14.9538 6.98236 15.5801H12.0003V11.814C11.4811 12.3345 10.9967 12.8219 10.5099 13.3069C10.4353 13.3809 10.3625 13.4861 10.2714 13.5081C10.1106 13.5478 9.92221 13.5796 9.77115 13.5325C9.58095 13.4732 9.47882 13.2793 9.52958 13.0788C9.56688 12.9314 9.65434 12.7785 9.76075 12.6696C10.4604 11.9541 11.1723 11.2508 11.8762 10.5401C11.9349 10.4808 12.0052 10.397 12.0065 10.3236C12.0162 9.61723 12.0126 8.91086 12.0126 8.19104L12.0132 8.19165ZM13.0088 8.18676V14.8438C13.1122 14.8003 13.1636 14.7251 13.2266 14.6621C14.2326 13.6542 15.2399 12.6476 16.2477 11.6409C16.5798 11.3089 16.8532 11.2654 17.0887 11.5052C17.3217 11.7418 17.274 12.0085 16.937 12.3461C16.9027 12.3809 16.8679 12.4152 16.8336 12.4494C15.8557 13.428 14.8772 14.4065 13.8999 15.385C13.8418 15.4431 13.7874 15.5049 13.714 15.5844H18.0072V8.11459C17.8629 8.19287 17.7394 8.23018 17.6574 8.30968C17.1847 8.76898 16.7217 9.23867 16.2557 9.70469C16.0997 9.86064 15.9279 9.97929 15.6924 9.91385C15.3065 9.80682 15.2081 9.37199 15.5102 9.05764C15.7842 8.77326 16.0771 8.50783 16.411 8.18676H13.0094H13.0088ZM7.02517 7.19295C7.53584 7.19295 8.0465 7.19784 8.55656 7.185C8.60426 7.18377 8.67704 7.0743 8.69172 7.0058C8.9975 5.55331 9.8427 4.56133 11.2285 4.03599C11.4762 3.94181 11.7416 3.89533 11.9985 3.82622V2.02391C9.26293 2.19515 7.06248 4.63778 7.02517 7.19295ZM12.988 2.03308C12.988 2.48748 12.988 2.94127 12.988 3.39506C12.988 3.82377 12.9905 3.81582 13.388 3.92346C14.9903 4.3589 15.9597 5.39491 16.3107 7.01681C16.3248 7.08103 16.3896 7.18316 16.4324 7.18438C16.9498 7.196 17.4678 7.19172 17.9858 7.19172C17.8794 4.30631 15.405 2.12543 12.988 2.03308ZM2.98143 16.5904H0.994422V22.0763H2.98143V16.5904ZM5.99039 22.0854V16.5892H4.00949V22.0854H5.99039ZM6.99887 16.5812V22.0775H8.97977V16.5812H6.99887ZM10.0078 22.0763H11.9948V16.5904H10.0078V22.0763ZM14.9934 16.5874H13.0027V22.0799H14.9934V16.5874ZM16.0208 16.5812V22.0787H18.003V16.5812H16.0208ZM19.0108 16.5812V22.0775H20.9917V16.5812H19.0108ZM24.0099 22.0842V16.588H22.0253V22.0842H24.0099ZM9.68125 7.1746H12.0138C12.0138 6.43215 12.0138 5.70804 12.0138 4.98455C12.0138 4.94479 12.0058 4.90565 12.0016 4.8659C10.8708 5.00167 9.89958 5.96674 9.68247 7.1746H9.68125ZM15.3224 7.18316C15.0992 5.96307 14.1286 4.99983 13.0039 4.86651V7.18316H15.3224Z" fill="#231F20"/>
<path d="M9.24219 11.1568C8.98227 11.1544 8.75659 10.9305 8.75782 10.6749C8.75904 10.4113 8.99939 10.1764 9.26359 10.1807C9.52168 10.1844 9.74674 10.4107 9.74735 10.6675C9.74735 10.9336 9.51495 11.1592 9.24219 11.1568Z" fill="#231F20"/>
<path d="M14.7845 10.925C14.5252 10.9066 14.3142 10.6742 14.3288 10.4217C14.3441 10.1611 14.5961 9.92934 14.8469 9.94402C15.1104 9.95992 15.3367 10.2137 15.3135 10.4675C15.2896 10.7348 15.0487 10.9433 14.7845 10.925Z" fill="#231F20"/>
</svg>
