<svg width="25" height="26" viewBox="0 0 25 26" fill="none" xmlns="http://www.w3.org/2000/svg">
<path d="M13.3705 0.5C13.8538 0.564825 14.3398 0.616195 14.8203 0.696309C17.4 1.12562 19.6017 2.19523 21.4356 3.86722C23.1534 5.43341 24.2655 7.29743 24.744 9.44948C24.8834 10.0757 24.9695 10.7209 24.9811 11.3594C25.0139 13.084 24.9941 14.8098 24.9934 16.5343C24.9934 16.8976 24.7939 17.1153 24.4623 17.1227C24.1219 17.1306 23.9053 16.9043 23.9053 16.5331C23.9039 14.9706 23.9039 13.4081 23.9053 11.8462C23.9073 8.99388 22.8102 6.52687 20.573 4.50262C18.7418 2.84531 16.5107 1.85582 13.9078 1.56655C11.5072 1.29991 9.23651 1.6748 7.11412 2.70098C5.01771 3.71433 3.42574 5.18206 2.33277 7.08277C1.45305 8.61166 1.08531 10.2396 1.08736 11.9489C1.09283 16.0341 1.08941 20.1187 1.08941 24.2038V24.5249C1.47493 24.5249 1.84403 24.5286 2.21315 24.5206C2.26168 24.5194 2.32183 24.468 2.35396 24.4258C3.51666 22.8921 4.6773 21.3564 5.79421 19.8795C5.4832 19.5059 5.14143 19.183 4.92201 18.8032C4.74976 18.5054 4.65407 18.1378 4.65202 17.8003C4.63288 14.3988 4.63629 10.9973 4.64245 7.59586C4.64518 6.31772 5.90152 5.1949 7.33148 5.19246C10.7786 5.18634 14.2257 5.18634 17.6727 5.19246C19.0877 5.1949 20.3495 6.3171 20.3522 7.57874C20.3597 10.9882 20.3591 14.3982 20.3522 17.8076C20.3508 18.5678 19.9811 19.1848 19.3365 19.6734C19.2811 19.715 19.2251 19.7554 19.1519 19.808C19.2804 19.9786 19.4055 20.145 19.5306 20.3113C20.5429 21.6518 21.5587 22.9905 22.5641 24.3347C22.6735 24.4815 22.787 24.5402 22.9825 24.5298C23.2798 24.5139 23.5785 24.5255 23.9059 24.5255C23.9059 24.1653 23.9059 23.8265 23.9059 23.4871C23.9059 22.9502 23.9039 22.4132 23.9059 21.8757C23.9073 21.5203 24.1213 21.3014 24.4555 21.3045C24.7891 21.3075 24.9934 21.5246 24.9941 21.8861C24.9955 22.8951 24.9962 23.9042 24.9941 24.9132C24.9934 25.3254 24.7939 25.4997 24.3236 25.4997C21.2859 25.5003 18.2476 25.4997 15.21 25.4997C10.3896 25.4997 5.56864 25.4997 0.748327 25.4997C0.170053 25.4997 0.00121518 25.3493 0.00121518 24.8344C0.00121518 20.4562 -0.00151898 16.0787 0.00121518 11.7006C0.00463287 6.76048 3.52418 2.46492 8.80451 1.00392C9.63843 0.773365 10.525 0.695698 11.3869 0.546478C11.4662 0.533024 11.5448 0.515901 11.6241 0.500612C12.2065 0.500612 12.7882 0.500612 13.3705 0.500612V0.5ZM19.2613 15.9466H5.73337C5.73337 16.5735 5.70124 17.185 5.74089 17.7923C5.79831 18.6699 6.49278 19.2319 7.47708 19.2509C7.74981 19.2558 8.02254 19.2515 8.29596 19.2515C11.3432 19.2515 14.3897 19.2527 17.4369 19.2509C18.4827 19.2503 19.1936 18.6968 19.2545 17.7917C19.2948 17.1844 19.262 16.5735 19.262 15.9466H19.2613ZM19.2613 8.69544C19.2613 8.32056 19.2852 7.96952 19.2565 7.62277C19.1834 6.7458 18.5019 6.18317 17.5176 6.16422C17.2537 6.15932 16.9899 6.1636 16.726 6.1636C13.6699 6.1636 10.6138 6.16299 7.55774 6.1636C6.67187 6.1636 5.9774 6.56968 5.81472 7.26501C5.7074 7.72551 5.73269 8.21048 5.69783 8.69544H19.2606H19.2613ZM13.0534 14.9364H19.251V10.4041C19.154 10.4855 19.0815 10.5417 19.0139 10.6023C18.1061 11.4132 17.2004 12.2247 16.2913 13.0344C16.2018 13.1139 16.1074 13.1959 15.9988 13.2509C15.7773 13.3628 15.5592 13.3286 15.3713 13.1812C15.1935 13.0424 15.1471 12.7867 15.2694 12.6027C15.3337 12.5066 15.4219 12.421 15.5114 12.3409C16.4226 11.522 17.3364 10.7056 18.249 9.88797C18.3132 9.83048 18.3734 9.76933 18.4547 9.69166H13.0527V14.9357L13.0534 14.9364ZM21.3707 24.5115C20.9906 24.0075 20.6256 23.536 20.2784 23.0547C20.1718 22.9067 20.0556 22.8584 19.8608 22.859C15.0876 22.8645 10.3138 22.8713 5.54062 22.8517C5.0389 22.8499 4.72174 22.9581 4.47976 23.3575C4.24052 23.7519 3.92678 24.1103 3.62466 24.5121H21.3707V24.5115ZM6.58711 14.8874C6.60352 14.9039 6.61924 14.9211 6.63565 14.9376H11.9303V9.69166H5.74978V14.2691C5.82907 14.2025 5.88307 14.1597 5.93365 14.1138C7.05944 13.1072 8.18249 12.0993 9.31101 11.0952C9.58921 10.8475 9.9262 10.8359 10.1538 11.0475C10.3787 11.2566 10.3568 11.5306 10.0944 11.7862C10.0513 11.8284 10.0048 11.867 9.9597 11.9073C9.04649 12.7237 8.13464 13.542 7.2187 14.3566C7.01364 14.5388 6.79696 14.7101 6.58574 14.8868L6.58711 14.8874ZM5.6199 21.8665H19.3734C19.0535 21.4427 18.7309 21.0574 18.4616 20.644C18.251 20.3211 18.0234 20.1064 17.5716 20.2238C17.5128 20.2391 17.4451 20.2263 17.3816 20.2263C14.1252 20.2263 10.8688 20.2263 7.6131 20.2251C7.4224 20.2251 7.23169 20.1994 7.04167 20.2073C6.95964 20.211 6.84959 20.2514 6.80585 20.3076C6.41076 20.814 6.02729 21.3277 5.62059 21.8659L5.6199 21.8665Z" fill="#231F20"/>
<path d="M24.4433 18.4913C24.7284 18.4852 24.9867 18.7066 24.9963 18.9647C25.0059 19.2264 24.7714 19.4521 24.4775 19.4649C24.1754 19.4778 23.9122 19.2539 23.9102 18.9836C23.9081 18.7262 24.1556 18.4981 24.4433 18.4919V18.4913Z" fill="#231F20"/>
<path d="M12.4785 18.0775C11.8066 18.0775 11.1346 18.0793 10.462 18.0769C10.0724 18.0757 9.81884 17.8757 9.82431 17.5828C9.82977 17.2984 10.0772 17.1045 10.4518 17.1039C11.8141 17.1021 13.1764 17.1021 14.5387 17.1039C14.9119 17.1039 15.1593 17.3008 15.1627 17.5858C15.1662 17.8714 14.918 18.0751 14.5489 18.0763C13.8586 18.08 13.1689 18.0775 12.4785 18.0775Z" fill="#231F20"/>
<path d="M8.52458 17.5903C8.52458 17.8564 8.2867 18.0729 7.9921 18.0759C7.70433 18.0784 7.44732 17.8582 7.43775 17.6013C7.42818 17.3396 7.69544 17.1005 7.99415 17.1035C8.28876 17.1072 8.52595 17.3237 8.52526 17.5903H8.52458Z" fill="#231F20"/>
<path d="M16.4727 17.5812C16.4768 17.3157 16.7188 17.1017 17.0134 17.1035C17.3018 17.1048 17.5561 17.3292 17.5595 17.5854C17.5629 17.849 17.2936 18.0826 16.9956 18.0753C16.7003 18.0679 16.4686 17.849 16.4727 17.5818V17.5812Z" fill="#231F20"/>
</svg>
