<svg width="25" height="29" viewBox="0 0 25 29" fill="none" xmlns="http://www.w3.org/2000/svg">
<path d="M2.28236 0.602539C9.09448 0.602539 15.9066 0.602539 22.718 0.602539C22.7572 0.620671 22.7942 0.646781 22.8349 0.65621C24.1128 0.936893 24.9979 2.01538 24.9986 3.31581C25.0008 11.4658 25.0001 19.6157 24.9986 27.7657C24.9986 28.1994 24.8026 28.3974 24.3713 28.3974C16.457 28.3974 8.54193 28.3974 0.627614 28.3974C0.19632 28.3974 0.00100374 28.1994 0.00100374 27.7664C0.00100374 19.607 -0.00335277 11.4484 0.00608633 3.28897C0.00753849 2.18727 0.555006 1.38366 1.53014 0.881046C1.76611 0.759199 2.03113 0.693924 2.28236 0.602539ZM23.9153 27.3022V27.0382C23.9153 19.1755 23.9153 11.312 23.9153 3.44926C23.9153 2.37295 23.2255 1.68683 22.1466 1.68683C15.7244 1.68611 9.30214 1.68611 2.8792 1.68683C1.76466 1.68683 1.0865 2.36497 1.0865 3.47972C1.0865 11.3243 1.0865 19.169 1.0865 27.0143V27.2921H2.44791C2.44791 27.1521 2.44791 27.0346 2.44791 26.9171C2.44791 20.3932 2.44791 13.8693 2.44791 7.34546C2.44791 7.2548 2.44355 7.16414 2.45009 7.07421C2.47042 6.80513 2.67009 6.58392 2.93656 6.58029C3.74251 6.57014 4.54919 6.56941 5.35515 6.58029C5.63614 6.58392 5.85832 6.85372 5.84961 7.12933C5.8409 7.40856 5.61581 7.64863 5.32828 7.65443C4.83019 7.66458 4.33209 7.65805 3.834 7.65805C3.73816 7.65805 3.64304 7.65805 3.55446 7.65805V27.2986H11.9415V7.65878C11.3541 7.65878 10.7848 7.66168 10.2156 7.65733C9.91278 7.65515 9.7102 7.48616 9.65647 7.20766C9.58604 6.84502 9.85977 6.57521 10.302 6.57521C14.1335 6.57521 17.965 6.57521 21.7966 6.57521C22.4036 6.57521 22.5546 6.72389 22.5546 7.3208C22.5546 13.8628 22.5546 20.4048 22.5546 26.9461V27.3015H23.916L23.9153 27.3022ZM21.4503 27.3015V7.68054H13.0567V27.3015H21.4503Z" fill="#231F20"/>
<path d="M7.74778 4.24865C7.32883 4.52643 6.91714 4.80276 6.50182 5.07402C6.1671 5.29305 5.85706 5.25606 5.66755 4.98191C5.47369 4.70195 5.56154 4.38863 5.90498 4.15799C6.39218 3.83089 6.88447 3.51177 7.36877 3.18031C7.62507 3.0048 7.86613 3.00407 8.12099 3.17596C8.61473 3.50886 9.11427 3.83451 9.60656 4.16887C9.93257 4.39008 10.0132 4.7034 9.82801 4.97828C9.64286 5.25316 9.32556 5.29378 8.99447 5.07692C8.57915 4.80494 8.16746 4.52788 7.74778 4.24865Z" fill="#231F20"/>
<path d="M17.2548 4.0143C17.7028 3.71766 18.1363 3.42392 18.577 3.14179C18.8123 2.99093 19.0678 3.01486 19.2501 3.1882C19.4331 3.36227 19.4868 3.57768 19.3801 3.80397C19.3292 3.91203 19.2312 4.0114 19.131 4.0803C18.6329 4.42335 18.1261 4.75336 17.6244 5.09061C17.3688 5.2625 17.127 5.25525 16.8722 5.08046C16.3813 4.7432 15.8803 4.42045 15.3866 4.08682C15.0715 3.87359 14.9902 3.5726 15.1637 3.2999C15.3445 3.01704 15.6647 2.96554 15.9922 3.17805C16.4082 3.44785 16.8199 3.72636 17.2548 4.01502V4.0143Z" fill="#231F20"/>
<path d="M7.74075 7.65848C7.44016 7.65631 7.1882 7.40101 7.19547 7.10582C7.20273 6.80773 7.45976 6.56839 7.76254 6.57637C8.05225 6.58434 8.2933 6.82804 8.29403 7.11452C8.29548 7.41189 8.04208 7.66066 7.74003 7.65848H7.74075Z" fill="#231F20"/>
</svg>
