<svg width="25" height="26" viewBox="0 0 25 26" fill="none" xmlns="http://www.w3.org/2000/svg">
<path d="M0 23.7281C0 21.2467 0 18.7608 0 16.2793C0.0162866 16.2308 0.0407166 16.1823 0.0447883 16.1338C0.183225 14.9746 0.614821 13.9609 1.31922 13.0837C1.44137 12.9295 1.48616 12.784 1.48616 12.5857C1.48616 9.88381 1.48616 7.17754 1.48616 4.47567C1.48616 4.2024 1.48616 3.92472 1.53094 3.66026C1.84446 1.79143 3.24104 0.508815 4.98778 0.504408C9.95928 0.5 14.9267 0.5 19.8982 0.5C20.5008 0.5 21.079 0.636636 21.6002 0.967207C22.8054 1.72972 23.3998 2.88011 23.3998 4.38752C23.3998 7.08939 23.3998 9.79566 23.408 12.4975C23.408 12.6474 23.4731 12.8237 23.5668 12.9339C24.4381 13.9873 24.9593 15.217 24.9796 16.6319C25.0122 18.893 24.9959 21.1585 24.9878 23.4196C24.9837 24.7507 23.75 25.76 22.5529 25.4339C21.6653 25.1915 21.0749 24.4113 21.0342 23.424C21.0261 23.1816 21.0342 22.9392 21.0342 22.6968H3.98616C3.96987 23.067 3.98616 23.424 3.92915 23.7634C3.75 24.7727 2.95195 25.4736 2.00733 25.4956C1.11564 25.5176 0.309446 24.8477 0.0610749 23.8912C0.0447883 23.8339 0.0203583 23.781 0.00407166 23.7237L0 23.7281ZM24.0187 18.4566C23.9984 17.5575 24.0879 16.6848 23.8966 15.8297C23.408 13.6259 21.6775 12.1449 19.5806 12.1405C16.0505 12.1361 12.5204 12.1405 8.99023 12.1405C7.72801 12.1405 6.46987 12.1273 5.20765 12.1493C4.10423 12.1714 3.15554 12.6342 2.35342 13.4452C0.997557 14.8203 0.863192 16.5834 1.0057 18.4566H1.31515C5.55375 18.4566 9.79234 18.4566 14.0309 18.4566C14.1531 18.4566 14.2752 18.461 14.3933 18.4963C14.6132 18.5624 14.7191 18.7475 14.7353 18.99C14.7476 19.2191 14.5928 19.4395 14.3811 19.4968C14.2549 19.5277 14.1246 19.5321 13.9943 19.5321C9.76384 19.5321 5.53339 19.5321 1.30293 19.5321H0.993485V21.5993H24.0065V19.5321C23.8966 19.5321 23.8029 19.5321 23.7052 19.5321C22.215 19.5321 20.7288 19.5321 19.2386 19.5321C18.8599 19.5321 18.6401 19.3337 18.636 19.0032C18.6319 18.6594 18.8559 18.4566 19.2467 18.4566C19.7191 18.4566 20.1914 18.4566 20.6637 18.4566C21.7712 18.4566 22.8746 18.4566 24.0228 18.4566H24.0187ZM22.4104 11.8849C22.4104 11.7879 22.4104 11.713 22.4104 11.638C22.4104 9.20945 22.4104 6.77645 22.4104 4.34785C22.4104 2.72144 21.3518 1.57987 19.8412 1.57987C14.9104 1.57987 9.97964 1.57987 5.05293 1.57987C4.88192 1.57987 4.71091 1.57987 4.54397 1.61513C3.30212 1.87518 2.48778 2.92419 2.48371 4.29055C2.47557 6.77204 2.48371 9.25793 2.48371 11.7394C2.48371 11.8055 2.49186 11.8672 2.5 11.9422C2.79723 11.7879 3.07003 11.6292 3.35098 11.5014C3.48941 11.4397 3.52606 11.3516 3.52199 11.2061C3.51384 10.7389 3.52199 10.2717 3.52199 9.80448C3.52199 8.07669 4.62948 6.85137 6.2215 6.83374C7.58958 6.82052 8.95358 6.82934 10.3217 6.83374C10.9976 6.83374 11.5961 7.06294 12.1091 7.54778C12.2476 7.68001 12.3941 7.80342 12.5611 7.95769C12.5529 7.97532 12.5651 7.93124 12.5896 7.89598C13.123 7.19076 13.8192 6.84256 14.6539 6.83374C16.0383 6.82493 17.4186 6.81611 18.8029 6.83374C20.3746 6.85578 21.4739 8.0811 21.478 9.77363C21.478 10.2585 21.478 10.7433 21.478 11.2281C21.478 11.3031 21.5065 11.4221 21.5554 11.4485C21.8282 11.5984 22.1091 11.7306 22.4104 11.8805V11.8849ZM11.9951 11.0871C11.9951 10.5097 12.0399 9.9896 11.987 9.47831C11.8852 8.52186 11.2296 7.92243 10.342 7.91802C8.92101 7.9092 7.49593 7.9092 6.07492 7.91802C5.39088 7.92243 4.79234 8.40726 4.59283 9.11248C4.40554 9.77363 4.53176 10.448 4.49511 11.0827H11.9951V11.0871ZM13.0252 11.0871H20.4845C20.4845 11.0518 20.4967 10.9857 20.4967 10.9152C20.4927 10.4392 20.5212 9.95874 20.4723 9.49154C20.3705 8.53508 19.7231 7.92683 18.8355 7.92243C17.4063 7.91361 15.9731 7.91361 14.544 7.92683C13.7948 7.93565 13.1311 8.53508 13.0375 9.34168C12.9764 9.89263 13.0252 10.4612 13.0252 11.0871ZM0.98127 22.6968C0.98127 22.9612 0.960912 23.208 0.98127 23.4461C1.0342 23.9926 1.43322 24.4025 1.90961 24.4201C2.43078 24.4422 2.86645 24.1072 2.95195 23.5651C2.99674 23.2874 2.9601 22.9921 2.9601 22.6923H0.98127V22.6968ZM24.035 22.7012H22.0114C22.0114 22.9392 22.0114 23.1596 22.0114 23.3755C22.0236 23.9089 22.4023 24.3672 22.8746 24.4157C23.408 24.473 23.864 24.1513 23.9699 23.6047C24.0269 23.3182 24.0147 23.0141 24.035 22.6968V22.7012Z" fill="#231F20"/>
<path d="M16.1915 19.008C16.1874 18.7127 16.4032 18.4614 16.6719 18.457C16.9325 18.457 17.1727 18.7083 17.1727 18.9948C17.1727 19.268 16.9569 19.5149 16.6963 19.5281C16.4276 19.5413 16.1955 19.3033 16.1915 19.008Z" fill="#231F20"/>
</svg>
