<svg width="17" height="26" viewBox="0 0 17 26" fill="none" xmlns="http://www.w3.org/2000/svg">
<path d="M0.317716 25.5C0.0593163 25.333 -0.0025257 25.0897 7.78282e-05 24.7929C0.0228587 22.2651 1.6351 20.2278 4.072 19.6694C4.33886 19.6081 4.61288 19.582 4.90317 19.5364C4.90317 18.8645 4.90709 18.1991 4.89732 17.5331C4.89667 17.473 4.82117 17.3948 4.76063 17.3576C3.38142 16.5069 2.39078 15.3288 1.77244 13.8304C1.74576 13.7652 1.66048 13.6902 1.59474 13.681C0.570901 13.5414 0.0944664 12.7652 0.0274257 12.1781C-0.0741118 11.2915 0.33008 10.6366 1.1938 10.2589C1.25824 10.2308 1.32788 10.1421 1.33829 10.0723C1.46001 9.29606 1.69564 8.55827 2.04646 7.8557C2.09788 7.75264 2.1187 7.62413 2.11935 7.50671C2.12391 5.86283 2.12131 4.2196 2.12261 2.57572C2.12326 1.33629 2.96224 0.500652 4.20282 0.5C7.06865 0.5 9.93449 0.5 12.8003 0.5C14.0526 0.5 14.8818 1.33629 14.8825 2.59855C14.8831 4.23395 14.8805 5.86935 14.8871 7.50475C14.8871 7.63587 14.9241 7.77808 14.9821 7.8968C15.3049 8.55827 15.534 9.24974 15.6453 9.97579C15.6727 10.1526 15.7319 10.2348 15.8972 10.3013C17.0395 10.7599 17.3649 12.197 16.5383 13.1089C16.2428 13.4351 15.8653 13.6047 15.4357 13.6784C15.3602 13.6915 15.2619 13.7613 15.234 13.8298C14.6137 15.3269 13.6256 16.5076 12.2451 17.3569C12.1846 17.3941 12.1091 17.4724 12.1084 17.5324C12.0987 18.2063 12.1026 18.8801 12.1026 19.5331C12.5328 19.6434 12.9487 19.7171 13.3406 19.8573C15.4683 20.6179 16.8384 22.6728 16.7609 24.939C16.7518 25.1954 16.634 25.3604 16.4446 25.5H0.317716ZM8.49538 8.33973C6.70936 8.33973 4.92336 8.34169 3.13799 8.33582C2.96876 8.33582 2.87633 8.38409 2.80603 8.54261C2.51444 9.20212 2.33805 9.89033 2.26841 10.6066C2.23261 10.9706 2.10894 11.1017 1.74314 11.1513C1.24652 11.2185 0.944512 11.572 0.998536 12.0287C1.04735 12.4403 1.47238 12.7632 1.92539 12.6758C2.25734 12.6119 2.43764 12.7462 2.5522 13.0711C2.57107 13.1246 2.58668 13.1794 2.60556 13.2329C3.65478 16.1508 6.52843 17.8181 9.48083 17.3256C11.9405 16.9153 13.5944 15.4554 14.4464 13.0998C14.5798 12.7306 14.7399 12.634 15.124 12.6693C15.2704 12.683 15.4351 12.6654 15.5705 12.6099C15.8933 12.4775 16.0612 12.1357 16.0059 11.7919C15.9525 11.4611 15.674 11.2113 15.2958 11.1546C14.8721 11.0913 14.7816 10.996 14.7347 10.5675C14.6599 9.88511 14.4959 9.22821 14.2231 8.5961C14.1411 8.40562 14.0429 8.33321 13.8294 8.33452C12.0518 8.34365 10.2736 8.33973 8.49603 8.33973H8.49538ZM13.8938 6.30902C12.8524 6.30902 11.8383 6.30902 10.8236 6.30902C10.4239 6.30902 10.2066 6.13355 10.2105 5.81586C10.2144 5.50796 10.4292 5.33509 10.8125 5.33509C11.7544 5.33509 12.6962 5.33509 13.638 5.33509C13.7233 5.33509 13.8085 5.32792 13.8853 5.32465V3.4355C13.7695 3.4355 13.6731 3.4355 13.5768 3.4355C10.7513 3.4355 7.92587 3.4355 5.10104 3.4355C5.00341 3.4355 4.88821 3.46485 4.81271 3.4231C4.66691 3.34221 4.5107 3.24306 4.42022 3.10933C4.31088 2.9469 4.36425 2.7362 4.51655 2.6266C4.64933 2.53071 4.83548 2.46352 4.99885 2.46287C7.86468 2.45308 10.7305 2.45569 13.5963 2.45569C13.692 2.45569 13.7877 2.45569 13.8847 2.45569C13.8417 1.84837 13.4421 1.48046 12.8355 1.4798C9.94491 1.47785 7.055 1.47785 4.16443 1.4798C3.53047 1.4798 3.1074 1.89664 3.10219 2.53202C3.09503 3.41071 3.10023 4.2894 3.10089 5.16809C3.10089 5.21506 3.10674 5.26203 3.11195 5.33509C3.21218 5.33509 3.29875 5.33509 3.38596 5.33509C4.3356 5.33509 5.28589 5.33509 6.23552 5.33509C6.59741 5.33509 6.8018 5.51318 6.80115 5.82304C6.80115 6.13224 6.59676 6.30902 6.23357 6.30902C5.28393 6.30968 4.33366 6.30902 3.38403 6.30902C3.29746 6.30902 3.21088 6.30902 3.11716 6.30902V7.3247H13.8938V6.30902ZM10.6687 24.5137C10.5951 24.4204 10.5522 24.3623 10.506 24.3082C9.41834 23.0251 8.33203 21.7413 7.23985 20.462C7.0986 20.297 7.03546 20.1248 7.04002 19.9082C7.05044 19.4287 7.04588 18.948 7.04002 18.4685C7.03937 18.3981 7.01398 18.2793 6.97233 18.2656C6.62606 18.1476 6.27328 18.0484 5.89772 17.9362C5.89772 18.5846 5.89772 19.2024 5.89772 19.8195C5.89772 20.3968 5.75843 20.5351 5.17849 20.5384C3.30981 20.5494 1.69759 21.74 1.17038 23.515C1.076 23.8333 1.03694 24.1686 0.969249 24.515H10.6693L10.6687 24.5137ZM8.6158 20.5331C8.66462 20.6042 8.68024 20.6323 8.70042 20.6558C9.76136 21.9076 10.8216 23.1607 11.8884 24.4067C11.9451 24.4732 12.0661 24.5163 12.1572 24.5169C13.293 24.5241 14.4295 24.5222 15.5659 24.5208C15.6284 24.5208 15.6909 24.5111 15.7892 24.5026C15.7364 24.2143 15.7013 23.9409 15.6362 23.6748C15.2359 22.0413 13.7415 20.6095 11.7277 20.539C11.248 20.522 11.1106 20.3648 11.1087 19.8893C11.1067 19.3283 11.1087 18.7666 11.1074 18.2056C11.1074 18.1221 11.0996 18.0386 11.095 17.9532C10.7038 18.0699 10.3406 18.1776 9.96182 18.2911C9.96182 18.8566 9.96442 19.4255 9.96117 19.9937C9.95922 20.3368 9.78022 20.5207 9.43851 20.5312C9.18076 20.5384 8.92302 20.5325 8.6158 20.5325V20.5331ZM8.03911 18.3994V19.5299H8.96662V18.3994H8.03911Z" fill="#231F20"/>
<path d="M8.48512 16.2122C7.80365 16.1972 7.2055 16.0217 6.65876 15.6747C6.37368 15.494 6.29882 15.2272 6.45503 14.9701C6.60082 14.7301 6.88591 14.6622 7.15538 14.826C8.04643 15.3661 8.9375 15.3152 9.83181 14.8416C10.1468 14.6746 10.4248 14.7262 10.5699 14.9825C10.7216 15.2487 10.6324 15.5135 10.3239 15.6929C9.74458 16.0302 9.11648 16.1913 8.48512 16.2115V16.2122Z" fill="#231F20"/>
<path d="M12.9787 10.2406C12.9637 10.7292 12.5719 10.9431 12.2106 10.7461C11.8409 10.5446 11.453 10.4421 11.0423 10.5106C10.7754 10.555 10.5118 10.6476 10.2606 10.7513C9.95532 10.8779 9.6813 10.8231 9.54722 10.5693C9.40923 10.3084 9.50099 10.0299 9.7978 9.87852C10.7559 9.38927 11.7218 9.33709 12.6728 9.88896C12.8218 9.97572 12.9136 10.1623 12.9793 10.2406H12.9787Z" fill="#231F20"/>
<path d="M5.81024 9.49219C6.31467 9.50915 6.79046 9.62331 7.2246 9.88294C7.51099 10.0545 7.59692 10.3246 7.45047 10.5829C7.31313 10.8243 7.03194 10.9006 6.75466 10.7479C6.10183 10.3885 5.45551 10.4211 4.80397 10.7466C4.50717 10.8947 4.22469 10.8197 4.09257 10.5659C3.95263 10.2965 4.05546 10.0317 4.36789 9.86402C4.81895 9.622 5.30515 9.51371 5.81024 9.49219Z" fill="#231F20"/>
<path d="M9.58498 13.3044C9.54528 13.292 9.45546 13.2764 9.37801 13.2372C8.79221 12.9398 8.21033 12.9724 7.62453 13.2372C7.29128 13.3879 6.98407 13.2686 6.89425 12.9607C6.82851 12.7356 6.9027 12.5066 7.1175 12.397C8.03589 11.9287 8.96209 11.8915 9.88179 12.3938C10.0933 12.5092 10.1708 12.7349 10.1083 12.958C10.0504 13.1635 9.85575 13.3051 9.58498 13.3031V13.3044Z" fill="#231F20"/>
<path d="M8.49407 5.33497C8.77135 5.33366 8.98418 5.54763 8.98288 5.82487C8.98158 6.10146 8.76483 6.31281 8.48821 6.30825C8.222 6.30433 8.01633 6.09754 8.01177 5.83074C8.00787 5.55285 8.2181 5.33627 8.49407 5.33497Z" fill="#231F20"/>
<path d="M8.10476 22.6875C8.37097 22.6849 8.59813 22.9139 8.59683 23.1826C8.59553 23.4501 8.36382 23.6797 8.10022 23.6745C7.84312 23.6693 7.62898 23.4514 7.62507 23.1905C7.62052 22.9145 7.83465 22.6901 8.10476 22.6875Z" fill="#231F20"/>
<path d="M6.31292 23.1937C6.30837 23.4638 6.07469 23.6889 5.81173 23.6758C5.55398 23.6634 5.34049 23.4397 5.33984 23.1827C5.33984 22.9152 5.56896 22.6862 5.83517 22.6895C6.10399 22.6927 6.31813 22.9185 6.31292 23.1944V23.1937Z" fill="#231F20"/>
</svg>
