<svg width="25" height="23" viewBox="0 0 25 23" fill="none" xmlns="http://www.w3.org/2000/svg">
<path d="M24.9973 10.3215C24.8835 10.7271 24.8083 11.1481 24.6499 11.5354C24.1533 12.7486 23.3504 13.6827 22.0735 14.1043C20.5838 14.5964 19.187 13.7943 18.8128 12.2632C18.3407 10.335 19.4977 8.00172 21.3201 7.20638C23.0055 6.47118 24.656 7.38129 24.9471 9.2064C24.9569 9.269 24.9808 9.32914 24.9979 9.39051V10.3215H24.9973ZM24.0261 9.80168C24.0102 9.66912 23.9992 9.52245 23.9742 9.37885C23.7656 8.18461 22.8343 7.65683 21.7525 8.10114C21.2143 8.32269 20.796 8.68906 20.4652 9.15055C19.8157 10.0564 19.4928 11.0512 19.8249 12.1632C20.0053 12.767 20.3961 13.1813 21.0645 13.2482C21.5476 13.296 21.9861 13.1463 22.3732 12.8787C23.4372 12.1423 23.9485 11.0959 24.0268 9.80229L24.0261 9.80168Z" fill="#231F20"/>
<path d="M4.63672 18.6018C4.6569 17.5241 5.04707 16.5109 5.88121 15.7002C6.97525 14.6361 7.8253 13.4057 8.47169 12.0273C8.76951 11.3921 9.08934 10.7772 9.59508 10.2679C10.6659 9.19084 12.4895 8.79071 13.9119 9.32892C14.9913 9.73763 15.7692 10.455 16.2896 11.486C16.6816 12.2624 17.0889 13.0338 17.5384 13.7776C18.0252 14.5839 18.7156 15.2259 19.354 15.9126C20.9599 17.6389 20.6915 20.5386 18.8281 21.9795C17.6185 22.9148 16.2676 23.2167 14.7877 22.8448C13.2661 22.4631 11.7563 22.4748 10.2311 22.835C8.55546 23.2308 7.06881 22.8301 5.83412 21.6174C5.02322 20.8209 4.65445 19.8212 4.63672 18.6024V18.6018ZM15.9465 22.0556C16.6565 22.001 17.2552 21.8292 17.8747 21.4499C19.6751 20.3477 19.9643 17.7684 18.4312 16.3581C17.8209 15.7966 17.3017 15.1657 16.8241 14.4925C16.218 13.6382 15.7814 12.6913 15.3166 11.7579C14.6348 10.3875 12.8956 9.7229 11.4597 10.2488C10.5424 10.5845 9.92104 11.2185 9.5266 12.1016C8.79092 13.7481 7.80021 15.2093 6.50559 16.4772C5.28434 17.6733 5.33144 19.7696 6.56125 20.9516C7.55744 21.9089 8.74505 22.1906 10.0745 21.8611C11.5098 21.5058 12.9506 21.4622 14.4012 21.7426C14.9173 21.8421 15.4316 21.9513 15.9465 22.0556Z" fill="#231F20"/>
<path d="M13.5158 4.33507C13.5409 3.01932 13.9035 1.82446 14.8294 0.857903C16.0555 -0.421641 17.6847 -0.240604 18.6258 1.25925C19.7205 3.00459 19.3872 5.83125 17.9171 7.26728C16.6206 8.53394 14.9309 8.27005 14.0693 6.66341C13.6803 5.93803 13.5091 5.15803 13.5158 4.33507ZM18.2742 4.01963C18.306 3.12856 18.1715 2.38599 17.7434 1.71707C17.2774 0.988619 16.5613 0.779352 15.9394 1.22366C15.6672 1.4182 15.411 1.6692 15.2251 1.9472C14.4894 3.04571 14.331 4.25345 14.6655 5.52379C14.7939 6.01044 15.0269 6.45169 15.4128 6.78983C15.9345 7.24703 16.6432 7.1648 17.1955 6.58977C17.9134 5.84291 18.2234 4.92973 18.2742 4.02025V4.01963Z" fill="#231F20"/>
<path d="M11.4963 4.3231C11.4768 5.44431 11.2334 6.46058 10.483 7.28845C9.62136 8.23844 8.41846 8.32129 7.40698 7.52472C6.51841 6.8245 6.05792 5.87758 5.84449 4.7895C5.61639 3.62595 5.71607 2.49798 6.27502 1.44121C6.6505 0.731171 7.19049 0.188669 8.01729 0.0377015C8.871 -0.118176 9.56632 0.222423 10.1442 0.817089C11.097 1.79777 11.4707 3.01103 11.4957 4.32249L11.4963 4.3231ZM10.5154 4.05246C10.458 3.79287 10.3815 3.28412 10.2274 2.79992C10.0311 2.185 9.68191 1.65539 9.15292 1.26263C8.63189 0.87539 8.0014 0.891958 7.56721 1.36511C7.33054 1.62286 7.11649 1.93216 6.99174 2.25681C6.62176 3.21846 6.63583 4.2022 6.96422 5.17736C7.17092 5.78982 7.48342 6.33907 8.00139 6.74411C8.67225 7.26881 9.41038 7.14914 9.90145 6.45629C10.3595 5.80946 10.4934 5.07548 10.5154 4.05246Z" fill="#231F20"/>
<path d="M3.54811 14.2437C2.79409 14.2173 2.00705 13.7889 1.35881 13.1065C0.439671 12.1387 -0.0330599 10.9832 0.00179783 9.6312C0.0348209 8.36086 0.783962 7.3139 1.90369 7.02547C2.83323 6.78552 3.66615 7.0672 4.39571 7.62689C5.66404 8.59958 6.31473 9.91104 6.2817 11.5152C6.26091 12.5254 5.88542 13.3907 4.97117 13.9368C4.61158 14.1516 4.23489 14.2425 3.5469 14.2443L3.54811 14.2437ZM0.97599 9.99696C1.01941 10.2068 1.05732 10.5683 1.16984 10.9034C1.52026 11.9454 2.14158 12.7604 3.20444 13.1562C4.08505 13.4846 4.93203 13.0353 5.18643 12.1258C5.43349 11.2421 5.26349 10.4137 4.84092 9.62936C4.45198 8.90704 3.90893 8.33877 3.1176 8.05095C2.39171 7.78645 1.74286 7.97055 1.32946 8.57197C1.0665 8.9543 1.0029 9.39861 0.975378 9.99635L0.97599 9.99696Z" fill="#231F20"/>
<path d="M15.4171 14.4391C15.5388 14.5219 15.688 14.5815 15.7773 14.6907C16.3473 15.3891 16.905 16.0973 17.4658 16.8036C17.6474 17.0325 17.6315 17.329 17.4309 17.5057C17.2303 17.6831 16.9356 17.6806 16.7344 17.4499C16.2647 16.911 15.8122 16.3569 15.3621 15.8015C15.2141 15.6192 15.0777 15.4228 14.9627 15.2179C14.764 14.8619 14.9958 14.4728 15.4171 14.4385V14.4391Z" fill="#231F20"/>
<path d="M14.4617 12.7385C14.7198 12.7471 14.9387 12.9772 14.9369 13.2362C14.9345 13.5112 14.7051 13.7259 14.4269 13.7143C14.1603 13.7026 13.9554 13.4799 13.9652 13.2135C13.975 12.9539 14.2092 12.7299 14.4617 12.7385Z" fill="#231F20"/>
</svg>
