<svg width="25" height="26" viewBox="0 0 25 26" fill="none" xmlns="http://www.w3.org/2000/svg">
<path d="M20.1652 25.5H0.732187C0.467093 25.3689 0.386391 25.1561 0.38688 24.8636C0.39275 17.8231 0.391771 10.7831 0.391771 3.74265C0.391771 3.67759 0.40351 3.6096 0.387858 3.54846C0.374164 3.49416 0.33797 3.44084 0.299331 3.39828C0.203467 3.29262 0.100266 3.19333 0 3.09158C0 2.34268 0 1.59426 0 0.845356C0.13059 0.578764 0.344817 0.499031 0.637301 0.500009C3.13515 0.508325 5.63251 0.5049 8.13035 0.5049C10.5548 0.5049 12.9793 0.5049 15.4038 0.5049C15.8567 0.5049 16.0137 0.664856 16.0137 1.12418C16.0137 1.70188 16.0088 2.27957 16.0162 2.85678C16.0191 3.09941 15.9467 3.28235 15.7217 3.39779C15.6762 3.42127 15.6283 3.4922 15.6278 3.54161C15.6219 4.26165 15.6239 4.98218 15.6239 5.74821C16.4877 5.06779 17.4218 4.70825 18.4842 4.70238C19.5582 4.69651 20.5125 5.03061 21.3449 5.7037C22.9125 6.97111 23.3326 8.73209 22.6259 11.037C24.9129 12.3167 25.47 14.9332 24.6302 16.8062C24.1988 17.7679 23.5244 18.506 22.5902 18.9917C21.4535 19.5826 20.2665 19.6472 19.0403 19.2578C19.0305 19.3043 19.0188 19.3341 19.0188 19.3645C19.0173 20.2024 19.0212 21.0403 19.0139 21.8783C19.0124 22.0402 19.1014 22.0588 19.2212 22.0822C19.9393 22.2221 20.4391 22.6379 20.7169 23.3086C21.0436 24.0986 20.7878 25.0896 20.1657 25.5H20.1652ZM1.38367 3.43204V24.5065H12.0119C11.8803 23.9137 12.004 23.3829 12.3278 22.8629C11.8964 22.8629 11.5076 22.8639 11.1188 22.8629C10.727 22.8615 10.549 22.6878 10.5485 22.3019C10.547 21.4395 10.547 20.5771 10.5485 19.7147C10.549 19.3376 10.7255 19.1571 11.0958 19.1556C11.7712 19.1536 12.4467 19.1536 13.1221 19.1556C13.4919 19.1566 13.6694 19.3381 13.6704 19.7137C13.6719 20.4132 13.6704 21.1132 13.6704 21.8127C13.6704 21.8871 13.6704 21.9614 13.6704 22.0509C13.9517 21.7687 14.1864 21.5001 14.4579 21.2756C14.5997 21.1582 14.653 21.0535 14.653 20.875C14.6486 15.1552 14.6496 9.43501 14.6496 3.71526V3.43252C14.5039 3.43252 14.384 3.43252 14.2637 3.43252C12.9211 3.43252 11.5785 3.43399 10.2359 3.43155C9.86814 3.43106 9.64511 3.17033 9.71554 2.83477C9.7664 2.59166 9.95666 2.4591 10.2633 2.45861C11.7605 2.45763 13.2576 2.45861 14.7553 2.45861C14.8423 2.45861 14.9299 2.45861 15.0252 2.45861V1.49692H0.994835V2.45861C1.10342 2.45861 1.19292 2.45861 1.28194 2.45861C2.76294 2.45861 4.24394 2.45812 5.72495 2.45861C6.05607 2.45861 6.28204 2.65329 6.28839 2.93603C6.29475 3.22512 6.06047 3.43155 5.7181 3.43204C4.87978 3.4335 4.04195 3.43204 3.20362 3.43204C2.60252 3.43204 2.00092 3.43204 1.38269 3.43204H1.38367ZM19.0163 15.121C19.1298 15.0134 19.1953 14.9542 19.2579 14.8916C19.6786 14.4719 20.0923 14.0458 20.5203 13.634C20.8226 13.3429 21.2652 13.4686 21.3611 13.8604C21.4144 14.0776 21.3058 14.2342 21.161 14.3785C20.4929 15.0452 19.8224 15.7095 19.1626 16.3845C19.0828 16.4662 19.0271 16.6051 19.0227 16.7201C19.006 17.1427 19.0227 17.5663 19.0129 17.989C19.0095 18.1352 19.0598 18.2091 19.1939 18.2599C19.839 18.5065 20.4998 18.5936 21.1796 18.4541C22.756 18.1308 23.8579 16.9123 24.0052 15.2653C24.1314 13.8511 23.3136 12.3881 21.8394 11.7776C21.4159 11.602 21.3278 11.332 21.5538 10.9255C21.9407 10.2289 22.0942 9.49126 21.9837 8.6954C21.7915 7.30765 20.7766 6.15861 19.4012 5.79419C18.0547 5.4371 16.5889 5.93751 15.7506 7.05329C15.6753 7.15357 15.6283 7.30227 15.6283 7.42847C15.6219 11.0003 15.6229 14.5722 15.6229 18.1435V18.3945C16.4334 18.5901 17.1519 18.5412 17.8337 18.2683C17.975 18.2115 18.0283 18.1377 18.0273 17.9816C18.021 16.7773 18.0273 15.5735 18.0176 14.3692C18.0166 14.2562 17.9535 14.1197 17.8752 14.0351C17.5935 13.7308 17.2917 13.4451 17.0007 13.1497C16.7508 12.8958 16.7283 12.6082 16.9357 12.3979C17.1426 12.188 17.4414 12.2066 17.6884 12.4517C17.7843 12.5466 17.8679 12.6537 17.9574 12.7549C18.0166 12.6415 18.0239 12.5642 18.0239 12.4869C18.0249 11.8769 18.0239 11.2664 18.0244 10.6564C18.0244 10.2299 18.2103 9.98091 18.5248 9.98336C18.8422 9.9858 19.0153 10.2235 19.0158 10.6628C19.0168 12.0378 19.0158 13.4129 19.0158 14.7879C19.0158 14.8754 19.0158 14.963 19.0158 15.1205L19.0163 15.121ZM16.4006 24.5246C17.4497 24.5246 18.4984 24.5207 19.5475 24.5285C19.7133 24.53 19.7945 24.486 19.8365 24.3202C19.9383 23.9186 19.8424 23.5742 19.5455 23.2988C19.2301 23.0063 18.8554 22.9564 18.4578 23.1129C17.9965 23.2944 17.8107 23.2186 17.618 22.7793C17.3436 22.1546 16.8706 21.7829 16.182 21.7354C15.4434 21.6841 14.8907 22.0015 14.5454 22.6531C14.4183 22.8928 14.2603 23.041 13.9776 23.0258C13.9218 23.0229 13.8646 23.0361 13.8083 23.0444C13.2019 23.1374 12.8306 23.7092 12.9779 24.3016C13.0214 24.4762 13.1001 24.53 13.2791 24.5285C14.32 24.5197 15.3608 24.5241 16.4016 24.5241L16.4006 24.5246ZM15.6366 19.4202V20.7654C16.5586 20.6422 17.3358 20.9273 18.0058 21.5721V19.252C17.2238 19.523 16.4456 19.5557 15.6366 19.4202ZM11.5414 20.1378V21.8753H12.681V20.1378H11.5414Z" fill="#231F20"/>
<path d="M9.56933 6.95984C9.56933 7.39862 9.57178 7.83739 9.56836 8.27568C9.56591 8.6132 9.3781 8.79957 9.03768 8.80104C8.34707 8.80397 7.65645 8.80397 6.96584 8.80104C6.6401 8.79957 6.44886 8.61125 6.44788 8.2884C6.44446 7.3947 6.44446 6.50101 6.44788 5.6078C6.44886 5.28447 6.63961 5.09663 6.96535 5.09516C7.65596 5.09174 8.34658 5.09223 9.03719 5.09516C9.37858 5.09663 9.56591 5.28153 9.56836 5.61954C9.57178 6.06614 9.56933 6.51324 9.56933 6.95984ZM7.43293 7.81147H8.57646V6.08082H7.43293V7.81147Z" fill="#231F20"/>
<path d="M2.34491 16.3086C2.34491 15.8698 2.34247 15.431 2.34589 14.9927C2.34834 14.6547 2.53518 14.4698 2.87706 14.4688C3.56767 14.4664 4.25829 14.4659 4.9489 14.4688C5.27415 14.4703 5.4649 14.6586 5.46637 14.9819C5.46979 15.8756 5.46979 16.7693 5.46637 17.6625C5.4649 17.9849 5.27317 18.1727 4.94743 18.1747C4.2485 18.1781 3.55006 18.1786 2.85114 18.1747C2.54153 18.1727 2.34981 17.9815 2.34638 17.6738C2.34149 17.2189 2.34491 16.764 2.34491 16.309V16.3086ZM4.48865 15.4574H3.33682V17.1822H4.48865V15.4574Z" fill="#231F20"/>
<path d="M5.46826 6.95984C5.46826 7.39862 5.47071 7.83739 5.46728 8.27568C5.46484 8.6132 5.27702 8.80006 4.93661 8.80104C4.24599 8.80397 3.55538 8.80397 2.86477 8.80104C2.53902 8.79957 2.34779 8.61125 2.34632 8.2884C2.34289 7.3947 2.34289 6.50101 2.34632 5.6078C2.3473 5.28447 2.53805 5.09663 2.86379 5.09516C3.5544 5.09174 4.24501 5.09223 4.93563 5.09516C5.27702 5.09663 5.46435 5.28153 5.46679 5.61954C5.47022 6.06614 5.46777 6.51324 5.46777 6.95984H5.46826ZM4.47636 7.81734V6.08816H3.33382V7.81734H4.47636Z" fill="#231F20"/>
<path d="M6.44633 21.0006C6.44633 20.5619 6.44388 20.1231 6.44682 19.6848C6.44926 19.3443 6.63415 19.157 6.97309 19.1555C7.66371 19.1526 8.35432 19.1526 9.04493 19.1555C9.38241 19.157 9.56729 19.3458 9.56778 19.6877C9.57023 20.5653 9.56974 21.4423 9.56778 22.3199C9.56681 22.6765 9.38339 22.8604 9.02879 22.8619C8.34649 22.8643 7.66371 22.8643 6.98141 22.8619C6.62974 22.8604 6.4478 22.6741 6.44633 22.3165C6.44437 21.8777 6.44584 21.4389 6.44584 21.0006H6.44633ZM8.58077 21.8767V20.1446H7.43872V21.8767H8.58077Z" fill="#231F20"/>
<path d="M2.3446 21.0021C2.3446 20.5633 2.34264 20.1245 2.34509 19.6863C2.34753 19.3448 2.53143 19.157 2.86989 19.1555C3.56051 19.1526 4.25112 19.1526 4.94173 19.1555C5.27921 19.157 5.46507 19.3453 5.46605 19.6868C5.4685 20.5721 5.46898 21.4575 5.46605 22.3434C5.46507 22.6687 5.27579 22.8599 4.95347 22.8619C4.25454 22.8658 3.5561 22.8658 2.85718 22.8619C2.53486 22.8599 2.34802 22.6687 2.34557 22.3429C2.34215 21.8963 2.3446 21.4492 2.3446 21.0026V21.0021ZM4.48198 20.1422H3.33454V21.8709H4.48198V20.1422Z" fill="#231F20"/>
<path d="M10.5477 16.309C10.5477 15.8703 10.5453 15.4315 10.5487 14.9932C10.5511 14.6547 10.738 14.4698 11.0794 14.4688C11.77 14.4664 12.4606 14.4659 13.1512 14.4688C13.477 14.4703 13.6682 14.6586 13.6692 14.9815C13.6726 15.8752 13.6726 16.7689 13.6692 17.6621C13.6677 17.9849 13.476 18.1732 13.1507 18.1747C12.4601 18.1781 11.7695 18.1776 11.0789 18.1747C10.7385 18.1732 10.5511 17.9869 10.5487 17.6493C10.5453 17.2027 10.5477 16.7556 10.5477 16.309ZM12.6836 15.4579H11.5401V17.1895H12.6836V15.4579Z" fill="#231F20"/>
<path d="M5.46704 11.6407C5.46704 12.0795 5.46948 12.5182 5.46655 12.9565C5.4641 13.2975 5.27922 13.4858 4.94125 13.4873C4.25064 13.4902 3.56003 13.4902 2.86941 13.4873C2.53144 13.4858 2.34607 13.2975 2.34558 12.9555C2.34314 12.0702 2.34314 11.1848 2.34558 10.2989C2.34656 9.97313 2.53438 9.78285 2.85816 9.78089C3.55709 9.77746 4.25553 9.77746 4.95446 9.78089C5.27727 9.78236 5.46361 9.97362 5.46655 10.2994C5.47046 10.746 5.46753 11.1931 5.46753 11.6397L5.46704 11.6407ZM4.4722 12.5089V10.7714H3.33748V12.5089H4.4722Z" fill="#231F20"/>
<path d="M10.5477 6.93715C10.5477 6.49838 10.5453 6.0596 10.5487 5.62131C10.5511 5.28232 10.7375 5.09644 11.0774 5.09497C11.768 5.09204 12.4586 5.09204 13.1493 5.09497C13.4755 5.09644 13.6677 5.28379 13.6692 5.60566C13.6726 6.49935 13.6726 7.39305 13.6692 8.28626C13.6682 8.61008 13.4774 8.7989 13.1527 8.80036C12.4621 8.80379 11.7715 8.8033 11.0808 8.80036C10.7297 8.7989 10.5502 8.61204 10.5482 8.2525C10.5463 7.81373 10.5482 7.37495 10.5482 6.93666L10.5477 6.93715ZM11.5391 6.07916V7.80835H12.6827V6.07916H11.5391Z" fill="#231F20"/>
<path d="M13.6702 11.6407C13.6702 12.0795 13.6726 12.5182 13.6697 12.9565C13.6672 13.2975 13.4823 13.4863 13.1449 13.4877C12.4543 13.4907 11.7636 13.4907 11.073 13.4877C10.7351 13.4863 10.5497 13.2979 10.5487 12.9565C10.5463 12.0711 10.5463 11.1858 10.5487 10.2999C10.5497 9.97362 10.7375 9.78333 11.0608 9.78186C11.7597 9.77844 12.4582 9.77844 13.1571 9.78186C13.4799 9.78333 13.6667 9.97411 13.6697 10.3004C13.6736 10.747 13.6707 11.1941 13.6707 11.6407H13.6702ZM11.5274 12.4938H12.6797V10.7734H11.5274V12.4938Z" fill="#231F20"/>
<path d="M6.44676 16.3265C6.44676 15.8877 6.4448 15.4489 6.44725 15.0106C6.4492 14.6535 6.63017 14.4701 6.98526 14.4686C7.66756 14.4662 8.35034 14.4662 9.03264 14.4686C9.38529 14.4701 9.56772 14.6555 9.56821 15.0131C9.57017 15.8906 9.57066 16.7677 9.56821 17.6452C9.56723 17.9852 9.37991 18.1735 9.04194 18.175C8.35132 18.1779 7.66071 18.1779 6.9701 18.175C6.63213 18.1735 6.4492 17.9852 6.44676 17.6423C6.44382 17.2035 6.44627 16.7647 6.44627 16.3265H6.44676ZM8.58365 15.4592H7.44012V17.1893H8.58365V15.4592Z" fill="#231F20"/>
<path d="M9.56933 11.6469C9.56933 12.0856 9.57178 12.5244 9.56836 12.9627C9.56591 13.3002 9.37809 13.4861 9.03719 13.4876C8.34658 13.49 7.65596 13.4905 6.96535 13.4876C6.63961 13.4861 6.44886 13.2978 6.44788 12.9744C6.44446 12.0807 6.44446 11.187 6.44788 10.2938C6.44886 9.97099 6.6401 9.78315 6.96633 9.78169C7.65694 9.77826 8.34756 9.77875 9.03817 9.78169C9.37907 9.78315 9.56591 9.96854 9.56884 10.307C9.57227 10.7536 9.56982 11.2007 9.56982 11.6473L9.56933 11.6469ZM7.43489 10.7664V12.4985H8.57743V10.7664H7.43489Z" fill="#231F20"/>
</svg>
