<svg width="25" height="30" viewBox="0 0 25 30" fill="none" xmlns="http://www.w3.org/2000/svg">
<path d="M6.51552 0.283203C6.82389 0.472941 6.93079 0.754091 6.90387 1.10514C6.88926 1.29488 6.91003 1.48692 6.89695 1.67666C6.87157 2.04001 6.61626 2.2912 6.29865 2.28121C5.98797 2.27123 5.74804 2.02695 5.73035 1.67666C5.71651 1.41011 5.72496 1.14278 5.72804 0.87623C5.73111 0.599689 5.90338 0.429155 6.11255 0.283971H6.51552V0.283203Z" fill="#231F20"/>
<path d="M14.8757 9.69064C14.8757 11.5972 14.8757 13.5046 14.8757 15.4112C14.8757 15.9674 14.8019 16.0741 14.2951 16.2593C11.6266 17.2364 9.93245 19.8589 10.1424 22.6865C10.3623 25.6463 12.704 28.1359 15.6232 28.5139C19.1392 28.9694 22.3514 26.5036 22.799 23.0053C23.1604 20.1777 21.5362 17.42 18.8662 16.3269C18.4086 16.1394 18.3225 16.015 18.3217 15.5341C18.3202 14.5378 18.3156 13.5407 18.3217 12.5444C18.3248 12.0305 18.7993 11.7394 19.2076 11.989C19.4314 12.1265 19.4814 12.3401 19.4814 12.5828C19.4814 13.407 19.4922 14.2313 19.4822 15.0548C19.4799 15.256 19.5475 15.3551 19.7267 15.4442C22.1061 16.6364 23.5218 18.553 23.934 21.1755C24.5539 25.1155 21.74 28.9563 17.788 29.61C13.7514 30.2776 10.0247 27.7626 9.12882 23.7673C8.37441 20.4035 10.1639 16.8308 13.3346 15.4127C13.6384 15.2768 13.7245 15.1216 13.723 14.8005C13.7107 11.1402 13.7122 7.47985 13.7168 3.82029C13.7183 2.40532 14.6219 1.26997 15.9847 0.946568C17.655 0.550193 19.3868 1.80615 19.4614 3.5207C19.5152 4.7636 19.4814 6.01111 19.476 7.25631C19.4745 7.62427 19.2138 7.87469 18.8869 7.8624C18.567 7.85088 18.3232 7.58586 18.3225 7.22251C18.3186 6.06335 18.3263 4.90341 18.3209 3.74424C18.3179 3.02063 17.8795 2.40071 17.2128 2.15029C16.5514 1.9014 15.7939 2.0873 15.321 2.6135C14.9888 2.98375 14.8757 3.42699 14.8765 3.91247C14.8788 5.83827 14.8773 7.76407 14.8773 9.69064H14.8757Z" fill="#231F20"/>
<path d="M17.0632 10.9708C17.0632 12.9542 17.067 14.9377 17.0586 16.9211C17.0578 17.1661 17.0924 17.2775 17.3808 17.3259C19.7471 17.7261 21.4866 19.8432 21.4728 22.2706C21.4597 24.635 19.6848 26.7314 17.3639 27.1247C14.5385 27.6032 11.95 25.7066 11.5355 22.8552C11.161 20.2795 13.0604 17.7046 15.6367 17.3167C15.8735 17.2813 15.9027 17.1869 15.9027 16.9864C15.8981 13.0103 15.8989 9.03427 15.902 5.05746C15.902 4.91611 15.9104 4.76786 15.9535 4.63496C16.035 4.38684 16.2934 4.23398 16.538 4.26086C16.8079 4.29006 17.0148 4.48901 17.0494 4.76248C17.0632 4.87617 17.0624 4.99216 17.0624 5.10662C17.0624 7.06084 17.0624 9.01583 17.0624 10.9701L17.0632 10.9708ZM12.6659 22.2184C12.6659 24.3208 14.3793 26.04 16.4787 26.0446C18.5728 26.0485 20.3 24.3324 20.3139 22.2322C20.3285 20.1328 18.5889 18.3936 16.4772 18.3952C14.3778 18.3967 12.6659 20.1143 12.6659 22.2191V22.2184Z" fill="#231F20"/>
<path d="M2.75468 6.5885C2.75853 4.60432 4.34963 3.03956 6.35755 3.04494C8.28779 3.05031 9.86737 4.65118 9.86352 6.59849C9.86044 8.56193 8.24242 10.172 6.28987 10.1551C4.33579 10.1374 2.75083 8.53888 2.75391 6.58927L2.75468 6.5885ZM6.30756 8.97981C7.63951 8.98058 8.70383 7.92128 8.70383 6.59388C8.70383 5.27416 7.62797 4.19412 6.31141 4.19258C4.99638 4.19181 3.91744 5.27109 3.9159 6.59004C3.91437 7.9182 4.97562 8.97828 6.30756 8.97981Z" fill="#231F20"/>
<path d="M22.8609 13.3508C23.3492 13.3508 23.8375 13.3477 24.3251 13.3515C24.7442 13.3554 24.9972 13.5766 24.9995 13.9307C25.0026 14.2841 24.755 14.5184 24.3359 14.5222C23.36 14.5307 22.3833 14.5307 21.4067 14.5222C20.9952 14.5184 20.7322 14.2703 20.7384 13.9277C20.7438 13.5866 21.0145 13.3554 21.4251 13.3523C21.9035 13.3477 22.3826 13.3515 22.8609 13.3515V13.3508Z" fill="#231F20"/>
<path d="M22.8641 8.21069C22.3858 8.21069 21.9067 8.21299 21.4283 8.21069C21.0208 8.20838 20.747 7.9787 20.7385 7.63917C20.7293 7.2958 20.99 7.05152 21.4037 7.04845C22.3796 7.04076 23.3563 7.04153 24.3322 7.04845C24.759 7.05152 25.0004 7.27352 24.9989 7.63072C24.9974 7.9979 24.7444 8.20992 24.2991 8.21145C23.8208 8.21376 23.3417 8.21145 22.8633 8.21145L22.8641 8.21069Z" fill="#231F20"/>
<path d="M22.0914 11.366C21.8522 11.366 21.613 11.3722 21.3747 11.3645C21.0048 11.3522 20.7494 11.1202 20.7387 10.7976C20.7271 10.478 20.9732 10.2123 21.34 10.2C21.8461 10.1823 22.3536 10.1815 22.8596 10.2007C23.2357 10.2153 23.4556 10.4665 23.4441 10.8061C23.4326 11.1271 23.1988 11.3491 22.8373 11.3637C22.5889 11.3737 22.3405 11.366 22.0914 11.366Z" fill="#231F20"/>
<path d="M22.1111 3.90178C22.3787 3.90178 22.6471 3.89026 22.9139 3.90485C23.2331 3.92252 23.4422 4.15528 23.4445 4.46562C23.4468 4.77365 23.2377 5.03253 22.9262 5.04328C22.3725 5.06172 21.8173 5.06172 21.2636 5.04328C20.9644 5.03329 20.7337 4.75061 20.7383 4.46254C20.743 4.16449 20.9675 3.92175 21.2805 3.90485C21.5566 3.89026 21.835 3.90178 22.1118 3.90178H22.1111Z" fill="#231F20"/>
<path d="M6.91127 11.9089C6.89819 12.091 6.90204 12.2746 6.86743 12.4513C6.8136 12.7263 6.58213 12.9052 6.31759 12.9091C6.05535 12.9129 5.79003 12.737 5.76235 12.4643C5.72544 12.0971 5.72467 11.7207 5.76235 11.3535C5.7908 11.0739 6.0392 10.9157 6.31836 10.918C6.5952 10.9211 6.81206 11.0862 6.86743 11.3674C6.90204 11.5441 6.89819 11.7276 6.91127 11.9082V11.9089Z" fill="#231F20"/>
<path d="M3.54162 3.21301C3.53316 3.69158 3.05713 3.99424 2.70646 3.74843C2.39885 3.53257 2.13354 3.2422 1.89668 2.94723C1.72057 2.72907 1.7944 2.46712 1.98666 2.27047C2.17276 2.0792 2.43884 2.01467 2.64109 2.16984C2.94793 2.40567 3.20863 2.70449 3.47472 2.98948C3.53162 3.05093 3.53008 3.16692 3.54316 3.21378L3.54162 3.21301Z" fill="#231F20"/>
<path d="M10.8221 2.68821C10.8098 2.7343 10.8129 2.79422 10.7844 2.82418C10.4637 3.15219 10.1638 3.50862 9.80468 3.78823C9.60857 3.9411 9.35711 3.79438 9.20484 3.60003C9.04104 3.39185 9.01797 3.13913 9.18484 2.93633C9.40248 2.67208 9.64011 2.4086 9.91849 2.21656C10.0577 2.12053 10.3361 2.11746 10.4983 2.19044C10.6591 2.26341 10.7529 2.48465 10.8767 2.64058C10.8582 2.65672 10.8406 2.67285 10.8221 2.68821Z" fill="#231F20"/>
<path d="M1.00609 6.02227C1.14913 6.02227 1.29371 6.01382 1.43598 6.02381C1.75897 6.04762 1.9766 6.26962 1.9866 6.57305C1.9966 6.87571 1.79204 7.13996 1.47905 7.16531C1.15606 7.19143 0.827682 7.19143 0.504693 7.16531C0.191701 7.13996 -0.00747521 6.88108 0.000215013 6.57305C0.00790523 6.26655 0.220925 6.04762 0.546221 6.02381C0.698487 6.01305 0.852292 6.02227 1.00533 6.0215L1.00609 6.02227Z" fill="#231F20"/>
<path d="M11.6224 6.02302C11.7754 6.02302 11.9292 6.0138 12.0815 6.02533C12.4053 6.04991 12.6167 6.27191 12.6237 6.57841C12.6298 6.88491 12.4283 7.14148 12.1146 7.16683C11.8008 7.19218 11.4824 7.19064 11.1687 7.1699C10.8449 7.14839 10.6242 6.87876 10.6373 6.56919C10.6503 6.26576 10.8687 6.0476 11.1925 6.02456C11.3355 6.01457 11.4793 6.02302 11.6224 6.02302C11.6224 6.02302 11.6224 6.02302 11.6224 6.02379V6.02302Z" fill="#231F20"/>
<path d="M3.53554 9.80288C3.544 10.2845 2.75652 11.1172 2.3997 11.075C2.21744 11.0535 2.01365 10.9183 1.89137 10.7738C1.7368 10.5926 1.77448 10.346 1.93367 10.1662C2.149 9.92348 2.36586 9.66845 2.63041 9.48946C2.77498 9.39114 3.04568 9.37193 3.20948 9.43876C3.37097 9.50483 3.47018 9.72375 3.53554 9.80288Z" fill="#231F20"/>
<path d="M9.6039 9.30371C10.0153 9.36209 10.8497 10.1487 10.8036 10.5036C10.7797 10.6856 10.6452 10.9123 10.4921 11.0014C10.3529 11.0828 10.0699 11.0774 9.93996 10.9852C9.65542 10.784 9.39241 10.5274 9.19247 10.2432C9.09634 10.1057 9.10403 9.82837 9.17555 9.66168C9.24092 9.50958 9.45548 9.42124 9.6039 9.30448V9.30371Z" fill="#231F20"/>
<path d="M19.4724 9.86722C19.4747 10.1899 19.2148 10.4541 18.898 10.4526C18.5904 10.451 18.3135 10.1676 18.3204 9.86107C18.3274 9.54843 18.5727 9.30722 18.8895 9.30185C19.2256 9.29647 19.4701 9.53383 19.4724 9.86645V9.86722Z" fill="#231F20"/>
</svg>
