<svg width="25" height="26" viewBox="0 0 25 26" fill="none" xmlns="http://www.w3.org/2000/svg">
<path d="M0 12.7007C0.135744 12.3307 0.434642 12.127 0.742677 11.9071C1.33003 11.4875 1.92456 11.064 2.4447 10.5673C3.35183 9.70005 3.7545 8.5913 3.67488 7.34484C3.62659 6.59436 3.48497 5.84844 3.35118 5.10645C3.22066 4.38598 3.89285 3.70467 4.61008 3.8378C5.30381 3.96636 6.0008 4.10014 6.70236 4.15757C8.26277 4.28417 9.53211 3.68248 10.5136 2.48171C10.8785 2.03599 11.2465 1.57722 11.5141 1.07146C11.9246 0.295523 13.0686 0.326846 13.4994 1.06167C13.8857 1.72209 14.3758 2.33749 14.8999 2.89807C15.7822 3.84237 16.921 4.25155 18.2047 4.16084C18.9389 4.10928 19.6685 3.97093 20.3949 3.83911C21.1154 3.70793 21.7948 4.38011 21.6649 5.09731C21.5318 5.83148 21.4319 6.57152 21.3314 7.31091C21.2798 7.68941 21.1069 7.88389 20.7897 7.86431C20.4895 7.84538 20.297 7.60783 20.342 7.23259C20.4269 6.53171 20.5352 5.83343 20.6501 5.13712C20.7042 4.80756 20.6938 4.79907 20.3538 4.85455C19.649 4.97005 18.9441 5.12537 18.2341 5.15669C16.303 5.24283 14.7687 4.43754 13.5881 2.93266C13.3225 2.59396 13.0771 2.2383 12.8376 1.88067C12.5022 1.37948 12.5263 1.38862 12.1804 1.86893C11.7725 2.43538 11.3712 3.01684 10.8922 3.51999C9.68156 4.79059 8.16618 5.30549 6.42631 5.1319C5.82982 5.07251 5.23855 4.95569 4.64728 4.85128C4.32815 4.79516 4.31118 4.81343 4.36208 5.12733C4.47825 5.83996 4.63879 6.55324 4.67012 7.27044C4.75561 9.20147 3.95028 10.737 2.44144 11.9137C2.01854 12.2432 1.56628 12.5349 1.12576 12.841C0.924757 12.9806 0.926062 13.0048 1.1225 13.1457C1.67004 13.5393 2.245 13.9021 2.75404 14.3413C4.19697 15.5864 4.83262 17.1781 4.64401 19.0778C4.58397 19.6821 4.45998 20.2806 4.35621 20.8803C4.30726 21.1635 4.33598 21.1896 4.62117 21.1439C5.33383 21.0291 6.04583 20.864 6.76371 20.8307C8.8201 20.7341 10.3975 21.6451 11.5963 23.2714C11.8613 23.631 12.1041 24.0075 12.356 24.3775C12.4924 24.5772 12.5185 24.5733 12.6614 24.3756C13.066 23.8163 13.4393 23.2283 13.8916 22.7095C15.1315 21.2855 16.7161 20.6702 18.595 20.8561C19.1915 20.9155 19.7827 21.0343 20.374 21.1387C20.6866 21.1935 20.7023 21.1727 20.6501 20.8529C20.5339 20.1403 20.374 19.427 20.3433 18.7098C20.2598 16.7787 21.0671 15.2445 22.5772 14.0698C22.9812 13.7559 23.4106 13.4747 23.8342 13.1856C24.1115 12.9963 24.107 12.9963 23.8264 12.796C23.2775 12.4037 22.7332 12.0057 22.1994 11.5932C21.9925 11.4333 21.9664 11.1527 22.093 10.9556C22.217 10.7618 22.4526 10.6763 22.6686 10.7559C22.7358 10.7807 22.7965 10.8258 22.8553 10.8682C23.3878 11.2552 23.8903 11.6937 24.4581 12.0181C25.1786 12.4305 25.1844 13.5334 24.4529 13.9785C23.7846 14.385 23.1522 14.8758 22.5805 15.4116C21.6512 16.2834 21.2524 17.4118 21.3392 18.6765C21.3901 19.4185 21.5318 20.1566 21.6649 20.8901C21.7948 21.6066 21.1147 22.2827 20.3949 22.1483C19.7097 22.0204 19.0205 21.8899 18.3268 21.8318C16.7357 21.6986 15.4552 22.3238 14.4613 23.5494C14.1494 23.9338 13.8589 24.339 13.5927 24.7567C13.3878 25.0784 13.1704 25.3649 12.7998 25.5H12.2137C11.8352 25.361 11.6335 25.0497 11.4071 24.7384C10.9692 24.1348 10.528 23.5246 10.0111 22.9914C9.28999 22.2475 8.36784 21.884 7.32627 21.8239C6.40542 21.7704 5.51591 21.9525 4.62574 22.1431C3.89481 22.2997 3.22131 21.6125 3.35379 20.877C3.48627 20.1435 3.62332 19.4054 3.67292 18.6641C3.75907 17.3804 3.33487 16.2514 2.39314 15.3672C1.88671 14.8914 1.31306 14.4829 0.742677 14.0816C0.432684 13.8636 0.136397 13.6574 0.000652616 13.288V12.702L0 12.7007Z" fill="#231F20"/>
<path d="M12.4927 20.2225C8.49932 20.2212 5.27148 16.9844 5.27344 12.9833C5.2754 8.97966 8.51498 5.76106 12.5377 5.76563C16.5108 5.76955 19.7348 9.01359 19.7315 13.0049C19.7289 17 16.4952 20.2238 12.492 20.2232L12.4927 20.2225ZM12.5123 6.73995C9.07949 6.73669 6.25628 9.54284 6.24845 12.9664C6.24062 16.4153 9.04556 19.2423 12.4809 19.2482C15.9287 19.2541 18.7526 16.4473 18.7565 13.0094C18.7604 9.56242 15.9528 6.74321 12.5123 6.73995Z" fill="#231F20"/>
<path d="M20.7071 9.40168C20.7044 9.12902 20.925 8.90072 21.1919 8.90137C21.453 8.90137 21.6886 9.14076 21.6853 9.40168C21.6821 9.66064 21.468 9.87524 21.205 9.88241C20.9283 9.88959 20.7097 9.6789 20.7071 9.40168Z" fill="#231F20"/>
<path d="M7.90629 12.7641C8.02181 11.2044 8.71097 9.97881 10.0247 9.11739C10.3262 8.91965 10.6081 8.95619 10.7772 9.20157C10.9455 9.44694 10.8646 9.75432 10.5651 9.94879C9.7036 10.5087 9.16649 11.2899 8.96157 12.2955C8.91981 12.5017 8.90153 12.7138 8.89109 12.924C8.87282 13.2822 8.69661 13.4865 8.38858 13.4839C8.08185 13.4813 7.90303 13.2692 7.90629 12.9109C7.90629 12.862 7.90629 12.8137 7.90629 12.7647V12.7641Z" fill="#231F20"/>
<path d="M12.9966 8.87175C13.0012 9.15224 12.7956 9.36945 12.5195 9.37532C12.2422 9.3812 12.0249 9.17181 12.0196 8.89459C12.0144 8.60954 12.2141 8.4008 12.496 8.39558C12.7799 8.39102 12.992 8.59257 12.9966 8.87175Z" fill="#231F20"/>
</svg>
