<svg width="25" height="25" viewBox="0 0 25 25" fill="none" xmlns="http://www.w3.org/2000/svg">
<path d="M0 0.76175C0.212984 0.197191 0.625472 0 1.21859 0C7.27381 0.010805 13.3263 0.00540249 19.3815 0.00810373C19.9774 0.00810373 20.344 0.253917 20.4761 0.745543C20.4977 0.829281 20.5058 0.921124 20.5058 1.01026C20.5058 7.19071 20.5058 13.3712 20.5058 19.5516C20.5058 20.1324 20.0933 20.5592 19.5136 20.5673C18.6347 20.5754 17.7558 20.5727 16.877 20.5673C16.5831 20.5673 16.3971 20.416 16.3431 20.1621C16.2973 19.946 16.4159 19.6975 16.6235 19.6245C16.7341 19.584 16.8635 19.5759 16.9821 19.5759C17.7316 19.5705 18.4784 19.5759 19.2279 19.5759C19.3168 19.5759 19.4058 19.5759 19.5109 19.5759V1.01297H0.994824V19.5705H1.31295C4.9175 19.5705 8.52205 19.5705 12.1293 19.5705C12.2344 19.5705 12.3423 19.5705 12.4447 19.5867C12.7009 19.6272 12.8788 19.8298 12.8788 20.0702C12.8788 20.2998 12.7116 20.5051 12.4717 20.5538C12.3773 20.5727 12.2776 20.57 12.1805 20.57C8.5598 20.57 4.93907 20.5619 1.31565 20.5781C0.709048 20.5781 0.253424 20.4214 0 19.8433V0.76175Z" fill="#B0B1B4"/>
<path d="M25.0013 18.7169C24.6158 19.3058 24.2276 19.8974 23.842 20.4862C23.5266 20.9725 23.16 20.9697 22.8445 20.4808C22.4994 19.9487 22.1517 19.4192 21.82 18.8763C21.7446 18.752 21.6933 18.5873 21.7041 18.4468C21.7203 18.2361 21.8767 18.0686 22.0869 18.0632C22.246 18.0605 22.4239 18.1415 22.5587 18.2361C22.6693 18.3144 22.7286 18.4684 22.8391 18.6278V2.21502C22.7421 2.36089 22.672 2.47164 22.5938 2.57969C22.4213 2.8147 22.157 2.87142 21.9279 2.73096C21.6933 2.58779 21.6125 2.29876 21.7661 2.05025C22.149 1.43706 22.5372 0.823882 22.9416 0.224206C23.1573 -0.0972414 23.5617 -0.0648265 23.7881 0.278231C24.171 0.8617 24.5457 1.45327 24.9258 2.04214C24.9474 2.07456 24.9744 2.10157 24.9986 2.13128V2.47434C24.7776 2.77148 24.5915 2.89033 24.3839 2.77148C24.1817 2.65803 24.0254 2.45813 23.8582 2.30686V18.6224C23.931 18.517 23.9715 18.4603 24.0119 18.4009C24.3219 17.9282 24.6643 17.92 24.9986 18.3766V18.7196L25.0013 18.7169Z" fill="#B0B1B4"/>
<path d="M0 23.1683C0.129408 23.0495 0.248032 22.9144 0.393616 22.8172C0.927424 22.4606 1.46662 22.1121 2.01122 21.7691C2.26464 21.6097 2.54502 21.6664 2.70139 21.8933C2.85776 22.1202 2.80384 22.3985 2.56389 22.5821C2.51806 22.6173 2.46953 22.6443 2.42101 22.6767C2.36978 22.7118 2.31856 22.7496 2.2269 22.8145H18.5539C18.4245 22.7253 18.322 22.6551 18.225 22.5821C17.9985 22.4147 17.9365 22.1364 18.074 21.9149C18.2196 21.6799 18.5053 21.6016 18.7561 21.7583C19.3627 22.1391 19.9639 22.5254 20.5597 22.9225C20.8832 23.1386 20.8805 23.5411 20.557 23.7572C19.9693 24.1516 19.3734 24.5324 18.7749 24.9106C18.5242 25.07 18.2357 25.0052 18.0848 24.781C17.9311 24.5514 17.9985 24.2569 18.2492 24.0786C18.3463 24.0084 18.4487 23.9463 18.5997 23.8463H2.20533C2.33743 23.9355 2.43179 24.0003 2.52345 24.0651C2.79575 24.2569 2.86585 24.5432 2.70139 24.7837C2.54502 25.0133 2.25655 25.0646 1.98965 24.8944C1.4127 24.527 0.838456 24.157 0.2696 23.7815C0.164456 23.7113 0.088968 23.6032 0 23.5114C0 23.3979 0 23.2818 0 23.1683Z" fill="#B0B1B4"/>
<path d="M15.7461 11.3045V11.6259C15.7461 13.2494 15.7461 14.8701 15.7461 16.4936C15.7461 17.3391 15.3498 17.7307 14.5032 17.7307C11.6724 17.7307 8.83892 17.7307 6.00813 17.7307C5.15349 17.7307 4.76257 17.3364 4.76257 16.472C4.76257 14.8647 4.76257 13.2602 4.76257 11.6529C4.76257 11.5557 4.76257 11.4585 4.76257 11.3207C4.68169 11.3747 4.63047 11.4071 4.58464 11.4423C4.06431 11.8474 3.50085 11.7961 3.07218 11.3018C2.86459 11.0614 2.6597 10.8183 2.4575 10.5752C2.02074 10.0565 2.05849 9.46224 2.57342 9.02464C3.87559 7.91443 5.18315 6.81502 6.48801 5.71022C7.49632 4.85932 8.50192 4.00843 9.51023 3.15484C10.0036 2.73615 10.5077 2.73615 11.0038 3.15484C13.2738 5.07272 15.5412 6.99331 17.8139 8.90849C18.194 9.22993 18.4502 9.5865 18.3073 10.1105C18.2749 10.2267 18.2291 10.3482 18.1536 10.4401C17.8894 10.7696 17.6252 11.1046 17.334 11.4098C16.9808 11.7799 16.4416 11.8096 16.0211 11.5152C15.9429 11.4585 15.8674 11.399 15.7461 11.3072V11.3045ZM14.7539 16.7205C14.7539 16.6043 14.7539 16.5179 14.7539 16.4287C14.7539 14.5217 14.7513 12.6119 14.7593 10.7048C14.7593 10.513 14.6946 10.3942 14.5544 10.2726C13.1768 9.11648 11.8018 7.95225 10.4323 6.78801C10.3029 6.67726 10.222 6.66646 10.0872 6.78261C8.70412 7.96035 7.31838 9.12999 5.92994 10.2996C5.80862 10.4023 5.75201 10.5049 5.7547 10.6697C5.76009 12.6011 5.7574 14.5352 5.76009 16.4666C5.76009 16.5449 5.76818 16.6259 5.77088 16.7151H8.49653C8.50192 16.6205 8.50732 16.5422 8.50732 16.4612C8.50732 15.9155 8.50732 15.3699 8.50732 14.8215C8.51001 14.1867 8.91711 13.7788 9.54258 13.7761C10.0225 13.7761 10.5024 13.7761 10.9822 13.7761C11.5781 13.7788 11.9959 14.1867 12.004 14.7864C12.0121 15.3401 12.004 15.8939 12.004 16.4504C12.004 16.5368 12.004 16.6232 12.004 16.7205H14.7539ZM3.1288 9.84312C3.38761 10.1511 3.62756 10.4374 3.87559 10.7318C3.96995 10.6589 4.03465 10.613 4.09666 10.5589C6.01082 8.9409 7.92498 7.32286 9.83914 5.70481C10.1546 5.43739 10.3487 5.43469 10.656 5.69401C12.4462 7.2067 14.2363 8.7221 16.0265 10.2348C16.2206 10.3996 16.4201 10.5616 16.6304 10.7345C16.8892 10.4239 17.1264 10.1403 17.3772 9.84042C14.9858 7.81989 12.6214 5.82097 10.2516 3.81935C7.86567 5.83447 5.50667 7.83069 3.1261 9.84312H3.1288ZM10.9957 14.7648C10.5212 14.7648 10.0764 14.7594 9.63155 14.7729C9.58572 14.7729 9.50753 14.8998 9.50484 14.9701C9.49405 15.4158 9.49944 15.8642 9.49944 16.3099C9.49944 16.445 9.49944 16.5773 9.49944 16.7124H10.9957V14.7648Z" fill="#B0B1B4"/>
<path d="M15.0854 20.0619C15.0854 20.3347 14.8643 20.5643 14.5974 20.5643C14.3332 20.5643 14.1067 20.332 14.1094 20.0619C14.1094 19.7971 14.3197 19.5837 14.5866 19.5783C14.8616 19.5702 15.0827 19.7863 15.0854 20.0646V20.0619Z" fill="#B0B1B4"/>
<path d="M8.6875 10.4513C8.6875 9.57606 9.37228 8.88455 10.2431 8.88184C11.1274 8.87914 11.8203 9.57066 11.8176 10.4594C11.8149 11.3319 11.1247 12.018 10.2485 12.018C9.37768 12.018 8.6875 11.3265 8.6875 10.4513ZM10.8389 10.4702C10.8524 10.1595 10.5828 9.8705 10.2674 9.86239C9.96271 9.85429 9.68772 10.1082 9.66884 10.4161C9.64997 10.7268 9.91148 11.0185 10.2296 11.0374C10.5397 11.0536 10.8281 10.7862 10.8416 10.4702H10.8389Z" fill="#B0B1B4"/>
</svg>
