<svg width="25" height="26" viewBox="0 0 25 26" fill="none" xmlns="http://www.w3.org/2000/svg">
<path d="M0 1.26175C0.212984 0.697191 0.625472 0.5 1.21859 0.5C7.27381 0.510805 13.3263 0.505402 19.3815 0.508104C19.9774 0.508104 20.344 0.753917 20.4761 1.24554C20.4977 1.32928 20.5058 1.42112 20.5058 1.51026C20.5058 7.69071 20.5058 13.8712 20.5058 20.0516C20.5058 20.6324 20.0933 21.0592 19.5136 21.0673C18.6347 21.0754 17.7558 21.0727 16.877 21.0673C16.5831 21.0673 16.3971 20.916 16.3431 20.6621C16.2973 20.446 16.4159 20.1975 16.6235 20.1245C16.7341 20.084 16.8635 20.0759 16.9821 20.0759C17.7316 20.0705 18.4784 20.0759 19.2279 20.0759C19.3168 20.0759 19.4058 20.0759 19.5109 20.0759V1.51297H0.994824V20.0705H1.31295C4.9175 20.0705 8.52205 20.0705 12.1293 20.0705C12.2344 20.0705 12.3423 20.0705 12.4447 20.0867C12.7009 20.1272 12.8788 20.3298 12.8788 20.5702C12.8788 20.7998 12.7116 21.0051 12.4717 21.0538C12.3773 21.0727 12.2776 21.07 12.1805 21.07C8.5598 21.07 4.93907 21.0619 1.31565 21.0781C0.709048 21.0781 0.253424 20.9214 0 20.3433V1.26175Z" fill="#231F20"/>
<path d="M25.0013 19.2169C24.6158 19.8058 24.2276 20.3974 23.842 20.9862C23.5266 21.4725 23.16 21.4697 22.8445 20.9808C22.4994 20.4487 22.1517 19.9192 21.82 19.3763C21.7446 19.252 21.6933 19.0873 21.7041 18.9468C21.7203 18.7361 21.8767 18.5686 22.0869 18.5632C22.246 18.5605 22.4239 18.6415 22.5587 18.7361C22.6693 18.8144 22.7286 18.9684 22.8391 19.1278V2.71502C22.7421 2.86089 22.672 2.97164 22.5938 3.07969C22.4213 3.3147 22.157 3.37142 21.9279 3.23096C21.6933 3.08779 21.6125 2.79876 21.7661 2.55025C22.149 1.93706 22.5372 1.32388 22.9416 0.724206C23.1573 0.402759 23.5617 0.435173 23.7881 0.778231C24.171 1.3617 24.5457 1.95327 24.9258 2.54214C24.9474 2.57456 24.9744 2.60157 24.9986 2.63128V2.97434C24.7776 3.27148 24.5915 3.39033 24.3839 3.27148C24.1817 3.15803 24.0254 2.95813 23.8582 2.80686V19.1224C23.931 19.017 23.9715 18.9603 24.0119 18.9009C24.3219 18.4282 24.6643 18.42 24.9986 18.8766V19.2196L25.0013 19.2169Z" fill="#231F20"/>
<path d="M0 23.6683C0.129408 23.5495 0.248032 23.4144 0.393616 23.3172C0.927424 22.9606 1.46662 22.6121 2.01122 22.2691C2.26464 22.1097 2.54502 22.1664 2.70139 22.3933C2.85776 22.6202 2.80384 22.8985 2.56389 23.0821C2.51806 23.1173 2.46953 23.1443 2.42101 23.1767C2.36978 23.2118 2.31856 23.2496 2.2269 23.3145H18.5539C18.4245 23.2253 18.322 23.1551 18.225 23.0821C17.9985 22.9147 17.9365 22.6364 18.074 22.4149C18.2196 22.1799 18.5053 22.1016 18.7561 22.2583C19.3627 22.6391 19.9639 23.0254 20.5597 23.4225C20.8832 23.6386 20.8805 24.0411 20.557 24.2572C19.9693 24.6516 19.3734 25.0324 18.7749 25.4106C18.5242 25.57 18.2357 25.5052 18.0848 25.281C17.9311 25.0514 17.9985 24.7569 18.2492 24.5786C18.3463 24.5084 18.4487 24.4463 18.5997 24.3463H2.20533C2.33743 24.4355 2.43179 24.5003 2.52345 24.5651C2.79575 24.7569 2.86585 25.0432 2.70139 25.2837C2.54502 25.5133 2.25655 25.5646 1.98965 25.3944C1.4127 25.027 0.838456 24.657 0.2696 24.2815C0.164456 24.2113 0.088968 24.1032 0 24.0114C0 23.8979 0 23.7818 0 23.6683Z" fill="#231F20"/>
<path d="M15.7461 11.8045V12.1259C15.7461 13.7494 15.7461 15.3701 15.7461 16.9936C15.7461 17.8391 15.3498 18.2307 14.5032 18.2307C11.6724 18.2307 8.83892 18.2307 6.00813 18.2307C5.15349 18.2307 4.76257 17.8364 4.76257 16.972C4.76257 15.3647 4.76257 13.7602 4.76257 12.1529C4.76257 12.0557 4.76257 11.9585 4.76257 11.8207C4.68169 11.8747 4.63047 11.9071 4.58464 11.9423C4.06431 12.3474 3.50085 12.2961 3.07218 11.8018C2.86459 11.5614 2.6597 11.3183 2.4575 11.0752C2.02074 10.5565 2.05849 9.96224 2.57342 9.52464C3.87559 8.41443 5.18315 7.31502 6.48801 6.21022C7.49632 5.35932 8.50192 4.50843 9.51023 3.65484C10.0036 3.23615 10.5077 3.23615 11.0038 3.65484C13.2738 5.57272 15.5412 7.49331 17.8139 9.40849C18.194 9.72993 18.4502 10.0865 18.3073 10.6105C18.2749 10.7267 18.2291 10.8482 18.1536 10.9401C17.8894 11.2696 17.6252 11.6046 17.334 11.9098C16.9808 12.2799 16.4416 12.3096 16.0211 12.0152C15.9429 11.9585 15.8674 11.899 15.7461 11.8072V11.8045ZM14.7539 17.2205C14.7539 17.1043 14.7539 17.0179 14.7539 16.9287C14.7539 15.0217 14.7513 13.1119 14.7593 11.2048C14.7593 11.013 14.6946 10.8942 14.5544 10.7726C13.1768 9.61648 11.8018 8.45225 10.4323 7.28801C10.3029 7.17726 10.222 7.16646 10.0872 7.28261C8.70412 8.46035 7.31838 9.62999 5.92994 10.7996C5.80862 10.9023 5.75201 11.0049 5.7547 11.1697C5.76009 13.1011 5.7574 15.0352 5.76009 16.9666C5.76009 17.0449 5.76818 17.1259 5.77088 17.2151H8.49653C8.50192 17.1205 8.50732 17.0422 8.50732 16.9612C8.50732 16.4155 8.50732 15.8699 8.50732 15.3215C8.51001 14.6867 8.91711 14.2788 9.54258 14.2761C10.0225 14.2761 10.5024 14.2761 10.9822 14.2761C11.5781 14.2788 11.9959 14.6867 12.004 15.2864C12.0121 15.8401 12.004 16.3939 12.004 16.9504C12.004 17.0368 12.004 17.1232 12.004 17.2205H14.7539ZM3.1288 10.3431C3.38761 10.6511 3.62756 10.9374 3.87559 11.2318C3.96995 11.1589 4.03465 11.113 4.09666 11.0589C6.01082 9.4409 7.92498 7.82286 9.83914 6.20481C10.1546 5.93739 10.3487 5.93469 10.656 6.19401C12.4462 7.7067 14.2363 9.2221 16.0265 10.7348C16.2206 10.8996 16.4201 11.0616 16.6304 11.2345C16.8892 10.9239 17.1264 10.6403 17.3772 10.3404C14.9858 8.31989 12.6214 6.32097 10.2516 4.31935C7.86567 6.33447 5.50667 8.33069 3.1261 10.3431H3.1288ZM10.9957 15.2648C10.5212 15.2648 10.0764 15.2594 9.63155 15.2729C9.58572 15.2729 9.50753 15.3998 9.50484 15.4701C9.49405 15.9158 9.49944 16.3642 9.49944 16.8099C9.49944 16.945 9.49944 17.0773 9.49944 17.2124H10.9957V15.2648Z" fill="#231F20"/>
<path d="M15.0854 20.5619C15.0854 20.8347 14.8643 21.0643 14.5974 21.0643C14.3332 21.0643 14.1067 20.832 14.1094 20.5619C14.1094 20.2971 14.3197 20.0837 14.5866 20.0783C14.8616 20.0702 15.0827 20.2863 15.0854 20.5646V20.5619Z" fill="#231F20"/>
<path d="M8.6875 10.9513C8.6875 10.0761 9.37228 9.38455 10.2431 9.38184C11.1274 9.37914 11.8203 10.0707 11.8176 10.9594C11.8149 11.8319 11.1247 12.518 10.2485 12.518C9.37768 12.518 8.6875 11.8265 8.6875 10.9513ZM10.8389 10.9702C10.8524 10.6595 10.5828 10.3705 10.2674 10.3624C9.96271 10.3543 9.68772 10.6082 9.66884 10.9161C9.64997 11.2268 9.91148 11.5185 10.2296 11.5374C10.5397 11.5536 10.8281 11.2862 10.8416 10.9702H10.8389Z" fill="#231F20"/>
</svg>
