<svg width="909" height="453" viewBox="0 0 909 453" fill="none" xmlns="http://www.w3.org/2000/svg">
<g clip-path="url(#clip0_4440_40964)">
<path d="M248.186 370.501C272.863 370.501 292.868 350.496 292.868 325.818C292.868 301.141 272.863 281.136 248.186 281.136C223.509 281.136 203.504 301.141 203.504 325.818C203.504 350.496 223.509 370.501 248.186 370.501Z" fill="#E4E4E4"/>
<path opacity="0.2" d="M215.193 295.975C211.025 305.724 210.46 316.638 213.598 326.766C216.736 336.893 223.373 345.575 232.323 351.26C241.273 356.945 251.953 359.262 262.454 357.797C272.956 356.333 282.594 351.182 289.647 343.265C287.101 349.221 283.29 354.553 278.479 358.891C273.668 363.228 267.971 366.468 261.784 368.385C255.596 370.303 249.066 370.852 242.645 369.995C236.224 369.138 230.067 366.895 224.599 363.422C219.131 359.949 214.483 355.328 210.978 349.881C207.473 344.433 205.194 338.289 204.299 331.873C203.405 325.457 203.916 318.924 205.797 312.725C207.678 306.527 210.884 300.811 215.193 295.975Z" fill="black"/>
<path d="M248.31 325.819H248.432L250.642 452.5H245.977L248.31 325.819Z" fill="#01FF5F"/>
<path d="M157.783 287.175C207.537 287.175 247.87 246.841 247.87 197.087C247.87 147.334 207.537 107 157.783 107C108.029 107 67.6953 147.334 67.6953 197.087C67.6953 246.841 108.029 287.175 157.783 287.175Z" fill="#E4E4E4"/>
<path opacity="0.2" d="M91.2649 136.916C82.8618 156.572 81.7219 178.576 88.0488 198.996C94.3758 219.415 107.757 236.92 125.802 248.381C143.847 259.843 165.38 264.515 186.552 261.562C207.724 258.609 227.157 248.224 241.377 232.262C236.244 244.271 228.561 255.021 218.861 263.766C209.161 272.511 197.675 279.043 185.2 282.909C172.725 286.775 159.558 287.882 146.613 286.154C133.667 284.426 121.252 279.904 110.228 272.902C99.2033 265.9 89.8329 256.584 82.7661 245.601C75.6992 234.618 71.1047 222.229 69.3009 209.294C67.4971 196.359 68.5272 183.186 72.3197 170.688C76.1123 158.191 82.5766 146.667 91.2649 136.916Z" fill="black"/>
<path d="M158.03 197.087H158.278L162.733 452.5H153.328L158.03 197.087Z" fill="#01FF5F"/>
<path d="M751.73 320.3H338.809V442.707H751.73V320.3Z" fill="#F0F0F0"/>
<path d="M569.342 345.597H521.195V442.707H569.342V345.597Z" fill="#CACACA"/>
<path d="M727.657 175.859H362.883V288.474H727.657V175.859Z" fill="#F0F0F0"/>
<path d="M764.641 182.795H325.903C325.17 182.795 324.454 182.576 323.847 182.166C323.24 181.756 322.77 181.174 322.496 180.495C322.223 179.815 322.159 179.07 322.312 178.353C322.466 177.637 322.83 176.983 323.358 176.476L443.265 61.2197V11.0167C443.266 10.0431 443.654 9.10969 444.342 8.42125C445.031 7.73281 445.964 7.34556 446.937 7.34447H470.603C471.577 7.34553 472.51 7.73277 473.198 8.42122C473.887 9.10966 474.274 10.0431 474.275 11.0167V31.4132L483.332 22.7076C498.153 8.46168 517.816 0.353056 538.37 0.0112602C558.924 -0.330535 578.846 7.11982 594.132 20.8651L767.096 176.392C767.648 176.889 768.037 177.541 768.211 178.264C768.385 178.986 768.335 179.744 768.069 180.438C767.803 181.131 767.333 181.728 766.721 182.149C766.109 182.57 765.383 182.795 764.641 182.795Z" fill="#CACACA"/>
<path d="M459.175 204.421C462.23 204.421 465.254 205.022 468.076 206.191C470.897 207.36 473.461 209.073 475.621 211.233C477.781 213.392 479.494 215.956 480.662 218.778C481.831 221.6 482.433 224.624 482.433 227.678V259.096H435.918V227.678C435.918 224.624 436.52 221.6 437.688 218.778C438.857 215.956 440.57 213.392 442.73 211.233C444.89 209.073 447.453 207.36 450.275 206.191C453.097 205.022 456.121 204.421 459.175 204.421Z" fill="white"/>
<path d="M545.269 204.829C551.437 204.829 557.353 207.279 561.715 211.641C566.076 216.002 568.527 221.918 568.527 228.086V259.504H522.012V228.086C522.012 221.918 524.462 216.002 528.824 211.641C533.185 207.279 539.101 204.829 545.269 204.829Z" fill="white"/>
<path d="M631.363 205.237C637.531 205.237 643.447 207.687 647.808 212.049C652.17 216.41 654.62 222.326 654.62 228.494V259.912H608.105V228.494C608.105 222.326 610.556 216.41 614.917 212.049C619.279 207.687 625.195 205.237 631.363 205.237Z" fill="white"/>
<path d="M665.636 344.374C671.805 344.374 677.72 346.824 682.082 351.185C686.443 355.547 688.894 361.463 688.894 367.631V399.049H642.379V367.631C642.379 361.463 644.829 355.547 649.191 351.185C653.552 346.824 659.468 344.374 665.636 344.374Z" fill="white"/>
<path d="M435.511 344.374C441.68 344.374 447.595 346.824 451.957 351.185C456.318 355.547 458.769 361.463 458.769 367.631V399.049H412.254V367.631C412.254 364.577 412.855 361.552 414.024 358.731C415.193 355.909 416.906 353.345 419.066 351.185C421.226 349.026 423.789 347.313 426.611 346.144C429.433 344.975 432.457 344.374 435.511 344.374Z" fill="white"/>
<path d="M812.057 322.211L734.597 287.937C734.181 287.753 733.732 287.658 733.277 287.658H364.118C363.696 287.658 363.279 287.739 362.889 287.898L278.574 322.172C277.873 322.457 277.292 322.977 276.932 323.643C276.572 324.309 276.454 325.079 276.6 325.822C276.745 326.565 277.144 327.235 277.728 327.716C278.313 328.197 279.046 328.46 279.803 328.46H301.679V441.075H299.231V452.5H791.309V441.075H787.229V328.46H810.736C811.485 328.46 812.21 328.203 812.792 327.732C813.373 327.26 813.775 326.603 813.93 325.871C814.084 325.139 813.983 324.375 813.642 323.709C813.301 323.043 812.741 322.514 812.057 322.211ZM780.7 441.075H308.207V328.46H780.7V441.075Z" fill="#CACACA"/>
<path d="M488.146 254.608H428.574V264.401H488.146V254.608Z" fill="#CACACA"/>
<path d="M575.462 254.608H515.891V264.401H575.462V254.608Z" fill="#CACACA"/>
<path d="M662.783 254.608H603.211V264.401H662.783V254.608Z" fill="#CACACA"/>
<path d="M695.423 395.785H635.852V405.577H695.423V395.785Z" fill="#CACACA"/>
<path d="M464.482 395.785H404.91V405.577H464.482V395.785Z" fill="#CACACA"/>
<path d="M908 453H1C0.734784 453 0.480429 452.895 0.292892 452.707C0.105356 452.52 0 452.265 0 452C0 451.735 0.105356 451.48 0.292892 451.293C0.480429 451.105 0.734784 451 1 451H908C908.265 451 908.52 451.105 908.707 451.293C908.895 451.48 909 451.735 909 452C909 452.265 908.895 452.52 908.707 452.707C908.52 452.895 908.265 453 908 453Z" fill="#01FF5F"/>
<path d="M679.865 174.18C679.865 174.82 679.855 175.47 679.845 176.11C679.835 176.88 679.815 177.64 679.785 178.41C679.756 179.08 679.725 179.74 679.686 180.4C679.565 182.61 679.375 184.81 679.115 187.02C679.055 187.58 678.986 188.13 678.905 188.69C678.845 189.12 678.785 189.56 678.716 190C678.645 190.49 678.575 190.98 678.495 191.47C678.335 192.51 678.155 193.55 677.955 194.59C677.855 195.11 677.756 195.63 677.646 196.15C677.436 197.18 677.205 198.22 676.966 199.25C676.946 199.33 676.926 199.42 676.906 199.5C676.785 200.01 676.666 200.51 676.535 201.02C676.495 201.17 676.466 201.31 676.416 201.46C676.325 201.84 676.225 202.22 676.125 202.6C675.986 203.13 675.845 203.65 675.696 204.18C675.455 205 675.216 205.81 674.966 206.63C674.934 206.715 674.908 206.802 674.885 206.89C674.405 208.44 673.896 209.97 673.336 211.49C673.046 212.29 672.736 213.1 672.426 213.9C672.116 214.7 671.795 215.5 671.466 216.29C671.146 217.06 670.815 217.83 670.486 218.59C670.406 218.77 670.325 218.95 670.236 219.13C669.886 219.92 669.525 220.69 669.156 221.46C669.146 221.47 669.145 221.49 669.135 221.5C668.845 222.12 668.535 222.74 668.225 223.35C668.225 223.369 668.218 223.387 668.205 223.4C667.906 224 667.596 224.6 667.275 225.19L666.765 226.16L666.705 226.27C666.065 227.46 665.406 228.64 664.705 229.81C664.555 230.07 664.406 230.33 664.256 230.58C664.106 230.84 663.946 231.1 663.785 231.35C663.686 231.53 663.576 231.71 663.455 231.89C663.245 232.23 663.035 232.58 662.815 232.92C662.775 232.99 662.725 233.06 662.686 233.13C662.305 233.72 661.926 234.3 661.545 234.89C661.075 235.6 660.595 236.3 660.106 237L649.245 254.38L648.775 253.99L648.646 253.87H648.635L648.205 253.51L647.025 252.51C646.666 252.86 646.315 253.21 645.955 253.55C645.815 253.69 645.666 253.82 645.525 253.96C645.416 254.06 645.315 254.16 645.205 254.26C626.43 272.595 601.456 283.212 575.225 284.01H575.196C555.339 284.555 535.683 279.916 518.166 270.55C517.775 270.35 517.396 270.15 517.015 269.92C514.736 268.68 512.506 267.37 510.315 265.97C510.305 265.96 510.295 265.96 510.285 265.95C507.745 264.15 505.265 262.23 502.845 260.19C489.863 249.247 479.591 235.445 472.837 219.866C466.083 204.288 463.029 187.356 463.916 170.4C463.946 169.73 463.986 169.07 464.035 168.4C464.196 165.98 464.442 163.57 464.775 161.17C464.865 160.5 464.966 159.83 465.065 159.17H678.845C679.265 162.23 679.555 165.307 679.716 168.4C679.815 170.33 679.865 172.25 679.865 174.18Z" fill="#F0F0F0"/>
<path d="M678.845 159.17C674.996 133.576 662.091 110.212 642.476 93.3256C622.861 76.4395 597.838 67.1523 571.955 67.1523C546.073 67.1523 521.05 76.4395 501.434 93.3256C481.819 110.212 468.914 133.576 465.065 159.17C464.965 159.83 464.865 160.5 464.775 161.17C464.445 163.57 464.199 165.98 464.035 168.4H679.715C679.555 165.31 679.265 162.234 678.845 159.17Z" fill="#542FDF"/>
<path d="M578.957 270.547H517.02V221C518.162 198.357 537.515 196.529 555.7 197.744C558.754 197.744 561.778 198.345 564.6 199.514C567.422 200.683 569.986 202.396 572.145 204.555C574.305 206.715 576.018 209.279 577.187 212.1C578.356 214.922 578.957 217.946 578.957 221V270.547Z" fill="#542FDF"/>
<path d="M517.015 235.32V235.33C517.015 235.34 517.025 235.34 517.035 235.34L517.015 235.32ZM492.105 159.17C492.065 159.42 492.015 159.67 491.975 159.92C492.015 159.67 492.065 159.42 492.115 159.17H492.105ZM490.865 168.4C490.835 168.78 490.805 169.16 490.785 169.54C490.805 169.16 490.835 168.78 490.875 168.4C490.874 168.33 490.877 168.26 490.885 168.19C490.876 168.26 490.875 168.33 490.865 168.4ZM517.015 235.33C517.015 235.34 517.025 235.34 517.035 235.34L517.015 235.32V235.33ZM492.105 159.17C492.065 159.42 492.015 159.67 491.975 159.92C492.015 159.67 492.065 159.42 492.115 159.17H492.105ZM490.785 169.54C490.805 169.16 490.835 168.78 490.875 168.4C490.874 168.33 490.877 168.26 490.885 168.19C490.876 168.26 490.875 168.33 490.865 168.4C490.835 168.78 490.805 169.16 490.785 169.54ZM799.725 353.5C799.531 353.294 799.324 353.1 799.105 352.92L799.096 352.91L749.576 311.12L748.295 310.04L743.426 305.93L742.205 304.9L735.265 299.04L733.365 297.44L729.436 294.12L727.426 292.42L708.466 276.43L697.595 267.26L696.135 266.03L664.105 239C664.595 238.3 665.075 237.6 665.545 236.89C665.926 236.3 666.305 235.72 666.686 235.13C666.725 235.06 666.775 234.99 666.815 234.92C667.035 234.58 667.245 234.23 667.455 233.89C667.575 233.71 667.685 233.53 667.785 233.35C667.946 233.1 668.105 232.84 668.256 232.58C668.406 232.33 668.555 232.07 668.705 231.81C669.406 230.64 670.065 229.46 670.705 228.27L670.765 228.16L671.275 227.19C671.595 226.6 671.906 226 672.205 225.4C672.218 225.387 672.225 225.369 672.225 225.35C672.535 224.74 672.845 224.12 673.135 223.5C673.145 223.49 673.145 223.47 673.155 223.46C673.525 222.69 673.885 221.92 674.236 221.13C674.325 220.95 674.405 220.77 674.486 220.59C674.815 219.83 675.145 219.06 675.466 218.29C675.795 217.5 676.115 216.7 676.426 215.9C676.736 215.1 677.045 214.29 677.335 213.49C677.885 211.96 678.402 210.427 678.885 208.89C678.908 208.802 678.934 208.716 678.966 208.63C679.216 207.81 679.455 207 679.696 206.18C679.845 205.65 679.986 205.13 680.125 204.6C680.225 204.22 680.325 203.84 680.415 203.46C680.465 203.31 680.495 203.17 680.535 203.02C680.665 202.51 680.785 202.01 680.905 201.5C680.925 201.42 680.945 201.33 680.966 201.25C681.205 200.22 681.436 199.18 681.645 198.15C681.756 197.63 681.855 197.11 681.955 196.59C682.145 195.55 682.335 194.51 682.495 193.47C682.575 192.98 682.645 192.49 682.715 192C682.785 191.56 682.845 191.12 682.905 190.69C682.986 190.13 683.055 189.58 683.115 189.02C683.375 186.81 683.565 184.61 683.685 182.4C683.725 181.74 683.756 181.08 683.785 180.41C683.815 179.64 683.835 178.88 683.845 178.11C683.855 177.47 683.865 176.82 683.865 176.18C683.865 174.25 683.815 172.33 683.716 170.4C683.555 167.31 683.265 164.234 682.845 161.17C679.263 134.985 666.376 110.963 646.541 93.4966C626.706 76.0299 601.248 66.2845 574.82 66.0418C548.392 65.799 522.759 75.0753 502.606 92.1748C482.454 109.274 469.129 133.055 465.065 159.17C464.966 159.83 464.865 160.5 464.775 161.17C464.446 163.57 464.199 165.98 464.035 168.4C463.986 169.07 463.946 169.73 463.916 170.4C463.029 187.357 466.083 204.288 472.837 219.867C479.591 235.445 489.863 249.247 502.845 260.19C505.265 262.23 507.745 264.15 510.285 265.95C510.295 265.96 510.305 265.96 510.315 265.97C511.165 266.57 512.015 267.16 512.875 267.74C514.245 268.64 515.625 269.52 517.015 270.36C517.125 270.42 517.236 270.49 517.345 270.55C518.545 271.27 519.756 271.96 520.966 272.63H520.975C525.48 275.107 530.155 277.259 534.966 279.07C549.08 284.381 564.133 286.743 579.196 286.01H579.225C596.806 285.16 613.924 280.094 629.135 271.24C631.345 269.96 633.525 268.59 635.655 267.13C636.185 266.77 636.725 266.4 637.245 266.03C637.885 265.58 638.525 265.11 639.165 264.64C639.175 264.64 639.175 264.63 639.185 264.63C639.233 264.59 639.283 264.554 639.335 264.52C639.765 264.19 640.205 263.86 640.625 263.54C640.736 263.46 640.845 263.38 640.955 263.29C640.984 263.27 641.011 263.246 641.035 263.22C641.285 263.04 641.525 262.84 641.775 262.65C642.025 262.46 642.265 262.26 642.515 262.06C642.558 262.033 642.598 262.003 642.635 261.97C642.915 261.74 643.195 261.52 643.475 261.29C643.765 261.06 644.045 260.82 644.315 260.59C644.595 260.36 644.865 260.13 645.145 259.89C645.385 259.69 645.635 259.48 645.875 259.26C645.955 259.2 646.025 259.13 646.105 259.06C646.136 259.031 646.17 259.004 646.205 258.98C646.535 258.7 646.855 258.41 647.175 258.12C647.256 258.05 647.325 257.98 647.406 257.91C647.896 257.47 648.385 257.03 648.865 256.57C648.975 256.47 649.095 256.36 649.205 256.26C649.315 256.16 649.416 256.06 649.525 255.96C649.666 255.82 649.815 255.69 649.955 255.55C650.315 255.21 650.666 254.86 651.025 254.51L652.205 255.51L652.635 255.87H652.646L652.775 255.99L653.245 256.38L660.225 262.28L660.376 262.41L660.495 262.5L661.285 263.17L662.865 264.51L664.446 265.84L664.676 266.03L672.025 272.23L673.045 273.09L680.135 279.07L716.836 310.04L718.116 311.12L768.346 353.5L781.225 364.37L786.015 368.41C787.032 369.271 788.208 369.922 789.477 370.327C790.746 370.733 792.082 370.884 793.409 370.773C794.736 370.661 796.029 370.289 797.212 369.678C798.395 369.067 799.446 368.228 800.305 367.21C801.025 366.366 801.596 365.405 801.995 364.37C802.722 362.535 802.894 360.527 802.49 358.595C802.087 356.663 801.125 354.892 799.725 353.5ZM510.055 121.69C520.088 109.802 533.279 100.994 548.104 96.2842C562.93 91.5746 578.786 91.1554 593.84 95.0749C608.894 98.9945 622.531 107.093 633.178 118.435C643.824 129.776 651.045 143.899 654.006 159.17C654.136 159.84 654.256 160.5 654.365 161.17C654.775 163.56 655.075 165.98 655.256 168.4C655.305 169.07 655.355 169.73 655.385 170.4C655.475 171.9 655.515 173.41 655.515 174.91C655.521 184.009 654.014 193.046 651.055 201.65V201.66C647.749 211.308 642.672 220.254 636.085 228.04C635.945 228.2 635.805 228.37 635.655 228.53C634.335 230.09 632.945 231.59 631.515 233.02C631.506 233.03 631.495 233.05 631.486 233.06C630.995 233.55 630.495 234.05 629.995 234.51C628.975 235.5 627.935 236.44 626.875 237.34C625.285 238.73 623.655 240.034 621.986 241.25C621.425 241.66 620.865 242.06 620.295 242.46C619.736 242.86 619.165 243.24 618.595 243.62C617.455 244.38 616.295 245.11 615.125 245.8C614.545 246.15 613.945 246.49 613.355 246.82C612.765 247.16 612.165 247.48 611.565 247.79C610.966 248.11 610.365 248.42 609.756 248.72C608.545 249.33 607.325 249.9 606.085 250.43C605.466 250.71 604.845 250.97 604.225 251.21C603.835 251.37 603.455 251.53 603.065 251.67C602.913 251.741 602.756 251.801 602.595 251.85C602.385 251.94 602.175 252.02 601.965 252.09C601.897 252.121 601.827 252.148 601.755 252.17C601.325 252.34 600.905 252.49 600.465 252.64C599.835 252.87 599.205 253.08 598.565 253.28C597.925 253.49 597.295 253.69 596.655 253.87C596.015 254.07 595.365 254.25 594.725 254.42C594.075 254.6 593.435 254.77 592.785 254.92C592.095 255.1 591.405 255.26 590.705 255.41C590.095 255.55 589.495 255.67 588.885 255.78C588.315 255.9 587.735 256 587.165 256.1C586.365 256.24 585.565 256.37 584.755 256.48C584.315 256.55 583.885 256.61 583.445 256.65C583.255 256.68 583.075 256.7 582.895 256.72C582.335 256.8 581.775 256.86 581.225 256.91C581.075 256.92 580.935 256.94 580.795 256.95C580.185 257.01 579.565 257.06 578.955 257.11C577.645 257.2 576.345 257.26 575.035 257.29C574.375 257.3 573.705 257.31 573.045 257.31C572.385 257.31 571.725 257.3 571.065 257.28C571.065 257.28 571.065 257.29 571.055 257.28C571.045 257.29 571.045 257.29 571.035 257.28C571.034 257.282 571.032 257.283 571.031 257.284C571.029 257.284 571.027 257.285 571.025 257.285C571.023 257.285 571.022 257.284 571.02 257.284C571.018 257.283 571.017 257.282 571.015 257.28C570.983 257.29 570.948 257.29 570.915 257.28C570.445 257.28 569.975 257.26 569.515 257.23C569.175 257.22 568.825 257.21 568.475 257.18C568.006 257.16 567.536 257.13 567.065 257.09C566.916 257.09 566.765 257.07 566.615 257.06C566.545 257.059 566.475 257.052 566.405 257.04C565.925 257 565.435 256.96 564.955 256.91C564.716 256.89 564.466 256.87 564.225 256.84C563.495 256.76 562.765 256.67 562.045 256.57C561.225 256.47 560.405 256.35 559.595 256.2C559.215 256.15 558.845 256.08 558.475 256.01C557.985 255.93 557.496 255.84 557.005 255.74C556.495 255.64 555.985 255.54 555.475 255.42C555.065 255.33 554.645 255.24 554.235 255.14C554.035 255.1 553.835 255.05 553.645 255C552.595 254.75 551.555 254.48 550.525 254.18C549.875 254 549.225 253.81 548.585 253.61C547.705 253.34 546.835 253.05 545.965 252.74C545.625 252.63 545.295 252.51 544.955 252.38C544.615 252.27 544.285 252.14 543.945 252.01C543.635 251.9 543.325 251.78 543.025 251.66C542.525 251.47 542.035 251.27 541.545 251.07C540.535 250.66 539.545 250.23 538.555 249.77C537.995 249.5 537.435 249.24 536.885 248.97C534.715 247.92 532.579 246.754 530.475 245.47C529.955 245.16 529.435 244.83 528.915 244.5C528.265 244.1 527.635 243.68 527.005 243.26C526.655 243.02 526.315 242.79 525.975 242.55C525.345 242.11 524.725 241.66 524.115 241.21C523.795 240.98 523.475 240.74 523.165 240.5C522.055 239.66 520.965 238.78 519.895 237.88C519.385 237.45 518.875 237.01 518.375 236.56C518.165 236.38 517.955 236.19 517.745 236C517.505 235.78 517.265 235.57 517.035 235.34L517.015 235.32C516.666 235.01 516.315 234.68 515.975 234.35C515.445 233.85 514.925 233.34 514.425 232.82C513.905 232.31 513.405 231.78 512.915 231.26C512.415 230.74 511.935 230.21 511.465 229.67C510.985 229.14 510.515 228.6 510.055 228.05C509.605 227.53 509.165 226.99 508.745 226.46C507.725 225.2 506.752 223.917 505.825 222.61C505.395 222.01 504.985 221.41 504.585 220.8C504.155 220.18 503.745 219.55 503.355 218.92C502.945 218.29 502.555 217.65 502.175 217C502.166 216.978 502.152 216.958 502.135 216.94C501.385 215.67 500.665 214.39 499.995 213.09C499.305 211.77 498.655 210.437 498.045 209.09C497.735 208.42 497.435 207.74 497.155 207.06C496.575 205.69 496.035 204.32 495.535 202.93C495.285 202.26 495.055 201.59 494.825 200.91C494.818 200.865 494.804 200.822 494.785 200.78C494.325 199.4 493.905 198.01 493.535 196.61C493.525 196.59 493.525 196.57 493.515 196.55C493.325 195.86 493.145 195.17 492.985 194.47C492.825 193.86 492.685 193.25 492.555 192.63C492.405 191.94 492.255 191.25 492.125 190.55C492.055 190.19 491.985 189.83 491.925 189.47C491.865 189.17 491.815 188.86 491.765 188.56C491.715 188.26 491.665 187.95 491.615 187.64C491.515 187.03 491.425 186.42 491.345 185.81C491.245 185.09 491.165 184.37 491.085 183.64C490.995 182.77 490.915 181.9 490.845 181.02C490.795 180.43 490.765 179.83 490.735 179.23C490.705 178.68 490.675 178.13 490.665 177.58C490.655 177.551 490.655 177.52 490.665 177.49C490.664 177.489 490.663 177.488 490.662 177.486C490.661 177.484 490.661 177.482 490.661 177.48C490.661 177.479 490.661 177.477 490.662 177.475C490.663 177.473 490.664 177.472 490.665 177.47C490.655 177.46 490.655 177.46 490.665 177.45C490.664 177.449 490.663 177.448 490.662 177.446C490.661 177.444 490.661 177.442 490.661 177.44C490.661 177.439 490.661 177.437 490.662 177.435C490.663 177.433 490.664 177.432 490.665 177.43C490.655 177.21 490.645 176.99 490.645 176.77C490.625 176.12 490.615 175.471 490.615 174.821C490.615 174.23 490.625 173.65 490.635 173.06C490.655 172.24 490.685 171.42 490.725 170.6C490.725 170.42 490.745 170.25 490.755 170.07C490.765 169.89 490.775 169.72 490.785 169.54C490.805 169.16 490.835 168.78 490.875 168.4C490.874 168.33 490.877 168.26 490.885 168.19C490.915 167.76 490.955 167.33 490.995 166.9C491.075 166.04 491.175 165.17 491.285 164.31C491.345 163.88 491.395 163.45 491.465 163.02C491.505 162.72 491.555 162.41 491.605 162.1C491.645 161.79 491.695 161.48 491.755 161.17C491.825 160.76 491.896 160.34 491.975 159.92C492.015 159.67 492.065 159.42 492.115 159.17C492.305 158.17 492.515 157.17 492.745 156.17C492.975 155.16 493.235 154.16 493.515 153.16C493.785 152.15 494.085 151.14 494.405 150.13C494.555 149.62 494.715 149.12 494.895 148.62C495.225 147.61 495.575 146.61 495.965 145.62C496.145 145.13 496.335 144.63 496.545 144.14C496.945 143.15 497.365 142.16 497.795 141.19C498.015 140.7 498.235 140.21 498.475 139.72C498.925 138.75 499.395 137.78 499.905 136.83C500.395 135.86 500.925 134.91 501.465 133.97C502.005 133.03 502.565 132.09 503.155 131.16C503.425 130.7 503.725 130.23 504.035 129.78C504.635 128.86 505.265 127.94 505.905 127.04C507.196 125.22 508.585 123.43 510.055 121.69ZM490.865 168.4C490.835 168.78 490.805 169.16 490.785 169.54C490.805 169.16 490.835 168.78 490.875 168.4C490.874 168.33 490.877 168.26 490.885 168.19C490.876 168.26 490.875 168.33 490.865 168.4ZM492.105 159.17C492.065 159.42 492.015 159.67 491.975 159.92C492.015 159.67 492.065 159.42 492.115 159.17H492.105ZM517.015 235.32V235.33C517.015 235.34 517.025 235.34 517.035 235.34L517.015 235.32Z" fill="#01FF5F"/>
<path opacity="0.3" d="M519.897 237.879C504.08 224.531 493.861 205.723 491.269 185.189C488.677 164.656 493.902 143.898 505.906 127.039C504.33 128.626 502.806 130.289 501.334 132.027C494.352 140.302 489.067 149.871 485.783 160.189C482.499 170.506 481.279 181.37 482.193 192.158C483.107 202.947 486.137 213.451 491.11 223.068C496.083 232.686 502.902 241.23 511.177 248.213C527.89 262.315 549.52 269.2 571.309 267.354C593.098 265.508 613.262 255.082 627.364 238.37C628.832 236.63 630.214 234.848 631.511 233.024C616.912 247.693 597.329 256.336 576.652 257.235C555.975 258.135 535.716 251.225 519.897 237.879Z" fill="black"/>
</g>
<defs>
<clipPath id="clip0_4440_40964">
<rect width="909" height="453" fill="white"/>
</clipPath>
</defs>
</svg>
