<svg width="22" height="24" viewBox="0 0 22 24" fill="none" xmlns="http://www.w3.org/2000/svg">
<path d="M19.25 3H17V0.5625C17 0.28125 16.7188 0 16.4375 0H16.0625C15.7344 0 15.5 0.28125 15.5 0.5625V3H6.5V0.5625C6.5 0.28125 6.21875 0 5.9375 0H5.5625C5.23438 0 5 0.28125 5 0.5625V3H2.75C1.48438 3 0.5 4.03125 0.5 5.25V21.75C0.5 23.0156 1.48438 24 2.75 24H19.25C20.4688 24 21.5 23.0156 21.5 21.75V5.25C21.5 4.03125 20.4688 3 19.25 3ZM2.75 4.5H19.25C19.625 4.5 20 4.875 20 5.25V7.5H2V5.25C2 4.875 2.32812 4.5 2.75 4.5ZM19.25 22.5H2.75C2.32812 22.5 2 22.1719 2 21.75V9H20V21.75C20 22.1719 19.625 22.5 19.25 22.5ZM16.1094 13.4062C16.3438 13.1719 16.3438 12.7969 16.1094 12.6094L15.7344 12.1875C15.5 11.9531 15.125 11.9531 14.9375 12.1875L9.40625 17.6719L7.01562 15.2812C6.82812 15.0938 6.45312 15.0938 6.21875 15.2812L5.84375 15.7031C5.60938 15.8906 5.60938 16.2656 5.84375 16.5L8.98438 19.6406C9.21875 19.875 9.59375 19.875 9.78125 19.6406L16.1094 13.4062Z" fill="black"/>
</svg>
