<svg width="64" height="59" viewBox="0 0 64 59" fill="none" xmlns="http://www.w3.org/2000/svg">
<g clip-path="url(#clip0_5135_41529)">
<path d="M54.6673 13.333V1.33301H1.33398V57.333H54.6673V46.6663" stroke="#542FDF" stroke-width="2.66667" stroke-miterlimit="10"/>
<path d="M1.33301 9.3335H54.6663" stroke="#542FDF" stroke-width="2.66667" stroke-miterlimit="10"/>
<path d="M5.33301 5.3335H7.99967" stroke="#542FDF" stroke-width="2.66667" stroke-miterlimit="10"/>
<path d="M10.666 5.3335H13.3327" stroke="#542FDF" stroke-width="2.66667" stroke-miterlimit="10"/>
<path d="M16 5.3335H18.6667" stroke="#542FDF" stroke-width="2.66667" stroke-miterlimit="10"/>
<path d="M26.6663 16H57.333C58.7475 16 60.104 16.5619 61.1042 17.5621C62.1044 18.5623 62.6663 19.9188 62.6663 21.3333V38.6667C62.6663 40.0812 62.1044 41.4377 61.1042 42.4379C60.104 43.4381 58.7475 44 57.333 44H37.333L30.2797 51.0533C30.094 51.2406 29.8569 51.3685 29.5985 51.421C29.3401 51.4735 29.0719 51.4483 28.8279 51.3484C28.5838 51.2485 28.3749 51.0784 28.2275 50.8598C28.0801 50.6411 28.0008 50.3837 27.9997 50.12V44H26.6663C25.2519 44 23.8953 43.4381 22.8951 42.4379C21.8949 41.4377 21.333 40.0812 21.333 38.6667V21.3333C21.333 19.9188 21.8949 18.5623 22.8951 17.5621C23.8953 16.5619 25.2519 16 26.6663 16Z" stroke="#542FDF" stroke-width="2.66667" stroke-linejoin="round"/>
<path d="M42.6668 20.7734L45.4268 26.8801L51.9068 27.4934L47.1334 32.4134L48.3734 38.6801L42.6668 35.8668L36.9601 38.7601L38.2001 32.4001L33.4268 27.4934L39.9068 26.8801L42.6668 20.7734Z" stroke="#542FDF" stroke-width="2.66667" stroke-linejoin="round"/>
</g>
<defs>
<clipPath id="clip0_5135_41529">
<rect width="64" height="58.6667" fill="white"/>
</clipPath>
</defs>
</svg>
