<svg width="64" height="60" viewBox="0 0 64 60" fill="none" xmlns="http://www.w3.org/2000/svg">
<g clip-path="url(#clip0_5135_41519)">
<path d="M5.33398 10.667H32.0007C33.0615 10.667 34.0789 11.0884 34.8291 11.8386C35.5792 12.5887 36.0007 13.6061 36.0007 14.667V37.3337C36.0007 38.3945 35.5792 39.4119 34.8291 40.1621C34.0789 40.9122 33.0615 41.3337 32.0007 41.3337H15.6007L8.93398 48.267C8.74844 48.449 8.51375 48.5728 8.25878 48.6232C8.0038 48.6736 7.73965 48.6484 7.49883 48.5506C7.258 48.4529 7.05099 48.2869 6.90326 48.073C6.75553 47.8592 6.67352 47.6068 6.66732 47.347V41.3337H5.33398C4.27312 41.3337 3.2557 40.9122 2.50556 40.1621C1.75541 39.4119 1.33398 38.3945 1.33398 37.3337V14.667C1.33398 13.6061 1.75541 12.5887 2.50556 11.8386C3.2557 11.0884 4.27312 10.667 5.33398 10.667V10.667Z" stroke="#542FDF" stroke-width="2.66667" stroke-miterlimit="10"/>
<path d="M14.667 13.3335V28.0002C14.667 29.061 15.0884 30.0784 15.8386 30.8286C16.5887 31.5787 17.6061 32.0002 18.667 32.0002H33.3337" stroke="#542FDF" stroke-width="2.66667" stroke-miterlimit="10"/>
<path d="M56.0003 20.0002V5.3335C56.0003 4.27263 55.5789 3.25521 54.8287 2.50507C54.0786 1.75492 53.0612 1.3335 52.0003 1.3335H18.667C17.6061 1.3335 16.5887 1.75492 15.8386 2.50507C15.0884 3.25521 14.667 4.27263 14.667 5.3335V10.6668" stroke="#542FDF" stroke-width="2.66667" stroke-miterlimit="10"/>
<path d="M36.001 32.0003H40.001L47.121 39.067C47.3073 39.2497 47.5432 39.3737 47.7994 39.4236C48.0556 39.4736 48.3208 39.4472 48.5621 39.3478C48.8034 39.2485 49.0103 39.0804 49.1571 38.8646C49.3038 38.6488 49.384 38.3946 49.3876 38.1337V32.0003H52.0543C53.1152 32.0003 54.1326 31.5789 54.8827 30.8288C55.6329 30.0786 56.0543 29.0612 56.0543 28.0003V22.667" stroke="#542FDF" stroke-width="2.66667" stroke-miterlimit="10"/>
<path d="M22.667 41.3333V46.6667C22.667 47.7275 23.0884 48.7449 23.8386 49.4951C24.5887 50.2452 25.6061 50.6667 26.667 50.6667H41.7337L51.1603 58.2533C51.3563 58.4123 51.5933 58.5124 51.8439 58.542C52.0944 58.5716 52.3483 58.5295 52.5759 58.4206C52.8035 58.3117 52.9955 58.1404 53.1296 57.9267C53.2638 57.713 53.3345 57.4656 53.3337 57.2133V50.6667H58.667C59.7279 50.6667 60.7453 50.2452 61.4954 49.4951C62.2456 48.7449 62.667 47.7275 62.667 46.6667V24C62.667 22.9391 62.2456 21.9217 61.4954 21.1716C60.7453 20.4214 59.7279 20 58.667 20H36.0003" stroke="#542FDF" stroke-width="2.66667" stroke-miterlimit="10"/>
<path d="M22.667 32V38.6667" stroke="#542FDF" stroke-width="2.66667" stroke-miterlimit="10"/>
<path d="M33.3337 20H26.667C25.6061 20 24.5887 20.4214 23.8386 21.1716C23.0884 21.9217 22.667 22.9391 22.667 24V29.3333" stroke="#542FDF" stroke-width="2.66667" stroke-miterlimit="10"/>
</g>
<defs>
<clipPath id="clip0_5135_41519">
<rect width="64" height="59.88" fill="white"/>
</clipPath>
</defs>
</svg>
