<svg width="47" height="54" viewBox="0 0 47 54" fill="none" xmlns="http://www.w3.org/2000/svg">
<path d="M32.2053 26.7947C32.0489 26.6383 31.7674 26.3881 31.5797 26.263C31.3607 26.1065 31.1105 26.1378 30.9228 26.2942L30.2659 26.9511C30.0156 27.2326 29.8905 27.5767 29.8905 27.8895C29.8905 28.0459 30.0156 28.2023 30.1095 28.2962C30.2033 28.3587 30.3284 28.4526 30.4536 28.5464C31.3294 29.4536 31.3294 30.8612 30.4536 31.737L28.3265 33.8328C27.4506 34.74 26.0117 34.74 25.1359 33.8328C24.26 32.957 24.2913 31.5181 25.1672 30.6422L25.5738 30.2356C25.7302 30.1105 25.7615 29.8915 25.6989 29.7038C25.5112 29.172 25.4174 28.609 25.3861 28.0772C25.3861 27.6393 24.8543 27.4203 24.5415 27.7331L23.3842 28.8905C21.5386 30.7361 21.5386 33.7703 23.3842 35.6158C25.2297 37.4614 28.2639 37.4614 30.1095 35.6158L32.2053 33.52C32.2053 33.52 32.2053 33.52 32.2053 33.4888C34.0508 31.6745 34.0821 28.6716 32.2053 26.7947ZM36.6158 22.3842C34.7703 20.5386 31.7361 20.5386 29.8905 22.3842L27.7947 24.48C27.7947 24.48 27.7947 24.48 27.7947 24.5112C25.9492 26.3255 25.9179 29.3284 27.7947 31.2053C27.9511 31.3617 28.2326 31.6119 28.4203 31.737C28.6393 31.8935 28.8895 31.8622 29.0772 31.7058L29.7341 31.0489C29.9844 30.7674 30.1095 30.4233 30.1095 30.1105C30.1095 29.9541 29.9844 29.7977 29.8905 29.7038C29.7967 29.6413 29.6716 29.5474 29.5464 29.4536C28.6706 28.5464 28.6706 27.1388 29.5464 26.263L31.6735 24.1672C32.5494 23.26 33.9883 23.26 34.8641 24.1672C35.74 25.043 35.7087 26.4819 34.8328 27.3578L34.4262 27.7644C34.2698 27.8895 34.2385 28.1085 34.3011 28.2962C34.4888 28.828 34.5826 29.391 34.6139 29.9228C34.6139 30.3607 35.1457 30.5797 35.4585 30.2669L36.6158 29.1095C38.4614 27.2639 38.4614 24.2297 36.6158 22.3842Z" fill="white"/>
<path d="M45.4263 6.96094L40.0759 1.58203C39.2366 0.738281 37.6629 0 36.5089 0H18.4643C15.6317 0 13.4286 2.32031 13.4286 5.0625V10.125H5.03571C2.20312 10.125 0 12.4453 0 15.1875V48.9375C0 51.7852 2.20312 54 5.03571 54H28.5357C31.2634 54 33.5714 51.7852 33.5714 48.9375V43.875H41.9643C44.692 43.875 47 41.6602 47 38.8125V10.5469C47 9.38672 46.2656 7.80469 45.4263 6.96094ZM27.9062 48.9375H5.66518C5.24554 48.9375 5.03571 48.7266 5.03571 48.3047V15.8203C5.03571 15.5039 5.24554 15.1875 5.66518 15.1875H13.4286V38.8125C13.4286 41.6602 15.6317 43.875 18.4643 43.875H28.5357V48.3047C28.5357 48.7266 28.221 48.9375 27.9062 48.9375ZM41.3348 38.8125H19.0937C18.6741 38.8125 18.4643 38.6016 18.4643 38.1797V5.69531C18.4643 5.37891 18.6741 5.0625 19.0937 5.0625H30.2143V14.3438C30.2143 15.8203 31.2634 16.875 32.7321 16.875H41.9643V38.1797C41.9643 38.6016 41.6496 38.8125 41.3348 38.8125ZM41.9643 11.8125H35.25V5.0625H36.1942C36.404 5.0625 36.5089 5.16797 36.6138 5.27344L41.7545 10.4414C41.8594 10.5469 41.9643 10.6523 41.9643 10.8633V11.8125Z" fill="white"/>
</svg>
