<svg width="25" height="34" viewBox="0 0 25 34" fill="none" xmlns="http://www.w3.org/2000/svg">
<path d="M11.1979 33.3034C11.7839 34.2322 13.151 34.2322 13.737 33.3034C23.2422 19.3717 25 17.9122 25 12.7376C25 5.70537 19.401 0 12.5 0C5.53385 0 0 5.70537 0 12.7376C0 17.9122 1.69271 19.3717 11.1979 33.3034Z" fill="black"/>
<path d="M22 12.5C22 17.7467 17.7467 22 12.5 22C7.25329 22 3 17.7467 3 12.5C3 7.25329 7.25329 3 12.5 3C17.7467 3 22 7.25329 22 12.5Z" fill="#01FF5F"/>
<g clip-path="url(#clip0_5510_41574)">
<g clip-path="url(#clip1_5510_41574)">
<path d="M17.5632 18.0746C17.5318 17.6609 17.5028 17.3106 17.4715 16.94C17.4594 16.7928 17.4449 16.6405 17.4328 16.4729L17.4087 16.2496C17.3918 16.1049 17.317 16.0389 17.2711 16.011C17.1793 15.9526 17.0852 15.9704 17.0441 15.9856L16.9403 16.0161C16.9403 16.0161 16.9331 16.0186 16.9283 16.0211C16.5734 16.1506 16.3368 16.0211 16.0592 15.5439C15.7815 15.0693 15.5039 14.5845 15.2359 14.1149C14.9293 13.5793 14.6107 13.0234 14.2944 12.4802C14.263 12.4269 14.2606 12.4041 14.2582 12.4041C14.2582 12.399 14.2727 12.3736 14.3403 12.3076C15.6029 11.0791 16.5275 9.54093 17.09 7.7413C17.1552 7.53316 17.2059 7.3301 17.0948 7.17019C16.9862 7.01027 16.7858 6.99758 16.5879 6.99505C16.2716 6.99505 15.9554 6.99505 15.6415 6.99505C15.1176 6.99505 14.5744 6.99505 14.0433 6.98743C13.5822 6.97982 13.4543 7.40117 13.406 7.56108C13.0752 8.65254 12.6238 9.52316 12.0227 10.2212C11.7281 10.5639 11.0884 10.9649 10.5476 11.1883V7.62961C10.5476 7.46716 10.5355 7.26664 10.4027 7.12957C10.27 6.99505 10.0865 6.98235 9.96336 6.98489H7.87992C7.75439 6.98489 7.57574 7.00012 7.44778 7.13465C7.32466 7.26918 7.31259 7.45701 7.31259 7.58646C7.31742 8.01289 7.31742 8.44694 7.315 8.86829C7.315 9.12973 7.315 9.41402 7.315 9.67546C7.315 10.2593 7.42606 10.3709 7.9958 10.3709H8.0296C8.60176 10.3709 9.49984 10.376 10.1106 10.3709V11.1832H7.962H7.89441C7.76887 11.1832 7.58539 11.1933 7.45261 11.3329C7.35605 11.4345 7.31018 11.5817 7.31259 11.7797C7.32225 12.5158 7.31983 13.2925 7.31259 14.021C7.31259 14.1987 7.35846 14.3357 7.4502 14.4322C7.54918 14.5337 7.68679 14.5794 7.86785 14.5769H10.113V15.3586C9.84265 15.3586 9.47087 15.3586 9.17875 15.3586C8.7611 15.3586 8.25895 15.3586 7.90165 15.3536C7.77128 15.351 7.58298 15.3612 7.45261 15.4982C7.35605 15.5972 7.31018 15.7419 7.31259 15.9374C7.31983 16.6227 7.32225 17.341 7.31259 18.1457C7.31259 18.3462 7.35605 18.4934 7.45503 18.5924C7.57815 18.7193 7.74231 18.7396 7.86785 18.7396C7.87751 18.7396 7.88717 18.7396 7.89682 18.7396C8.39173 18.7295 8.7611 18.7295 9.13771 18.732C9.3067 18.732 9.56261 18.732 9.78712 18.732C10.4341 18.732 10.5307 18.6305 10.5307 17.9604C10.5307 17.9528 10.5307 17.9477 10.5307 17.8588V14.5743H11.7136L11.7788 14.6708L13.4518 17.6482H13.4543C13.7705 18.2167 14.1278 18.6051 14.7386 18.732C15.0259 18.7904 15.1611 18.798 15.5136 18.798C16.0374 18.798 16.6168 18.7345 17.2011 18.6076C17.5318 18.5366 17.5825 18.2777 17.568 18.0721L17.5632 18.0746ZM8.03202 9.93436H7.91131C7.71093 9.93436 7.73266 9.74145 7.73266 9.74145C7.73266 9.48255 7.73266 9.12719 7.73266 8.86829C7.73266 8.44694 7.73024 8.01035 7.73024 7.58139C7.73024 7.40878 7.88234 7.42401 7.88234 7.42401H9.96819C9.96819 7.42401 10.113 7.41132 10.113 7.52554V9.93436C9.50225 9.93436 8.60418 9.93436 8.03202 9.93436V9.93436ZM7.86544 14.1403C7.72542 14.1403 7.73024 14.0235 7.73024 14.0235C7.73507 13.29 7.7399 12.5107 7.73024 11.7721C7.73024 11.7721 7.70369 11.6172 7.89441 11.6172H10.113V14.1377H7.86544V14.1403ZM9.92715 18.298C9.92715 18.298 9.9199 18.298 9.91749 18.298C9.69297 18.298 9.3067 18.298 9.14012 18.298C8.7611 18.298 8.38931 18.3056 7.88958 18.3056C7.73024 18.3056 7.73024 18.1533 7.73024 18.1533C7.73749 17.3436 7.73749 16.6227 7.73024 15.9348C7.73024 15.9348 7.73749 15.7927 7.89441 15.7927C8.25412 15.7927 8.7611 15.8003 9.18117 15.7978C9.47328 15.7978 9.84265 15.7978 10.113 15.7978V18.0467C10.113 18.0467 10.113 18.133 10.113 18.1406C10.113 18.303 9.92473 18.3005 9.92473 18.3005L9.92715 18.298ZM17.1504 18.171C17.1504 18.171 17.1311 18.1787 17.1142 18.1812C16.2064 18.3792 15.4677 18.4376 14.8183 18.303C14.3282 18.2015 14.0288 17.8969 13.8116 17.4451L12.0371 14.257C12.0033 14.1783 11.9285 14.1276 11.8488 14.1276H10.5307V11.6198C11.1077 11.4421 11.9164 10.9928 12.3341 10.508C12.9738 9.76176 13.4567 8.84037 13.8043 7.68799C13.8816 7.43417 13.9492 7.4164 14.0385 7.41894C14.5744 7.42909 15.1176 7.42655 15.6439 7.42655C15.9578 7.42655 16.274 7.42655 16.5879 7.42655C16.6627 7.42655 16.711 7.43163 16.74 7.43417C16.7351 7.46716 16.7206 7.51793 16.6965 7.59915C16.1557 9.32771 15.2697 10.8024 14.0602 11.9827C13.8888 12.1503 13.7416 12.366 13.9419 12.7087C14.2582 13.2493 14.5744 13.8027 14.881 14.3383C15.149 14.8078 15.4291 15.2952 15.7067 15.7698C15.8564 16.0262 16.2475 16.6938 17.0152 16.4476L17.02 16.5161C17.0345 16.676 17.0466 16.8283 17.0586 16.9755C17.09 17.3461 17.119 17.6939 17.1504 18.105C17.1528 18.138 17.1504 18.1558 17.1504 18.166V18.171Z" fill="black"/>
</g>
</g>
<defs>
<clipPath id="clip0_5510_41574">
<rect width="11" height="13" fill="white" transform="translate(7 6)"/>
</clipPath>
<clipPath id="clip1_5510_41574">
<rect width="10.253" height="11.8182" fill="white" transform="translate(7.3125 6.98486)"/>
</clipPath>
</defs>
</svg>
