<svg width="16" height="14" viewBox="0 0 16 14" fill="none" xmlns="http://www.w3.org/2000/svg">
<path d="M16 3.50049C16 2.68799 15.3125 2.00049 14.5 2.00049H11.75L11.3438 1.00049C11.125 0.406738 10.5625 0.000488281 9.9375 0.000488281H6.03125C5.40625 0.000488281 4.84375 0.406738 4.625 1.00049L4.25 2.00049H1.5C0.65625 2.00049 0 2.68799 0 3.50049V12.5005C0 13.3442 0.65625 14.0005 1.5 14.0005H14.5C15.3125 14.0005 16 13.3442 16 12.5005V3.50049ZM11.75 8.00049C11.75 10.0942 10.0625 11.7505 8 11.7505C5.90625 11.7505 4.25 10.0942 4.25 8.00049C4.25 5.93799 5.90625 4.25049 8 4.25049C10.0625 4.25049 11.75 5.93799 11.75 8.00049ZM10.75 8.00049C10.75 6.50049 9.5 5.25049 8 5.25049C6.46875 5.25049 5.25 6.50049 5.25 8.00049C5.25 9.53174 6.46875 10.7505 8 10.7505C9.5 10.7505 10.75 9.53174 10.75 8.00049Z" fill="#542FDF"/>
</svg>
