<?xml version="1.0" encoding="UTF-8"?>
<svg id="Camada_2"
xmlns="http://www.w3.org/2000/svg"
viewBox="0 0 74 64.75">
<g id="Camada_1-2">
<path d="m74,34.11v3.47c0,.96-.78,1.73-1.73,1.73h-2.89v6.94c0,4.64-2.28,8.75-5.78,11.27v5.5c0,.96-.78,1.73-1.73,1.73h-3.47c-.96,0-1.73-.78-1.73-1.73v-2.94c-.38.03-.77.05-1.16.05H18.5c-.39,0-.77-.02-1.16-.05v2.94c0,.96-.78,1.73-1.73,1.73h-3.47c-.96,0-1.73-.78-1.73-1.73v-5.5c-3.5-2.52-5.78-6.63-5.78-11.27v-6.94H1.73c-.96,0-1.73-.78-1.73-1.73v-3.47c0-.96.78-1.73,1.73-1.73h2.89V11.56C4.62,5.19,9.81,0,16.19,0c3.93,0,7.41,1.98,9.5,4.98,3.16-.88,6.68-.16,9.28,2.22.68-.6,1.72-.58,2.37.07l1.64,1.64c.68.68.68,1.78,0,2.45l-13.73,13.73c-.68.68-1.78.68-2.45,0l-1.64-1.64c-.65-.65-.67-1.69-.07-2.37-3.11-3.39-3.37-8.36-.99-12-.82-1.29-2.26-2.15-3.9-2.15-2.55,0-4.62,2.07-4.62,4.62v20.81h60.7c.96,0,1.73.78,1.73,1.73Zm-11.56,5.2H11.56v6.94c0,3.83,3.11,6.94,6.94,6.94h37c3.83,0,6.94-3.11,6.94-6.94v-6.94ZM25.17,16.99l5.69-5.69c-1.56-1.26-3.89-1.21-5.4.29-1.5,1.5-1.55,3.83-.29,5.4Z"/></g></svg>
