<svg width="55" height="55" viewBox="0 0 55 55" fill="none" xmlns="http://www.w3.org/2000/svg">
<path d="M18.2863 27.304C18.2863 22.2776 22.3623 18.2019 27.3916 18.2019C32.421 18.2019 36.4991 22.2776 36.4991 27.304C36.4991 32.3303 32.421 36.406 27.3916 36.406C22.3623 36.406 18.2863 32.3303 18.2863 27.304ZM13.363 27.304C13.363 35.0474 19.6436 41.3242 27.3916 41.3242C35.1397 41.3242 41.4203 35.0474 41.4203 27.304C41.4203 19.5606 35.1397 13.2837 27.3916 13.2837C19.6436 13.2837 13.363 19.5606 13.363 27.304ZM38.6972 12.7278C38.697 13.3758 38.889 14.0094 39.249 14.5483C39.609 15.0873 40.1209 15.5074 40.7199 15.7557C41.3188 16.0039 41.978 16.069 42.614 15.9429C43.25 15.8167 43.8343 15.5049 44.2929 15.0469C44.7516 14.5888 45.0641 14.0051 45.1909 13.3696C45.3176 12.7341 45.2529 12.0753 45.0051 11.4765C44.7572 10.8777 44.3372 10.3658 43.7982 10.0055C43.2592 9.64531 42.6254 9.45289 41.977 9.45263H41.9757C41.1065 9.45304 40.2731 9.79819 39.6584 10.4123C39.0437 11.0264 38.698 11.8592 38.6972 12.7278V12.7278ZM16.3542 49.5287C13.6906 49.4075 12.2428 48.9641 11.2807 48.5895C10.0052 48.0932 9.09509 47.5021 8.13822 46.5471C7.18135 45.5922 6.58905 44.6835 6.09466 43.4087C5.71961 42.4476 5.27592 41.0003 5.15484 38.3383C5.02239 35.4602 4.99594 34.5956 4.99594 27.3042C4.99594 20.0127 5.02458 19.1506 5.15484 16.2701C5.27614 13.6081 5.7231 12.1636 6.09466 11.1996C6.59123 9.92488 7.18266 9.01533 8.13822 8.05904C9.09378 7.10274 10.003 6.51079 11.2807 6.0167C12.2424 5.64187 13.6906 5.19846 16.3542 5.07744C19.234 4.94507 20.0991 4.91864 27.3916 4.91864C34.6842 4.91864 35.5501 4.94726 38.4323 5.07744C41.096 5.19867 42.5413 5.64537 43.5058 6.0167C44.7814 6.51079 45.6915 7.10405 46.6483 8.05904C47.6052 9.01402 48.1953 9.92488 48.6919 11.1996C49.0669 12.1607 49.5106 13.6081 49.6317 16.2701C49.7642 19.1506 49.7906 20.0127 49.7906 27.3042C49.7906 34.5956 49.7642 35.4578 49.6317 38.3383C49.5104 41.0003 49.0645 42.4472 48.6919 43.4087C48.1953 44.6835 47.6039 45.593 46.6483 46.5471C45.6928 47.5012 44.7814 48.0932 43.5058 48.5895C42.5442 48.9643 41.096 49.4077 38.4323 49.5287C35.5525 49.6611 34.6875 49.6875 27.3916 49.6875C20.0958 49.6875 19.2331 49.6611 16.3542 49.5287V49.5287ZM16.128 0.165353C13.2196 0.297722 11.2322 0.758613 9.49659 1.43357C7.69913 2.13058 6.17749 3.06569 4.65695 4.58292C3.13641 6.10014 2.20315 7.62327 1.50572 9.41965C0.830357 11.1553 0.36919 13.1404 0.236741 16.0471C0.102106 18.9583 0.0712891 19.8891 0.0712891 27.304C0.0712891 34.7188 0.102106 35.6496 0.236741 38.5608C0.36919 41.4677 0.830357 43.4526 1.50572 45.1883C2.20315 46.9836 3.13663 48.5084 4.65695 50.025C6.17728 51.5416 7.69913 52.4754 9.49659 53.1744C11.2355 53.8493 13.2196 54.3102 16.128 54.4426C19.0425 54.5749 19.9723 54.6079 27.3916 54.6079C34.811 54.6079 35.7423 54.5771 38.6553 54.4426C41.5639 54.3102 43.55 53.8493 45.2867 53.1744C47.083 52.4754 48.6058 51.5422 50.1263 50.025C51.6468 48.5078 52.5781 46.9836 53.2776 45.1883C53.9529 43.4526 54.4163 41.4675 54.5465 38.5608C54.679 35.6474 54.7098 34.7188 54.7098 27.304C54.7098 19.8891 54.679 18.9583 54.5465 16.0471C54.4141 13.1402 53.9529 11.1542 53.2776 9.41965C52.5781 7.62436 51.6444 6.10254 50.1263 4.58292C48.6082 3.06329 47.083 2.13058 45.2889 1.43357C43.55 0.758613 41.5637 0.295538 38.6574 0.165353C35.7444 0.0329832 34.8131 0 27.3938 0C19.9745 0 19.0425 0.0307989 16.128 0.165353Z" fill="white"/>
</svg>
