<svg width="26" height="25" viewBox="0 0 26 25" fill="none" xmlns="http://www.w3.org/2000/svg">
<g clip-path="url(#clip0_5147_41711)">
<path fill-rule="evenodd" clip-rule="evenodd" d="M13 0C6.10753 0 0.5 5.60753 0.5 12.5C0.5 19.392 6.10753 25 13 25C19.892 25 25.5 19.392 25.5 12.5C25.5 5.60753 19.893 0 13 0ZM20.109 11.0413V16.8619C20.109 18.3779 18.8764 19.61 17.3614 19.61H8.63865C7.1231 19.61 5.89102 18.3779 5.89102 16.8619V11.0413V8.13915C5.89102 6.6236 7.1231 5.39153 8.63865 5.39153H17.3609C18.8764 5.39153 20.109 6.6236 20.109 8.13915V11.0413ZM18.464 7.34098V9.43858L16.0618 9.44664L16.0538 7.03636L18.1503 7.02982L18.464 7.02881V7.34098ZM15.5029 12.5C15.5029 13.8801 14.3786 15.0024 12.9995 15.0024C11.6199 15.0024 10.4966 13.8796 10.4981 12.4995C10.4986 11.9547 10.6753 11.4517 10.9714 11.0408C11.4271 10.4104 12.1657 9.99756 13.001 9.99756C13.8358 9.99756 14.575 10.4109 15.0296 11.0413C15.3247 11.4522 15.5029 11.9552 15.5029 12.5ZM13 16.3885C15.1444 16.3885 16.8886 14.6433 16.8886 12.4999C16.8886 11.9843 16.7844 11.4914 16.5996 11.0413H18.7228V16.8618C18.7228 17.614 18.1111 18.2232 17.3604 18.2232H8.63816C7.88643 18.2232 7.27568 17.614 7.27568 16.8618V11.0413H9.39795C9.21467 11.4914 9.11196 11.9843 9.11196 12.4999C9.11196 14.6433 10.8556 16.3885 13 16.3885Z" fill="#FEFFFF"/>
</g>
<defs>
<clipPath id="clip0_5147_41711">
<rect width="25" height="25" fill="white" transform="translate(0.5)"/>
</clipPath>
</defs>
</svg>
