<svg width="50" height="62" viewBox="0 0 50 62" fill="none" xmlns="http://www.w3.org/2000/svg">
<g clip-path="url(#clip0_5135_41539)">
<path d="M25.5218 57.7202V55.0535C25.5218 53.9069 21.7485 50.6269 20.8151 49.1735C20.2285 48.2669 16.1885 36.6935 16.1885 36.6935C16.1885 35.3602 19.4551 33.7469 21.5885 36.6935L25.0685 42.0935L26.8551 40.3869V20.3869C26.8551 19.6796 27.1361 19.0014 27.6362 18.5013C28.1363 18.0012 28.8146 17.7202 29.5218 17.7202V17.7202C30.2291 17.7202 30.9073 18.0012 31.4074 18.5013C31.9075 19.0014 32.1885 19.6796 32.1885 20.3869V29.7202H34.8551C35.3692 29.7382 35.8735 29.8666 36.3336 30.0967C36.7937 30.3267 37.1989 30.6531 37.5218 31.0535H40.1885C40.8863 31.083 41.5476 31.3734 42.0414 31.8673C42.5353 32.3611 42.8257 33.0224 42.8551 33.7202H45.5218C46.2196 33.7497 46.8809 34.0401 47.3748 34.5339C47.8686 35.0278 48.159 35.6891 48.1885 36.3869V49.7202C48.1885 52.3869 45.5218 54.5869 45.5218 56.3869V57.7202" stroke="#542FDF" stroke-width="2.66667" stroke-miterlimit="10"/>
<path d="M37.5215 31.0532V37.7199" stroke="#542FDF" stroke-width="2.66667" stroke-miterlimit="10"/>
<path d="M42.8555 33.7202V39.0535" stroke="#542FDF" stroke-width="2.66667" stroke-miterlimit="10"/>
<path d="M48.1888 61.7202V57.7202H22.8555V61.7202" stroke="#542FDF" stroke-width="2.66667" stroke-miterlimit="10"/>
<path d="M34.8547 16.3067C35.43 15.1582 35.8171 13.9247 36.0014 12.6534C36.3393 10.9228 36.2098 9.13337 35.6262 7.46944C35.0427 5.80551 34.0262 4.32719 32.6814 3.18671C31.6079 2.41272 30.389 1.86385 29.0979 1.57311C27.8068 1.28238 26.4703 1.25578 25.1687 1.49493C23.8671 1.73408 22.6273 2.23403 21.5239 2.96471C20.4205 3.69538 19.4763 4.64169 18.748 5.74671C18.0198 4.63786 17.0743 3.68818 15.9687 2.95504C14.8631 2.22191 13.6203 1.72055 12.3155 1.48127C11.0107 1.24199 9.67086 1.26975 8.37706 1.56288C7.08326 1.856 5.86232 2.40841 4.78803 3.18671C3.44322 4.32719 2.42671 5.80551 1.84316 7.46944C1.25962 9.13337 1.13013 10.9228 1.46803 12.6534C2.36136 18.4534 7.04136 22.5467 18.8014 31.08C20.8147 29.6134 22.6147 28.28 24.228 27.08" stroke="#542FDF" stroke-width="2.66667" stroke-miterlimit="10"/>
</g>
<defs>
<clipPath id="clip0_5135_41539">
<rect width="49.52" height="61.72" fill="white"/>
</clipPath>
</defs>
</svg>
