<svg width="56" height="55" viewBox="0 0 56 55" fill="none" xmlns="http://www.w3.org/2000/svg">
<path fill-rule="evenodd" clip-rule="evenodd" d="M4.74813 0C2.51853 0 0.709839 1.75362 0.709839 3.91407V50.7279C0.709839 52.8886 2.51874 54.6407 4.74813 54.6407H51.3122C53.5427 54.6407 55.3505 52.8883 55.3505 50.7273V3.91407C55.3505 1.75362 53.5427 0 51.3122 0H4.74813ZM17.3142 21.1278V45.7272H9.13771V21.1278H17.3142ZM17.8531 13.5201C17.8531 15.8808 16.0784 17.7697 13.2277 17.7697L13.1741 17.7695C10.4299 17.7695 8.65576 15.8806 8.65576 13.5199C8.65576 11.1057 10.4834 9.26947 13.2819 9.26947C16.0784 9.26947 17.7998 11.1057 17.8531 13.5201ZM30.0158 45.7272H21.84C21.84 45.7272 21.9471 23.4363 21.8404 21.1286H30.0164V24.6106C31.1033 22.9348 33.0485 20.5511 37.3855 20.5511C42.7648 20.5511 46.798 24.0671 46.798 31.6226V45.7272H38.6223V32.5686C38.6223 29.2613 37.4384 27.0057 34.4805 27.0057C32.2213 27.0057 30.876 28.5269 30.2852 29.9964C30.0691 30.5209 30.0158 31.257 30.0158 31.9912V45.7272Z" fill="white"/>
</svg>
