<svg width="33" height="28" viewBox="0 0 33 28" fill="none" xmlns="http://www.w3.org/2000/svg">
<path d="M31.75 14H4.5V4.5C4.5 3.125 5.5625 2 7 2C8 2 8.9375 2.6875 9.3125 3.625C8.125 5.125 8.1875 7.1875 9.4375 8.625C9.1875 8.875 9.1875 9.25 9.4375 9.5L10 10.0625C10.25 10.3125 10.625 10.3125 10.875 10.0625L16.5 4.4375C16.75 4.1875 16.75 3.8125 16.5 3.5625L15.9375 3C15.6875 2.75 15.3125 2.75 15.0625 3C13.9375 2 12.25 1.75 10.875 2.375C10.125 1 8.6875 0 7 0C4.5 0 2.5 2.0625 2.5 4.5V14H1.25C0.8125 14 0.5 14.375 0.5 14.75V15.25C0.5 15.6875 0.8125 16 1.25 16H2.5V20C2.5 21.8125 3.25 23.375 4.5 24.5V27.25C4.5 27.6875 4.8125 28 5.25 28H5.75C6.125 28 6.5 27.6875 6.5 27.25V25.6875C7 25.875 7.875 26 8.4375 26H8.5H24.5C25.0625 26 25.9375 25.875 26.5 25.6875V27.25C26.5 27.6875 26.8125 28 27.25 28H27.75C28.125 28 28.5 27.6875 28.5 27.25V24.5C29.6875 23.375 30.5 21.8125 30.5 20V16H31.75C32.125 16 32.5 15.6875 32.5 15.25V14.75C32.5 14.375 32.125 14 31.75 14ZM11.0625 4.625C11.75 3.9375 12.875 3.8125 13.6875 4.4375L10.875 7.25C10.3125 6.4375 10.375 5.3125 11.0625 4.625ZM28.5 20C28.5 22.25 26.6875 24 24.5 24H8.5C6.25 24 4.5 22.25 4.5 20V16H28.5V20Z" fill="#333333"/>
</svg>
