<svg width="26" height="25" viewBox="0 0 26 25" fill="none" xmlns="http://www.w3.org/2000/svg">
<g clip-path="url(#clip0_5147_41701)">
<path fill-rule="evenodd" clip-rule="evenodd" d="M13 0C6.09642 0 0.5 5.59642 0.5 12.5C0.5 19.4036 6.09642 25 13 25C19.9036 25 25.5 19.4036 25.5 12.5C25.5 5.59642 19.9036 0 13 0ZM14.3903 5.84655H15.2396V9.30742C15.2396 9.50716 15.2396 9.61074 15.2499 9.63862C15.2685 9.77059 15.3355 9.83811 15.4496 9.83811C15.6199 9.83811 15.7987 9.70614 15.9877 9.43939V5.84655H16.8394V10.5471H15.9877V10.0345C15.6486 10.4233 15.3253 10.6118 15.0146 10.6118C14.7404 10.6118 14.5512 10.5005 14.4657 10.2627C14.4187 10.1202 14.3903 9.8954 14.3903 9.56368V5.84655ZM11.1734 7.37928C11.1734 6.87673 11.2588 6.50946 11.4399 6.27187C11.6754 5.95038 12.0072 5.78977 12.4317 5.78977C12.8583 5.78977 13.1898 5.95038 13.4253 6.27187C13.6038 6.50921 13.6893 6.87673 13.6893 7.37928V9.02532C13.6893 9.52506 13.6038 9.89565 13.4253 10.1307C13.1898 10.4514 12.8583 10.6118 12.4317 10.6118C12.0072 10.6118 11.6754 10.4514 11.4399 10.1307C11.2588 9.89565 11.1734 9.52481 11.1734 9.02532V7.37928ZM8.89565 4.23939L9.56624 6.71637L10.2105 4.23939H11.1657L10.0294 7.99258V10.5473H9.08517V7.99258C8.99949 7.5399 8.81049 6.87673 8.50742 5.99693C8.40679 5.70087 8.304 5.40434 8.20124 5.10789L8.20117 5.10769C8.10076 4.81802 8.00037 4.52842 7.90205 4.23939H8.89565ZM19.7292 19.1972C19.5583 19.9386 18.9519 20.4859 18.2217 20.5675C16.4921 20.7606 14.7425 20.7616 12.9992 20.7606C11.2568 20.7616 9.50614 20.7606 7.77698 20.5675C7.0468 20.4859 6.44015 19.9389 6.26982 19.1972C6.0266 18.1412 6.0266 16.988 6.0266 15.9005C6.0266 14.813 6.02967 13.6601 6.27263 12.6038C6.44322 11.8621 7.04936 11.3148 7.77954 11.2335C9.50895 11.0404 11.2593 11.0394 13.0023 11.0404C14.7448 11.0394 16.4951 11.0404 18.2246 11.2335C18.9547 11.3151 19.5614 11.8621 19.7325 12.6038C19.9734 13.6535 19.9734 14.7986 19.9734 15.8801V15.9005C19.9734 16.988 19.9724 18.1412 19.7292 19.1972ZM12.8379 9.1853C12.8379 9.62008 12.7062 9.83773 12.4318 9.83773C12.1571 9.83773 12.0251 9.62034 12.0251 9.1853V7.20806C12.0251 6.77328 12.1571 6.5564 12.4318 6.5564C12.7062 6.5564 12.8379 6.77302 12.8379 7.20806V9.1853ZM8.0579 13.4225H7.06685V12.5439H10.005V13.4225H8.9955V18.7864H8.0579V13.4225ZM14.1235 14.5828C14.3953 14.2478 14.6846 14.0785 14.9946 14.0785C15.3296 14.0785 15.5557 14.2549 15.668 14.6038C15.7245 14.7907 15.7534 15.0982 15.7534 15.5386V17.3907C15.7534 17.8212 15.7245 18.1309 15.668 18.3281C15.5554 18.6744 15.3299 18.8509 14.9946 18.8509C14.6946 18.8509 14.4056 18.6841 14.1235 18.336V18.7867H13.2808V12.5439H14.1235V14.5828ZM14.5434 18.0844C14.7869 18.0844 14.9102 17.8772 14.9102 17.4567V15.4716C14.9102 15.0521 14.7866 14.8368 14.5434 14.8368C14.4051 14.8368 14.2641 14.9028 14.1232 15.0422V17.8769C14.2641 18.0181 14.4051 18.0844 14.5434 18.0844ZM11.7081 17.6896C11.5211 17.9538 11.3444 18.084 11.1751 18.084C11.0625 18.084 10.9983 18.0178 10.9779 17.8868C10.9702 17.8597 10.9702 17.7569 10.9702 17.5595V14.1349H10.1272V17.8124C10.1272 18.141 10.1556 18.363 10.2017 18.5042C10.2863 18.74 10.4735 18.8505 10.7446 18.8505C11.0549 18.8505 11.373 18.6633 11.7081 18.2792V18.7866H12.5515V14.1349H11.7081V17.6896ZM16.6697 14.5551C16.9132 14.2367 17.248 14.0784 17.6792 14.0784C18.1022 14.0784 18.4375 14.2369 18.673 14.5546C18.8498 14.7899 18.9339 15.1536 18.9339 15.6505V16.6139H17.248V17.439C17.248 17.8692 17.3897 18.084 17.6792 18.084C17.8866 18.084 18.0078 17.9715 18.0559 17.7461C18.0633 17.7004 18.0743 17.5129 18.0743 17.1753H18.9339V17.2978C18.9339 17.5697 18.9239 17.7566 18.916 17.841C18.8879 18.0277 18.8214 18.1968 18.7191 18.3461C18.4858 18.684 18.1403 18.8505 17.7001 18.8505C17.2592 18.8505 16.9234 18.6917 16.6802 18.374C16.5006 18.141 16.4093 17.7748 16.4093 17.2804V15.651C16.4093 15.1541 16.4909 14.7904 16.6697 14.5551ZM17.2485 15.9126H18.0914V15.4822C18.0914 15.0523 17.9503 14.8369 17.6715 14.8369C17.3899 14.8369 17.2485 15.052 17.2485 15.4822V15.9126Z" fill="#FEFFFF"/>
</g>
<defs>
<clipPath id="clip0_5147_41701">
<rect width="25" height="25" fill="white" transform="translate(0.5)"/>
</clipPath>
</defs>
</svg>
