<?xml version="1.0" encoding="UTF-8"?>
<svg id="b" data-name="Camada 2" xmlns="http://www.w3.org/2000/svg" xmlns:xlink="http://www.w3.org/1999/xlink" viewBox="0 0 55.44 55.44">
  <defs>
    <style>
      .e {
        clip-path: url(#d);
      }

      .f {
        fill: #01ff5f;
      }

      .g {
        fill: none;
      }
    </style>
    <clipPath id="d">
      <rect class="g" x="16.32" y="16.22" width="22.52" height="24.12"/>
    </clipPath>
  </defs>
  <g id="c" data-name="Camada 1">
    <path class="f" d="m0,0h55.44v55.44H0V0Z"/>
    <g class="e">
      <path d="m38.84,38.86c-.07-.84-.13-1.56-.2-2.32-.03-.3-.06-.61-.08-.95l-.05-.46c-.04-.3-.2-.43-.3-.49-.2-.12-.41-.08-.5-.05l-.23.06s-.02,0-.03.01c-.78.26-1.3,0-1.91-.97-.61-.97-1.22-1.96-1.81-2.92-.67-1.09-1.37-2.23-2.07-3.34-.07-.11-.07-.16-.08-.16,0-.01.03-.06.18-.2,2.77-2.51,4.8-5.65,6.04-9.32.14-.42.25-.84.01-1.17-.24-.33-.68-.35-1.11-.36h-2.08c-1.15,0-2.34,0-3.51-.02-1.01-.02-1.29.84-1.4,1.17-.73,2.23-1.72,4-3.04,5.43-.65.7-2.05,1.52-3.24,1.97v-7.26c0-.33-.03-.74-.32-1.02-.29-.27-.69-.3-.97-.3h-4.58c-.28,0-.67.03-.95.31-.27.27-.3.66-.3.92.01.87.01,1.76,0,2.62v1.65c0,1.19.24,1.42,1.5,1.42h.07c1.26,0,3.23.01,4.57,0v1.66h-4.87c-.28,0-.68.02-.97.31-.21.21-.31.51-.31.91.02,1.5.02,3.09,0,4.57,0,.36.1.64.3.84.22.21.52.3.92.3h4.93v1.6h-2.05c-.92,0-2.02,0-2.81-.01-.29,0-.7.02-.99.3-.21.2-.31.5-.31.9.02,1.4.02,2.86,0,4.51,0,.41.1.71.31.91.27.26.63.3.91.3h.06c1.09-.02,1.9-.02,2.73-.02h1.43c1.42,0,1.63-.21,1.63-1.58v-6.91h2.6l.14.2,3.68,6.08h0c.69,1.16,1.48,1.95,2.82,2.21.63.12.93.13,1.7.13,1.15,0,2.42-.13,3.71-.39.73-.15.84-.67.81-1.09h-.01Zm-20.94-16.61h-.27c-.44,0-.39-.39-.39-.39v-1.78c0-.86,0-1.75,0-2.63,0-.35.33-.32.33-.32h4.58s.32-.03.32.21v4.92h-4.57Zm-.37,8.58c-.31,0-.3-.24-.3-.24.01-1.5.02-3.09,0-4.6,0,0-.06-.32.36-.32h4.87v5.14h-4.94Zm4.53,8.49h-1.73c-.83,0-1.65.02-2.75.02-.35,0-.35-.31-.35-.31.02-1.65.02-3.12,0-4.53,0,0,.02-.29.36-.29.79,0,1.9.02,2.83.01h2.05v4.78c0,.33-.41.33-.41.33h0Zm15.87-.26s-.04.02-.08.02c-1.99.4-3.62.52-5.04.25-1.08-.21-1.73-.83-2.21-1.75l-3.9-6.51c-.07-.16-.24-.26-.41-.26h-2.9v-5.12c1.27-.36,3.04-1.28,3.96-2.27,1.41-1.52,2.47-3.4,3.23-5.76.17-.52.32-.55.51-.55,1.18.02,2.37.02,3.53.02h2.07c.16,0,.27.01.33.02-.01.07-.04.17-.1.34-1.19,3.53-3.13,6.54-5.79,8.95-.38.34-.7.78-.26,1.48.69,1.1,1.39,2.23,2.06,3.33.59.96,1.2,1.95,1.81,2.92.33.52,1.19,1.89,2.87,1.38v.14c.04.33.07.64.1.94.07.76.13,1.47.2,2.31,0,.07,0,.1,0,.12h0Z"/>
    </g>
  </g>
</svg>