<?xml version="1.0" encoding="UTF-8"?>
<svg id="a" data-name="Camada 1" xmlns="http://www.w3.org/2000/svg" xmlns:xlink="http://www.w3.org/1999/xlink" viewBox="0 0 189.5 55.44">
  <defs>
    <style>
      .c {
        fill: #fff;
      }

      .d {
        clip-path: url(#b);
      }

      .e {
        fill: #01ff5f;
      }

      .f {
        fill: none;
      }
    </style>
    <clipPath id="b">
      <rect class="f" x="16.32" y="16.22" width="22.52" height="24.12"/>
    </clipPath>
  </defs>
  <path class="e" d="m0,0h55.44v55.44H0V0Z"/>
  <path class="c" d="m70.43,26.96h-1.68c-.31,0-.56.25-.56.56v10.69c0,.31.25.56.56.56h1.68c.31,0,.56-.25.56-.56v-10.69c0-.31-.25-.56-.56-.56Z"/>
  <path class="c" d="m87.85,26.66c-2.24,0-3.96,1.57-4.28,1.89-.86-1.21-2.09-1.89-3.81-1.89-.73,0-1.45.15-2.11.44-.67.28-1.28.7-1.78,1.22l-.33-1c-.03-.11-.1-.2-.19-.26-.09-.06-.2-.1-.31-.09h-.83c-.15,0-.29.07-.39.17-.1.1-.16.24-.17.39v10.7c0,.15.07.29.17.39.1.1.24.16.39.17h1.65c.15,0,.29-.06.39-.17.1-.1.16-.24.17-.39v-7.21c.28-.53.7-.97,1.22-1.29s1.1-.48,1.7-.49c1.65,0,2.51,1.03,2.51,2.92v6.06c0,.15.06.29.16.4.11.11.25.16.4.16h1.56c.15,0,.29-.06.39-.17.1-.1.16-.24.17-.39v-6.12c.01-.47-.02-.95-.09-1.42.21-.18,1.24-1.45,3.04-1.45,1.59,0,2.45,1.06,2.45,2.92v6.06c0,.15.06.29.16.4.11.11.25.16.4.16h1.65c.15,0,.29-.06.4-.16.11-.11.16-.25.16-.4v-5.94c0-3.07-1.26-5.61-4.86-5.61Z"/>
  <path class="c" d="m100.32,26.66c-3.32,0-5.97,2.84-5.97,6.17s2.66,6.23,5.97,6.23,5.96-2.84,5.96-6.23-2.65-6.17-5.96-6.17Zm0,9.87c-1.86,0-3.34-1.65-3.34-3.69s1.48-3.6,3.34-3.6,3.34,1.62,3.34,3.6-1.48,3.69-3.34,3.69Z"/>
  <path class="c" d="m117.62,26.96h-1.36c-.32,0-.65,0-.8.33l-3.19,6.97h-.03l-3.07-6.97c-.05-.1-.12-.19-.22-.25-.1-.06-.21-.09-.32-.08h-1.74c-.44,0-.62.3-.44.68l5.23,11.13c.05.09.12.17.21.23.09.05.19.08.3.07h.15c.11,0,.21-.02.3-.07.09-.05.16-.13.21-.23l5.23-11.13c.18-.39,0-.68-.44-.68Z"/>
  <path class="c" d="m124.18,26.66c-3.54,0-5.91,2.87-5.91,6.2s2.36,6.2,5.93,6.2c1.58.03,3.13-.49,4.37-1.48.07-.04.12-.09.17-.15.04-.06.07-.14.07-.21s0-.15-.04-.22c-.03-.07-.08-.13-.14-.18l-.83-1.12c-.24-.3-.44-.18-.8.03-.78.52-1.69.82-2.63.86-.86,0-1.69-.33-2.32-.92-.63-.59-1.01-1.39-1.08-2.24h8.04c.13,0,.26-.05.36-.14.1-.09.16-.21.17-.34.04-.26.06-.53.06-.8.02-.72-.1-1.44-.37-2.11-.26-.67-.66-1.28-1.17-1.8-.51-.51-1.12-.92-1.79-1.19-.67-.27-1.39-.4-2.11-.39Zm-3.04,4.9c.09-.73.45-1.41,1-1.89.56-.49,1.27-.75,2.01-.74.7.02,1.36.3,1.87.79.5.49.8,1.14.84,1.84h-5.73Z"/>
  <path class="c" d="m133.51,26.96h-1.68c-.31,0-.56.25-.56.56v10.69c0,.31.25.56.56.56h1.68c.31,0,.56-.25.56-.56v-10.69c0-.31-.25-.56-.56-.56Z"/>
  <path class="c" d="m140.54,31.53c-1.15-.5-1.89-.83-1.89-1.59,0-.44.33-.89,1.33-.89.84.06,1.65.27,2.41.62.13.06.29.07.43.03.14-.04.26-.14.34-.26l.53-1c.07-.15.09-.32.05-.47-.04-.16-.15-.29-.29-.38-1.06-.62-2.26-.93-3.49-.9-2.84,0-4.04,1.77-4.04,3.25,0,1.95,1.54,3.07,3.37,3.87,1.62.74,2.27,1.12,2.27,1.92,0,.65-.56,1-1.45,1-.96-.04-1.9-.3-2.75-.77-.06-.04-.12-.07-.19-.09-.07-.02-.14-.02-.21,0-.07.01-.13.04-.19.08-.06.04-.11.09-.14.15l-.62,1.15c-.05.11-.05.22-.02.33.03.11.1.21.2.27.62.5,1.92,1.21,3.9,1.21,2.63,0,4.37-1.62,4.37-3.46.01-2.2-1.76-3.12-3.92-4.07Z"/>
  <path class="c" d="m153.1,36.17c-.02-.07-.05-.14-.1-.19-.05-.05-.11-.1-.17-.12-.07-.03-.14-.04-.21-.03-.07,0-.14.03-.2.07-.56.3-1.18.48-1.81.53-.56,0-.95-.18-.95-1.18v-5.85h3.01c.15,0,.29-.06.4-.16.1-.11.16-.25.17-.4v-1.34c0-.07-.01-.14-.04-.21-.03-.07-.07-.13-.12-.18-.05-.05-.11-.09-.18-.12-.07-.03-.14-.04-.21-.04h-3.01v-3.32c0-.14-.05-.28-.15-.39-.1-.1-.23-.17-.38-.17l-1.68.03c-.15,0-.29.07-.39.17-.1.1-.16.24-.17.39v3.29h-1.24c-.07,0-.15,0-.22.03-.07.03-.13.07-.19.12-.05.05-.1.12-.12.18-.03.07-.04.14-.04.22v1.33c0,.15.06.29.16.4.11.11.25.16.4.17h1.24v6.15c0,2.11.68,3.51,3.01,3.51,1.2-.06,2.38-.36,3.46-.89.07-.02.13-.06.18-.11s.09-.11.12-.18c.03-.07.04-.14.03-.21,0-.07-.03-.14-.06-.2l-.53-1.3Z"/>
  <path class="c" d="m160.23,26.66c-3.32,0-5.96,2.84-5.96,6.17s2.66,6.23,5.96,6.23,5.97-2.84,5.97-6.23c.01-3.34-2.65-6.17-5.97-6.17Zm0,9.87c-1.86,0-3.34-1.65-3.34-3.69s1.48-3.6,3.34-3.6,3.34,1.62,3.34,3.6c.01,2.04-1.46,3.69-3.34,3.69Z"/>
  <path class="c" d="m177.64,35.76l-.8-.65c-.05-.05-.12-.09-.19-.12-.07-.03-.15-.04-.22-.03s-.15.03-.21.06c-.07.04-.12.09-.17.14-.62.6-1.24,1.36-2.75,1.36-1.92,0-3.39-1.62-3.39-3.66s1.51-3.62,3.42-3.62c.45.01.89.12,1.3.31.41.19.77.47,1.06.81.24.21.44.44.8.12l.97-.88c.06-.05.12-.1.16-.17.04-.07.07-.14.08-.22.01-.08,0-.16-.01-.23-.02-.08-.06-.15-.1-.21-.5-.67-1.14-1.21-1.89-1.57-.74-.37-1.57-.55-2.4-.54-1.64.02-3.21.69-4.37,1.85-1.16,1.17-1.81,2.74-1.83,4.38,0,.81.15,1.62.46,2.37.31.75.76,1.43,1.34,2.01.57.57,1.26,1.03,2.01,1.34.75.31,1.55.47,2.37.46.91.02,1.82-.2,2.62-.63.8-.44,1.48-1.07,1.96-1.85.21-.3.09-.59-.21-.83Z"/>
  <path class="c" d="m189.36,36.43l-.39.16c-.1.04-.2.06-.3.06-.34,0-.57-.3-1.22-1.29l-.13-.2c-.45-.67-1.28-1.95-1.83-2.88,1.43-1.27,2.51-2.89,3.13-4.7.04-.1.04-.2.03-.3-.01-.1-.05-.2-.11-.28-.06-.08-.14-.15-.23-.2-.09-.05-.2-.07-.3-.07h-1.51c-.13,0-.26.05-.37.13-.11.08-.19.19-.23.31-.61,1.92-1.91,3.55-3.66,4.57v-4.59c0-.17-.07-.34-.19-.46-.12-.12-.29-.19-.46-.19h-1.37c-.17,0-.34.07-.46.19-.12.12-.19.29-.19.46v10.92c0,.17.07.34.19.46.12.12.29.19.46.19h1.38c.17,0,.33-.07.46-.19.12-.12.19-.29.19-.46v-3.53c.39-.18.77-.38,1.14-.6.27.45.58.93.87,1.4.37.6.73,1.16.99,1.59.79,1.45,1.48,1.94,2.73,1.94.34,0,.68-.03,1.02-.1.16-.03.3-.12.39-.25.1-.13.14-.29.12-.45l-.14-1.63Z"/>
  <path d="m69.27,22.75c-.33,0-.61-.1-.83-.29-.22-.2-.32-.48-.32-.83,0-.43.19-.76.58-.99.39-.23,1-.39,1.84-.49,0-.17-.02-.33-.07-.48-.04-.15-.12-.27-.24-.36-.11-.1-.28-.15-.49-.15-.23,0-.44.04-.64.13-.2.09-.38.18-.54.29l-.26-.46c.18-.12.41-.23.67-.34.27-.11.56-.17.88-.17.48,0,.83.15,1.05.45.22.29.32.68.32,1.18v2.42h-.55l-.06-.47h-.02c-.18.15-.39.28-.61.4-.22.11-.45.17-.7.17Zm.19-.54c.19,0,.37-.05.54-.14s.35-.22.54-.39v-1.09c-.65.08-1.11.2-1.38.36-.26.16-.39.37-.39.62,0,.22.07.38.2.49.14.1.3.15.49.15Z"/>
  <path d="m74.19,22.75c-.18,0-.38-.04-.58-.13-.19-.09-.38-.22-.55-.37h-.02l-.06.41h-.54v-5.77h.67v1.57l-.02.71c.18-.16.37-.29.58-.39.22-.11.43-.16.65-.16.51,0,.9.18,1.17.54.26.36.4.85.4,1.46,0,.45-.08.83-.24,1.15-.16.32-.36.56-.62.73-.25.17-.53.25-.84.25Zm-.11-.56c.32,0,.59-.14.8-.41.22-.28.32-.66.32-1.15,0-.43-.08-.78-.24-1.05-.16-.27-.42-.41-.79-.41-.17,0-.34.05-.51.14-.17.09-.35.22-.54.4v2.07c.17.15.34.26.51.32.17.06.32.09.45.09Z"/>
  <path d="m76.93,22.66v-3.94h.55l.06.71h.02c.14-.25.3-.45.49-.59.19-.15.4-.22.62-.22.16,0,.3.03.42.08l-.13.58c-.06-.02-.12-.04-.18-.05-.05-.01-.12-.02-.2-.02-.17,0-.34.07-.53.2-.18.14-.34.37-.47.71v2.53h-.67Z"/>
  <path d="m79.74,22.66v-3.94h.67v3.94h-.67Zm.34-4.75c-.13,0-.24-.04-.32-.11-.08-.08-.12-.19-.12-.32s.04-.24.12-.32c.09-.08.19-.12.32-.12s.24.04.32.12c.09.08.13.19.13.32s-.04.24-.13.32c-.08.08-.19.11-.32.11Z"/>
  <path d="m81.74,22.66v-3.94h.55l.06.57h.02c.19-.19.39-.35.6-.47.21-.13.45-.19.72-.19.42,0,.72.13.91.4.19.26.29.64.29,1.14v2.5h-.67v-2.41c0-.37-.06-.64-.18-.8-.12-.17-.31-.25-.57-.25-.2,0-.38.05-.54.15-.16.1-.34.25-.54.45v2.85h-.67Z"/>
  <path d="m87.52,22.75c-.49,0-.89-.18-1.18-.54-.3-.36-.45-.87-.45-1.52,0-.43.08-.79.24-1.1.16-.31.37-.55.63-.72.26-.17.55-.25.84-.25.23,0,.42.04.59.12.17.08.34.19.51.33l-.03-.67v-1.52h.67v5.77h-.55l-.06-.46h-.02c-.15.15-.33.28-.54.4-.21.11-.42.16-.66.16Zm.15-.56c.35,0,.68-.18,1.01-.54v-2.06c-.17-.15-.33-.26-.49-.32-.15-.06-.31-.1-.47-.1-.21,0-.4.06-.58.19-.17.12-.3.3-.41.53-.1.22-.15.48-.15.79,0,.47.09.84.28,1.11.19.26.46.4.8.4Z"/>
  <path d="m92.21,22.75c-.32,0-.62-.08-.9-.24-.28-.16-.5-.4-.67-.71-.17-.31-.25-.68-.25-1.11s.08-.82.25-1.13c.17-.31.4-.54.67-.71.28-.16.58-.24.9-.24s.62.08.9.24c.28.16.5.4.67.71.17.31.26.68.26,1.13s-.09.8-.26,1.11c-.17.31-.39.54-.67.71-.28.16-.58.24-.9.24Zm0-.55c.34,0,.61-.14.82-.41.21-.28.32-.65.32-1.09s-.11-.82-.32-1.1c-.21-.28-.48-.42-.82-.42s-.61.14-.82.42c-.21.28-.32.65-.32,1.1s.11.81.32,1.09c.21.28.48.41.82.41Z"/>
  <path d="m96.69,22.66v-3.94h.55l.06.57h.02c.19-.19.39-.35.6-.47.21-.13.45-.19.72-.19.42,0,.72.13.91.4.19.26.29.64.29,1.14v2.5h-.67v-2.41c0-.37-.06-.64-.18-.8-.12-.17-.31-.25-.57-.25-.2,0-.38.05-.54.15-.16.1-.34.25-.54.45v2.85h-.67Z"/>
  <path d="m102.66,22.75c-.32,0-.62-.08-.9-.24-.28-.16-.5-.4-.67-.71-.17-.31-.25-.68-.25-1.11s.08-.82.25-1.13c.17-.31.4-.54.67-.71.28-.16.58-.24.9-.24s.62.08.9.24c.27.16.5.4.66.71.17.31.26.68.26,1.13s-.09.8-.26,1.11c-.17.31-.39.54-.66.71-.28.16-.58.24-.9.24Zm0-.55c.34,0,.61-.14.82-.41.21-.28.32-.65.32-1.09s-.11-.82-.32-1.1c-.21-.28-.48-.42-.82-.42s-.61.14-.82.42c-.21.28-.32.65-.32,1.1s.11.81.32,1.09c.21.28.48.41.82.41Z"/>
  <path d="m106.35,22.66l-1.42-3.94h.69l.75,2.24c.06.19.12.39.18.58.07.19.13.39.19.58h.03c.06-.19.12-.38.18-.58.07-.19.12-.39.18-.58l.75-2.24h.66l-1.39,3.94h-.78Z"/>
  <path d="m110.03,22.75c-.33,0-.6-.1-.83-.29-.22-.2-.32-.48-.32-.83,0-.43.19-.76.58-.99.39-.23,1-.39,1.84-.49,0-.17-.02-.33-.07-.48-.04-.15-.12-.27-.24-.36-.11-.1-.28-.15-.49-.15s-.44.04-.64.13c-.2.09-.38.18-.54.29l-.26-.46c.18-.12.41-.23.67-.34.27-.11.56-.17.88-.17.48,0,.83.15,1.05.45.22.29.33.68.33,1.18v2.42h-.55l-.06-.47h-.02c-.18.15-.39.28-.61.4-.22.11-.45.17-.7.17Zm.19-.54c.19,0,.37-.05.54-.14.17-.09.35-.22.53-.39v-1.09c-.65.08-1.11.2-1.38.36-.26.16-.39.37-.39.62,0,.22.07.38.2.49.14.1.3.15.5.15Z"/>
  <path d="m114.24,22.75c-.28,0-.55-.05-.8-.15-.25-.11-.48-.24-.67-.39l.33-.45c.17.14.35.25.54.34.18.09.39.13.62.13.26,0,.45-.06.58-.18.13-.12.19-.27.19-.44,0-.14-.05-.25-.14-.34-.09-.09-.2-.17-.34-.23-.13-.06-.28-.12-.42-.18-.18-.07-.36-.15-.54-.24-.18-.09-.32-.21-.44-.35-.11-.15-.17-.33-.17-.55,0-.32.12-.58.36-.79.24-.22.58-.32,1-.32.24,0,.47.04.68.13.21.09.39.19.54.32l-.32.42c-.14-.1-.28-.19-.42-.25-.15-.06-.31-.1-.48-.1-.25,0-.43.06-.55.17-.11.11-.17.25-.17.4,0,.12.04.23.12.31.08.08.19.14.32.2.13.05.27.11.41.17.19.07.38.15.56.24.18.09.33.21.45.36.12.15.19.34.19.59,0,.21-.06.41-.17.58-.11.18-.27.32-.49.43-.21.11-.47.16-.79.16Z"/>
  <path d="m118.23,24.32v-5.6h.55l.06.45h.03c.18-.15.37-.28.58-.39.22-.11.44-.16.67-.16.51,0,.89.18,1.16.55.26.36.4.85.4,1.46,0,.44-.08.82-.24,1.14-.16.32-.36.56-.62.73-.25.17-.53.25-.83.25-.18,0-.37-.04-.55-.12-.18-.08-.36-.19-.54-.33l.02.69v1.33h-.67Zm1.63-2.12c.32,0,.59-.14.8-.41.22-.28.32-.66.32-1.15,0-.43-.08-.78-.24-1.05-.16-.27-.42-.41-.79-.41-.17,0-.34.05-.51.14-.17.09-.35.22-.54.4v2.07c.18.15.35.26.52.32.17.06.32.09.45.09Z"/>
  <path d="m124.26,22.75c-.32,0-.62-.08-.9-.24-.28-.16-.5-.4-.67-.71-.17-.31-.25-.68-.25-1.11s.08-.82.25-1.13c.17-.31.4-.54.67-.71.28-.16.58-.24.9-.24s.62.08.9.24c.28.16.5.4.66.71.17.31.26.68.26,1.13s-.09.8-.26,1.11c-.17.31-.39.54-.66.71-.28.16-.58.24-.9.24Zm0-.55c.34,0,.61-.14.82-.41.21-.28.32-.65.32-1.09s-.11-.82-.32-1.1c-.21-.28-.48-.42-.82-.42s-.61.14-.82.42c-.21.28-.32.65-.32,1.1s.11.81.32,1.09c.21.28.48.41.82.41Z"/>
  <path d="m127.12,22.66v-3.94h.55l.06.71h.02c.14-.25.3-.45.5-.59.19-.15.4-.22.62-.22.16,0,.3.03.42.08l-.13.58c-.07-.02-.12-.04-.18-.05-.05-.01-.12-.02-.2-.02-.17,0-.34.07-.53.2-.18.14-.33.37-.47.71v2.53h-.67Z"/>
  <path d="m131.18,22.75c-.42,0-.72-.12-.88-.36-.16-.24-.24-.56-.24-.95v-2.18h-.58v-.5l.62-.04.08-1.1h.56v1.1h1.06v.54h-1.06v2.19c0,.24.04.43.13.57.09.13.25.19.48.19.07,0,.15-.01.23-.03.08-.03.15-.05.22-.07l.13.5c-.11.04-.23.07-.36.1-.12.03-.25.05-.37.05Z"/>
  <path d="m133.41,22.75c-.33,0-.61-.1-.83-.29-.22-.2-.32-.48-.32-.83,0-.43.19-.76.58-.99.39-.23,1-.39,1.84-.49,0-.17-.02-.33-.07-.48-.04-.15-.12-.27-.24-.36-.11-.1-.28-.15-.49-.15-.23,0-.44.04-.64.13-.2.09-.38.18-.54.29l-.26-.46c.18-.12.41-.23.67-.34.27-.11.56-.17.88-.17.48,0,.83.15,1.05.45.22.29.32.68.32,1.18v2.42h-.55l-.06-.47h-.03c-.18.15-.39.28-.61.4-.22.11-.45.17-.7.17Zm.19-.54c.19,0,.37-.05.54-.14.17-.09.35-.22.54-.39v-1.09c-.65.08-1.11.2-1.38.36-.26.16-.39.37-.39.62,0,.22.07.38.2.49.13.1.3.15.49.15Z"/>
  <path d="m137.62,22.75c-.28,0-.55-.05-.8-.15-.25-.11-.48-.24-.67-.39l.33-.45c.17.14.35.25.54.34.18.09.39.13.62.13.26,0,.46-.06.58-.18.13-.12.2-.27.2-.44,0-.14-.05-.25-.14-.34-.09-.09-.2-.17-.34-.23-.14-.06-.28-.12-.42-.18-.18-.07-.36-.15-.54-.24-.18-.09-.32-.21-.44-.35-.11-.15-.17-.33-.17-.55,0-.32.12-.58.36-.79.24-.22.58-.32,1.01-.32.24,0,.47.04.68.13s.39.19.54.32l-.32.42c-.14-.1-.28-.19-.42-.25-.15-.06-.31-.1-.48-.1-.25,0-.43.06-.55.17-.11.11-.17.25-.17.4,0,.12.04.23.12.31.08.08.19.14.32.2.13.05.27.11.41.17.19.07.38.15.56.24.18.09.33.21.45.36.12.15.19.34.19.59,0,.21-.06.41-.17.58-.11.18-.27.32-.49.43-.21.11-.47.16-.79.16Z"/>
  <g class="d">
    <path d="m38.84,38.86c-.07-.84-.13-1.56-.2-2.32-.03-.3-.06-.61-.08-.95l-.05-.46c-.04-.3-.2-.43-.3-.49-.2-.12-.41-.08-.5-.05l-.23.06s-.02,0-.03.01c-.78.26-1.3,0-1.91-.97-.61-.97-1.22-1.96-1.81-2.92-.67-1.09-1.37-2.23-2.07-3.34-.07-.11-.07-.16-.08-.16,0-.01.03-.06.18-.2,2.77-2.51,4.8-5.65,6.04-9.32.14-.42.25-.84.01-1.17-.24-.33-.68-.35-1.11-.36h-2.08c-1.15,0-2.34,0-3.51-.02-1.01-.02-1.29.84-1.4,1.17-.73,2.23-1.72,4-3.04,5.43-.65.7-2.05,1.52-3.24,1.97v-7.26c0-.33-.03-.74-.32-1.02-.29-.27-.69-.3-.97-.3h-4.58c-.28,0-.67.03-.95.31-.27.27-.3.66-.3.92.01.87.01,1.76,0,2.62v1.65c0,1.19.24,1.42,1.5,1.42h.07c1.26,0,3.23.01,4.57,0v1.66h-4.87c-.28,0-.68.02-.97.31-.21.21-.31.51-.31.91.02,1.5.02,3.09,0,4.57,0,.36.1.64.3.84.22.21.52.3.92.3h4.93v1.6h-2.05c-.92,0-2.02,0-2.81-.01-.29,0-.7.02-.99.3-.21.2-.31.5-.31.9.02,1.4.02,2.86,0,4.51,0,.41.1.71.31.91.27.26.63.3.91.3h.06c1.09-.02,1.9-.02,2.73-.02h1.43c1.42,0,1.63-.21,1.63-1.58v-6.91h2.6l.14.2,3.68,6.08h0c.69,1.16,1.48,1.95,2.82,2.21.63.12.93.13,1.7.13,1.15,0,2.42-.13,3.71-.39.73-.15.84-.67.81-1.09h-.01Zm-20.94-16.61h-.27c-.44,0-.39-.39-.39-.39v-1.78c0-.86,0-1.75,0-2.63,0-.35.33-.32.33-.32h4.58s.32-.03.32.21v4.92h-4.57Zm-.37,8.58c-.31,0-.3-.24-.3-.24.01-1.5.02-3.09,0-4.6,0,0-.06-.32.36-.32h4.87v5.14h-4.94Zm4.53,8.49h-1.73c-.83,0-1.65.02-2.75.02-.35,0-.35-.31-.35-.31.02-1.65.02-3.12,0-4.53,0,0,.02-.29.36-.29.79,0,1.9.02,2.83.01h2.05v4.78c0,.33-.41.33-.41.33h0Zm15.87-.26s-.04.02-.08.02c-1.99.4-3.62.52-5.04.25-1.08-.21-1.73-.83-2.21-1.75l-3.9-6.51c-.07-.16-.24-.26-.41-.26h-2.9v-5.12c1.27-.36,3.04-1.28,3.96-2.27,1.41-1.52,2.47-3.4,3.23-5.76.17-.52.32-.55.51-.55,1.18.02,2.37.02,3.53.02h2.07c.16,0,.27.01.33.02-.01.07-.04.17-.1.34-1.19,3.53-3.13,6.54-5.79,8.95-.38.34-.7.78-.26,1.48.69,1.1,1.39,2.23,2.06,3.33.59.96,1.2,1.95,1.81,2.92.33.52,1.19,1.89,2.87,1.38v.14c.04.33.07.64.1.94.07.76.13,1.47.2,2.31,0,.07,0,.1,0,.12h0Z"/>
  </g>
</svg>