<svg width="190" height="56" viewBox="0 0 190 56" fill="none" xmlns="http://www.w3.org/2000/svg">
<path d="M0 0H55.4364V55.4364H0V0Z" fill="#01FF5F"/>
<path d="M70.4269 26.9551H68.742C68.4323 26.9551 68.1813 27.2061 68.1813 27.5157V38.2099C68.1813 38.5195 68.4323 38.7705 68.742 38.7705H70.4269C70.7365 38.7705 70.9875 38.5195 70.9875 38.2099V27.5157C70.9875 27.2061 70.7365 26.9551 70.4269 26.9551Z" fill="black"/>
<path d="M87.8513 26.6597C85.6088 26.6597 83.8937 28.2271 83.5682 28.5526C82.7122 27.347 81.4734 26.6597 79.7583 26.6597C79.0315 26.6636 78.3126 26.8119 77.6436 27.096C76.9745 27.38 76.3686 27.7942 75.861 28.3145L75.5355 27.3108C75.5017 27.2054 75.4347 27.1138 75.3445 27.0497C75.2543 26.9856 75.1458 26.9524 75.0351 26.9551H74.2063C74.0597 26.9603 73.9206 27.0206 73.8166 27.124C73.7127 27.2274 73.6516 27.3662 73.6456 27.5127V38.2099C73.6502 38.3572 73.7107 38.4971 73.8149 38.6013C73.919 38.7055 74.059 38.766 74.2063 38.7705H75.861C76.0083 38.766 76.1483 38.7055 76.2524 38.6013C76.3566 38.4971 76.4171 38.3572 76.4217 38.2099V31.0031C76.7053 30.4727 77.1264 30.0283 77.6408 29.7165C78.1552 29.4047 78.7439 29.237 79.3454 29.2308C81.0001 29.2308 81.8561 30.2646 81.8561 32.1545V38.2099C81.8561 38.3586 81.9152 38.5012 82.0204 38.6063C82.1255 38.7115 82.2681 38.7705 82.4168 38.7705H83.9751C84.1223 38.766 84.2623 38.7055 84.3665 38.6013C84.4707 38.4971 84.5312 38.3572 84.5357 38.2099V32.0942C84.5472 31.6203 84.5169 31.1462 84.4453 30.6776C84.6533 30.4997 85.6871 29.2308 87.4896 29.2308C89.0841 29.2308 89.9401 30.2948 89.9401 32.1545V38.2099C89.9401 38.3586 89.9991 38.5012 90.1043 38.6063C90.2094 38.7115 90.352 38.7705 90.5007 38.7705H92.1555C92.3042 38.7705 92.4468 38.7115 92.5519 38.6063C92.657 38.5012 92.7161 38.3586 92.7161 38.2099V32.2721C92.7161 29.2006 91.4562 26.6597 87.8513 26.6597Z" fill="black"/>
<path d="M100.318 26.6597C97.0026 26.6597 94.3502 29.496 94.3502 32.8327C94.3502 36.2296 97.0087 39.0659 100.318 39.0659C103.628 39.0659 106.28 36.2296 106.28 32.8327C106.28 29.496 103.625 26.6597 100.318 26.6597ZM100.318 36.525C98.4554 36.525 96.9785 34.8733 96.9785 32.8327C96.9785 30.8554 98.4554 29.2308 100.318 29.2308C102.181 29.2308 103.655 30.8554 103.655 32.8327C103.655 34.8733 102.178 36.525 100.318 36.525Z" fill="black"/>
<path d="M117.625 26.9552H116.266C115.943 26.9552 115.618 26.9552 115.47 27.2807L112.278 34.2524H112.251L109.18 27.2807C109.134 27.1786 109.059 27.0927 108.964 27.0345C108.868 26.9763 108.758 26.9487 108.646 26.9552H106.904C106.461 26.9552 106.283 27.2566 106.461 27.6363L111.687 38.7706C111.732 38.865 111.804 38.9441 111.893 38.9977C111.983 39.0514 112.086 39.0772 112.191 39.072H112.338C112.443 39.0772 112.546 39.0514 112.636 38.9977C112.725 38.9441 112.797 38.865 112.842 38.7706L118.068 27.6363C118.246 27.2505 118.068 26.9552 117.625 26.9552Z" fill="black"/>
<path d="M124.184 26.6597C120.639 26.6597 118.276 29.5261 118.276 32.8628C118.276 36.2597 120.639 39.0659 124.211 39.0659C125.796 39.0989 127.344 38.5764 128.584 37.5889C128.652 37.5524 128.709 37.4994 128.751 37.435C128.792 37.3706 128.817 37.2968 128.823 37.2203C128.829 37.1438 128.815 37.0671 128.783 36.9972C128.752 36.9273 128.703 36.8665 128.642 36.8203L127.816 35.6991C127.578 35.3977 127.373 35.5212 127.017 35.7292C126.238 36.2537 125.327 36.5501 124.389 36.5852C123.529 36.5816 122.702 36.2543 122.072 35.6684C121.443 35.0824 121.057 34.2809 120.992 33.4234H129.028C129.16 33.4212 129.287 33.3706 129.385 33.2812C129.482 33.1919 129.544 33.0698 129.558 32.9381C129.593 32.6732 129.613 32.4065 129.618 32.1394C129.64 31.4177 129.515 30.6991 129.25 30.0274C128.985 29.3556 128.587 28.7448 128.078 28.2322C127.57 27.7195 126.962 27.3157 126.293 27.0454C125.623 26.775 124.906 26.6438 124.184 26.6597ZM121.14 31.5637C121.229 30.8307 121.586 30.1567 122.143 29.6714C122.699 29.1862 123.415 28.924 124.154 28.9353C124.853 28.9545 125.519 29.2351 126.021 29.7217C126.524 30.2083 126.825 30.8656 126.866 31.5637H121.14Z" fill="black"/>
<path d="M133.515 26.9551H131.83C131.521 26.9551 131.27 27.2061 131.27 27.5157V38.2099C131.27 38.5195 131.521 38.7705 131.83 38.7705H133.515C133.825 38.7705 134.076 38.5195 134.076 38.2099V27.5157C134.076 27.2061 133.825 26.9551 133.515 26.9551Z" fill="black"/>
<path d="M140.544 31.5336C139.393 31.0332 138.654 30.7077 138.654 29.9391C138.654 29.496 138.98 29.0529 139.984 29.0529C140.819 29.109 141.636 29.3195 142.395 29.6738C142.529 29.7349 142.682 29.7444 142.823 29.7005C142.964 29.6566 143.084 29.5624 143.16 29.4357L143.694 28.432C143.769 28.2854 143.786 28.1161 143.741 27.9576C143.697 27.7992 143.595 27.663 143.456 27.576C142.4 26.9591 141.194 26.6461 139.971 26.6717C137.135 26.6717 135.926 28.4441 135.926 29.921C135.926 31.8711 137.461 32.9924 139.293 33.7911C140.918 34.5296 141.566 34.9124 141.566 35.7112C141.566 36.3622 141.005 36.7149 140.119 36.7149C139.156 36.6787 138.215 36.4153 137.373 35.9463C137.316 35.9042 137.251 35.8746 137.182 35.8592C137.113 35.8439 137.041 35.8431 136.971 35.857C136.902 35.8709 136.836 35.8992 136.778 35.94C136.72 35.9808 136.671 36.0332 136.635 36.0939L136.014 37.2484C135.969 37.3539 135.962 37.4717 135.995 37.5817C136.027 37.6917 136.097 37.7869 136.192 37.8512C136.813 38.3546 138.112 39.0569 140.089 39.0569C142.717 39.0569 144.46 37.4322 144.46 35.5996C144.472 33.3963 142.702 32.48 140.544 31.5336Z" fill="black"/>
<path d="M153.098 36.1723C153.082 36.102 153.049 36.0366 153.002 35.9818C152.955 35.9271 152.896 35.8847 152.829 35.8582C152.761 35.8318 152.689 35.8222 152.617 35.8301C152.545 35.8381 152.477 35.8635 152.417 35.9041C151.856 36.2 151.241 36.3813 150.609 36.4376C150.045 36.4376 149.662 36.2598 149.662 35.256V29.4086H152.676C152.825 29.4086 152.968 29.3496 153.074 29.2446C153.179 29.1395 153.239 28.9969 153.24 28.848V27.5127C153.241 27.4403 153.229 27.3683 153.202 27.3009C153.176 27.2335 153.136 27.1721 153.085 27.1202C153.035 27.0683 152.975 27.027 152.908 26.9986C152.841 26.9703 152.77 26.9555 152.697 26.9551H149.683V23.6395C149.685 23.4955 149.631 23.3564 149.531 23.2518C149.432 23.1472 149.297 23.0852 149.153 23.0789L147.468 23.1091C147.321 23.1136 147.181 23.1741 147.076 23.2783C146.972 23.3825 146.912 23.5224 146.907 23.6697V26.9551H145.665C145.59 26.9514 145.516 26.9631 145.445 26.9896C145.375 27.0161 145.311 27.0568 145.258 27.1091C145.204 27.1614 145.161 27.2243 145.133 27.2937C145.105 27.3632 145.091 27.4377 145.093 27.5127V28.842C145.093 28.9904 145.153 29.1325 145.258 29.2375C145.363 29.3425 145.505 29.4018 145.653 29.4026H146.895V35.5514C146.895 37.6613 147.573 39.0659 149.909 39.0659C151.109 39.0031 152.284 38.7019 153.366 38.1798C153.435 38.1565 153.498 38.1184 153.55 38.068C153.602 38.0176 153.642 37.9563 153.667 37.8885C153.693 37.8207 153.703 37.7481 153.696 37.676C153.69 37.6039 153.668 37.534 153.632 37.4714L153.098 36.1723Z" fill="black"/>
<path d="M160.233 26.6597C156.917 26.6597 154.268 29.496 154.268 32.8327C154.268 36.2296 156.926 39.0659 160.233 39.0659C163.54 39.0659 166.201 36.2296 166.201 32.8327C166.213 29.496 163.549 26.6597 160.233 26.6597ZM160.233 36.525C158.373 36.525 156.896 34.8733 156.896 32.8327C156.896 30.8554 158.373 29.2308 160.233 29.2308C162.093 29.2308 163.573 30.8554 163.573 32.8327C163.585 34.8733 162.108 36.525 160.233 36.525Z" fill="black"/>
<path d="M177.643 35.7564L176.844 35.1084C176.79 35.0564 176.725 35.0164 176.654 34.991C176.583 34.9657 176.508 34.9555 176.433 34.9612C176.358 34.9669 176.285 34.9883 176.218 35.024C176.152 35.0598 176.094 35.109 176.048 35.1687C175.427 35.7715 174.807 36.525 173.299 36.525C171.379 36.525 169.906 34.9004 169.906 32.8628C169.906 30.8253 171.413 29.2459 173.33 29.2459C173.779 29.2605 174.221 29.3675 174.628 29.5605C175.034 29.7534 175.397 30.028 175.693 30.3671C175.931 30.5751 176.136 30.8102 176.491 30.4847L177.465 29.6015C177.529 29.556 177.582 29.498 177.623 29.4311C177.664 29.3642 177.69 29.2897 177.701 29.2122C177.712 29.1348 177.707 29.0558 177.687 28.9803C177.666 28.9047 177.631 28.8341 177.583 28.7726C177.087 28.1062 176.441 27.5673 175.696 27.2004C174.951 26.8335 174.13 26.6492 173.299 26.6627C171.656 26.6848 170.087 27.3496 168.928 28.5147C167.769 29.6799 167.113 31.2526 167.099 32.896C167.096 33.7075 167.254 34.5117 167.563 35.262C167.872 36.0124 168.326 36.6942 168.9 37.268C169.474 37.8419 170.156 38.2965 170.906 38.6056C171.657 38.9146 172.461 39.0721 173.272 39.0689C174.185 39.0906 175.088 38.873 175.89 38.4379C176.693 38.0027 177.368 37.365 177.848 36.5883C178.056 36.2899 177.938 35.9945 177.643 35.7564Z" fill="black"/>
<path d="M189.358 36.4346L188.966 36.5943C188.87 36.6307 188.768 36.6511 188.665 36.6546C188.321 36.6546 188.098 36.3532 187.444 35.3615L187.314 35.1656C186.862 34.4965 186.033 33.2155 185.485 32.2811C186.92 31.0146 188 29.3947 188.616 27.582C188.651 27.485 188.661 27.3811 188.646 27.2793C188.632 27.1774 188.592 27.0807 188.532 26.9973C188.472 26.9124 188.393 26.8431 188.3 26.7954C188.208 26.7477 188.105 26.7228 188.002 26.723H186.494C186.361 26.7257 186.232 26.7694 186.124 26.8481C186.016 26.9268 185.935 27.0368 185.892 27.1631C185.282 29.0869 183.979 30.7154 182.235 31.7325V27.145C182.235 26.9731 182.167 26.8083 182.046 26.6868C181.924 26.5652 181.759 26.4969 181.587 26.4969H180.216C180.044 26.4977 179.88 26.5663 179.759 26.6876C179.637 26.809 179.569 26.9734 179.568 27.145V38.0622C179.569 38.2338 179.637 38.3982 179.759 38.5196C179.88 38.6409 180.044 38.7095 180.216 38.7102H181.593C181.764 38.7087 181.928 38.6397 182.048 38.5183C182.168 38.397 182.235 38.233 182.235 38.0622V34.5326C182.627 34.3562 183.006 34.1548 183.372 33.9298C183.646 34.3759 183.947 34.8582 184.24 35.3284C184.611 35.9312 184.966 36.4858 185.232 36.9229C186.024 38.3696 186.714 38.861 187.965 38.861C188.306 38.8614 188.647 38.8281 188.981 38.7615C189.138 38.7294 189.278 38.6402 189.373 38.511C189.469 38.3818 189.512 38.2219 189.497 38.0622L189.358 36.4346Z" fill="black"/>
<path d="M69.272 22.7543C68.9422 22.7543 68.6664 22.657 68.4447 22.4624C68.2285 22.2623 68.1203 21.9866 68.1203 21.6351C68.1203 21.2026 68.3123 20.8728 68.6961 20.6457C69.0854 20.4132 69.6991 20.251 70.5372 20.1591C70.5372 19.9914 70.5128 19.8319 70.4642 19.6806C70.4209 19.5292 70.3398 19.4075 70.2209 19.3156C70.1073 19.2183 69.9424 19.1696 69.7262 19.1696C69.4991 19.1696 69.2855 19.2129 69.0854 19.2994C68.8854 19.3859 68.707 19.4832 68.5502 19.5913L68.2906 19.1291C68.4745 19.0101 68.6988 18.8966 68.9638 18.7884C69.2341 18.6749 69.5261 18.6181 69.8397 18.6181C70.3209 18.6181 70.6696 18.7668 70.8859 19.0642C71.1022 19.3561 71.2103 19.7481 71.2103 20.2402V22.657H70.6588L70.6021 22.1866H70.5777C70.3939 22.338 70.1911 22.4705 69.9695 22.584C69.7532 22.6976 69.5207 22.7543 69.272 22.7543ZM69.4666 22.2191C69.6559 22.2191 69.8343 22.1731 70.0019 22.0812C70.1695 21.9893 70.3479 21.8595 70.5372 21.6919V20.597C69.8829 20.6781 69.4234 20.7998 69.1584 20.962C68.8989 21.1242 68.7691 21.3323 68.7691 21.5865C68.7691 21.8081 68.8367 21.9704 68.9719 22.0731C69.1071 22.1704 69.272 22.2191 69.4666 22.2191Z" fill="black"/>
<path d="M74.1942 22.7543C74.0103 22.7543 73.8184 22.7111 73.6183 22.6246C73.4237 22.5327 73.2398 22.4083 73.0668 22.2515H73.0425L72.9857 22.657H72.4504V16.8825H73.1155V18.4559L73.0993 19.1696C73.2777 19.0128 73.4723 18.883 73.6832 18.7803C73.8995 18.6722 74.1158 18.6181 74.332 18.6181C74.8457 18.6181 75.235 18.7992 75.4999 19.1615C75.7648 19.5238 75.8973 20.0104 75.8973 20.6213C75.8973 21.0701 75.8162 21.454 75.654 21.773C75.4972 22.092 75.289 22.3353 75.0295 22.5029C74.7754 22.6705 74.4969 22.7543 74.1942 22.7543ZM74.0806 22.1947C74.405 22.1947 74.6727 22.0569 74.8835 21.7811C75.0998 21.5 75.2079 21.1161 75.2079 20.6295C75.2079 20.1969 75.1268 19.8482 74.9646 19.5832C74.8078 19.3129 74.5429 19.1777 74.1698 19.1777C74.0022 19.1777 73.8319 19.2237 73.6589 19.3156C73.4859 19.4075 73.3047 19.54 73.1155 19.713V21.7811C73.2885 21.9325 73.4588 22.0406 73.6264 22.1055C73.7995 22.165 73.9508 22.1947 74.0806 22.1947Z" fill="black"/>
<path d="M76.9333 22.657V18.7154H77.4848L77.5415 19.4291H77.5659C77.701 19.1804 77.866 18.9831 78.0606 18.8371C78.2552 18.6911 78.4634 18.6181 78.6851 18.6181C78.8419 18.6181 78.9825 18.6451 79.1068 18.6992L78.9771 19.2831C78.9122 19.2615 78.8527 19.2453 78.7986 19.2345C78.7446 19.2237 78.677 19.2183 78.5959 19.2183C78.4283 19.2183 78.2525 19.2859 78.0687 19.421C77.8903 19.5562 77.7335 19.7914 77.5983 20.1266V22.657H76.9333Z" fill="black"/>
<path d="M79.7449 22.657V18.7154H80.41V22.657H79.7449ZM80.0856 17.9044C79.9558 17.9044 79.8477 17.8666 79.7612 17.7909C79.6801 17.7098 79.6395 17.6016 79.6395 17.4664C79.6395 17.3367 79.6801 17.2312 79.7612 17.1501C79.8477 17.069 79.9558 17.0285 80.0856 17.0285C80.2153 17.0285 80.3208 17.069 80.4019 17.1501C80.4884 17.2312 80.5316 17.3367 80.5316 17.4664C80.5316 17.6016 80.4884 17.7098 80.4019 17.7909C80.3208 17.8666 80.2153 17.9044 80.0856 17.9044Z" fill="black"/>
<path d="M81.7408 22.657V18.7154H82.2923L82.3491 19.2831H82.3734C82.5627 19.0939 82.7627 18.9371 82.9736 18.8128C83.1845 18.683 83.4251 18.6181 83.6954 18.6181C84.1117 18.6181 84.4145 18.7506 84.6038 19.0155C84.7984 19.275 84.8957 19.6562 84.8957 20.1591V22.657H84.2307V20.2483C84.2307 19.8806 84.1712 19.613 84.0523 19.4454C83.9333 19.2777 83.7441 19.1939 83.4845 19.1939C83.2845 19.1939 83.1034 19.2453 82.9411 19.348C82.7843 19.4508 82.6059 19.6022 82.4059 19.8022V22.657H81.7408Z" fill="black"/>
<path d="M87.5224 22.7543C87.0304 22.7543 86.6357 22.5759 86.3383 22.2191C86.041 21.8568 85.8923 21.3486 85.8923 20.6943C85.8923 20.2672 85.9707 19.8995 86.1275 19.5913C86.2897 19.2777 86.5005 19.0371 86.7601 18.8695C87.025 18.7019 87.3062 18.6181 87.6035 18.6181C87.8306 18.6181 88.028 18.6587 88.1956 18.7398C88.3632 18.8209 88.5335 18.9317 88.7065 19.0723L88.6741 18.3991V16.8825H89.3472V22.657H88.7958L88.739 22.1947H88.7146C88.5633 22.3461 88.3848 22.4786 88.1794 22.5921C87.9739 22.7003 87.7549 22.7543 87.5224 22.7543ZM87.6684 22.1947C88.0145 22.1947 88.3497 22.0136 88.6741 21.6513V19.5913C88.5065 19.4399 88.3443 19.3345 88.1875 19.275C88.0361 19.2102 87.8793 19.1777 87.7171 19.1777C87.5062 19.1777 87.3143 19.2426 87.1413 19.3724C86.9736 19.4967 86.8385 19.6724 86.7357 19.8995C86.633 20.1212 86.5816 20.3834 86.5816 20.6862C86.5816 21.1566 86.6763 21.527 86.8655 21.7973C87.0547 22.0623 87.3224 22.1947 87.6684 22.1947Z" fill="black"/>
<path d="M92.2076 22.7543C91.8886 22.7543 91.5886 22.6732 91.3074 22.511C91.0317 22.3488 90.8073 22.1136 90.6342 21.8054C90.4666 21.4973 90.3828 21.1269 90.3828 20.6943C90.3828 20.251 90.4666 19.8752 90.6342 19.567C90.8073 19.2588 91.0317 19.0236 91.3074 18.8614C91.5886 18.6992 91.8886 18.6181 92.2076 18.6181C92.5321 18.6181 92.8321 18.6992 93.1079 18.8614C93.3836 19.0236 93.6053 19.2588 93.7729 19.567C93.9459 19.8752 94.0325 20.251 94.0325 20.6943C94.0325 21.1269 93.9459 21.4973 93.7729 21.8054C93.6053 22.1136 93.3836 22.3488 93.1079 22.511C92.8321 22.6732 92.5321 22.7543 92.2076 22.7543ZM92.2076 22.2028C92.5483 22.2028 92.8213 22.065 93.0268 21.7892C93.2376 21.5081 93.3431 21.1431 93.3431 20.6943C93.3431 20.2402 93.2376 19.8725 93.0268 19.5913C92.8213 19.3102 92.5483 19.1696 92.2076 19.1696C91.8724 19.1696 91.5994 19.3102 91.3885 19.5913C91.1776 19.8725 91.0722 20.2402 91.0722 20.6943C91.0722 21.1431 91.1776 21.5081 91.3885 21.7892C91.5994 22.065 91.8724 22.2028 92.2076 22.2028Z" fill="black"/>
<path d="M96.6941 22.657V18.7154H97.2456L97.3024 19.2831H97.3267C97.516 19.0939 97.716 18.9371 97.9269 18.8128C98.1378 18.683 98.3784 18.6181 98.6487 18.6181C99.065 18.6181 99.3678 18.7506 99.5571 19.0155C99.7517 19.275 99.849 19.6562 99.849 20.1591V22.657H99.184V20.2483C99.184 19.8806 99.1245 19.613 99.0056 19.4454C98.8866 19.2777 98.6974 19.1939 98.4379 19.1939C98.2378 19.1939 98.0567 19.2453 97.8945 19.348C97.7377 19.4508 97.5592 19.6022 97.3592 19.8022V22.657H96.6941Z" fill="black"/>
<path d="M102.662 22.7543C102.343 22.7543 102.043 22.6732 101.762 22.511C101.486 22.3488 101.262 22.1136 101.089 21.8054C100.921 21.4973 100.837 21.1269 100.837 20.6943C100.837 20.251 100.921 19.8752 101.089 19.567C101.262 19.2588 101.486 19.0236 101.762 18.8614C102.043 18.6992 102.343 18.6181 102.662 18.6181C102.987 18.6181 103.287 18.6992 103.563 18.8614C103.838 19.0236 104.06 19.2588 104.228 19.567C104.401 19.8752 104.487 20.251 104.487 20.6943C104.487 21.1269 104.401 21.4973 104.228 21.8054C104.06 22.1136 103.838 22.3488 103.563 22.511C103.287 22.6732 102.987 22.7543 102.662 22.7543ZM102.662 22.2028C103.003 22.2028 103.276 22.065 103.481 21.7892C103.692 21.5081 103.798 21.1431 103.798 20.6943C103.798 20.2402 103.692 19.8725 103.481 19.5913C103.276 19.3102 103.003 19.1696 102.662 19.1696C102.327 19.1696 102.054 19.3102 101.843 19.5913C101.632 19.8725 101.527 20.2402 101.527 20.6943C101.527 21.1431 101.632 21.5081 101.843 21.7892C102.054 22.065 102.327 22.2028 102.662 22.2028Z" fill="black"/>
<path d="M106.345 22.657L104.926 18.7154H105.615L106.361 20.9539C106.421 21.1485 106.48 21.3432 106.54 21.5378C106.605 21.7325 106.667 21.9244 106.726 22.1136H106.759C106.818 21.9244 106.878 21.7325 106.937 21.5378C107.002 21.3432 107.061 21.1485 107.116 20.9539L107.862 18.7154H108.519L107.124 22.657H106.345Z" fill="black"/>
<path d="M110.029 22.7543C109.699 22.7543 109.424 22.657 109.202 22.4624C108.986 22.2623 108.878 21.9866 108.878 21.6351C108.878 21.2026 109.07 20.8728 109.453 20.6457C109.843 20.4132 110.456 20.251 111.294 20.1591C111.294 19.9914 111.27 19.8319 111.221 19.6806C111.178 19.5292 111.097 19.4075 110.978 19.3156C110.865 19.2183 110.7 19.1696 110.483 19.1696C110.256 19.1696 110.043 19.2129 109.843 19.2994C109.643 19.3859 109.464 19.4832 109.307 19.5913L109.048 19.1291C109.232 19.0101 109.456 18.8966 109.721 18.7884C109.991 18.6749 110.283 18.6181 110.597 18.6181C111.078 18.6181 111.427 18.7668 111.643 19.0642C111.859 19.3561 111.968 19.7481 111.968 20.2402V22.657H111.416L111.359 22.1866H111.335C111.151 22.338 110.948 22.4705 110.727 22.584C110.51 22.6976 110.278 22.7543 110.029 22.7543ZM110.224 22.2191C110.413 22.2191 110.592 22.1731 110.759 22.0812C110.927 21.9893 111.105 21.8595 111.294 21.6919V20.597C110.64 20.6781 110.181 20.7998 109.916 20.962C109.656 21.1242 109.526 21.3323 109.526 21.5865C109.526 21.8081 109.594 21.9704 109.729 22.0731C109.864 22.1704 110.029 22.2191 110.224 22.2191Z" fill="black"/>
<path d="M114.238 22.7543C113.957 22.7543 113.689 22.703 113.435 22.6003C113.181 22.4921 112.959 22.3624 112.77 22.211L113.102 21.7649C113.275 21.9001 113.454 22.0136 113.638 22.1055C113.821 22.192 114.03 22.2353 114.262 22.2353C114.522 22.2353 114.716 22.1758 114.846 22.0569C114.976 21.9325 115.041 21.7865 115.041 21.6189C115.041 21.4837 114.995 21.3702 114.903 21.2783C114.816 21.1864 114.703 21.1107 114.562 21.0512C114.427 20.9863 114.286 20.9268 114.14 20.8728C113.957 20.8025 113.775 20.7241 113.597 20.6376C113.419 20.5456 113.273 20.4294 113.159 20.2888C113.046 20.1428 112.989 19.959 112.989 19.7373C112.989 19.4183 113.108 19.1534 113.346 18.9425C113.589 18.7262 113.924 18.6181 114.351 18.6181C114.595 18.6181 114.822 18.6614 115.033 18.7479C115.243 18.8344 115.425 18.9398 115.576 19.0642L115.252 19.4859C115.116 19.3832 114.976 19.2994 114.83 19.2345C114.684 19.1696 114.524 19.1372 114.351 19.1372C114.103 19.1372 113.919 19.1939 113.8 19.3075C113.686 19.421 113.629 19.5535 113.629 19.7049C113.629 19.8292 113.67 19.932 113.751 20.0131C113.832 20.0888 113.938 20.1564 114.067 20.2158C114.197 20.2699 114.335 20.3267 114.481 20.3861C114.67 20.4564 114.857 20.5375 115.041 20.6295C115.225 20.716 115.376 20.8349 115.495 20.9863C115.619 21.1323 115.681 21.3296 115.681 21.5784C115.681 21.7892 115.625 21.9839 115.511 22.1623C115.403 22.3407 115.241 22.484 115.024 22.5921C114.814 22.7003 114.551 22.7543 114.238 22.7543Z" fill="black"/>
<path d="M118.229 24.3196V18.7154H118.781L118.837 19.1696H118.862C119.04 19.0182 119.235 18.8884 119.446 18.7803C119.662 18.6722 119.886 18.6181 120.119 18.6181C120.627 18.6181 121.014 18.8019 121.279 19.1696C121.544 19.5319 121.676 20.0185 121.676 20.6295C121.676 21.0728 121.595 21.454 121.433 21.773C121.276 22.092 121.068 22.3353 120.808 22.5029C120.554 22.6705 120.276 22.7543 119.973 22.7543C119.789 22.7543 119.605 22.7138 119.421 22.6327C119.243 22.5516 119.062 22.4407 118.878 22.3002L118.894 22.9895V24.3196H118.229ZM119.859 22.1947C120.184 22.1947 120.451 22.0569 120.662 21.7811C120.879 21.5 120.987 21.1161 120.987 20.6295C120.987 20.1969 120.906 19.8482 120.743 19.5832C120.587 19.3129 120.322 19.1777 119.949 19.1777C119.781 19.1777 119.611 19.2237 119.438 19.3156C119.27 19.4075 119.089 19.54 118.894 19.713V21.7811C119.073 21.9325 119.246 22.0406 119.413 22.1055C119.581 22.165 119.73 22.1947 119.859 22.1947Z" fill="black"/>
<path d="M124.261 22.7543C123.942 22.7543 123.642 22.6732 123.36 22.511C123.085 22.3488 122.86 22.1136 122.687 21.8054C122.52 21.4973 122.436 21.1269 122.436 20.6943C122.436 20.251 122.52 19.8752 122.687 19.567C122.86 19.2588 123.085 19.0236 123.36 18.8614C123.642 18.6992 123.942 18.6181 124.261 18.6181C124.585 18.6181 124.885 18.6992 125.161 18.8614C125.437 19.0236 125.658 19.2588 125.826 19.567C125.999 19.8752 126.085 20.251 126.085 20.6943C126.085 21.1269 125.999 21.4973 125.826 21.8054C125.658 22.1136 125.437 22.3488 125.161 22.511C124.885 22.6732 124.585 22.7543 124.261 22.7543ZM124.261 22.2028C124.601 22.2028 124.874 22.065 125.08 21.7892C125.291 21.5081 125.396 21.1431 125.396 20.6943C125.396 20.2402 125.291 19.8725 125.08 19.5913C124.874 19.3102 124.601 19.1696 124.261 19.1696C123.925 19.1696 123.652 19.3102 123.442 19.5913C123.231 19.8725 123.125 20.2402 123.125 20.6943C123.125 21.1431 123.231 21.5081 123.442 21.7892C123.652 22.065 123.925 22.2028 124.261 22.2028Z" fill="black"/>
<path d="M127.124 22.657V18.7154H127.675L127.732 19.4291H127.756C127.891 19.1804 128.056 18.9831 128.251 18.8371C128.445 18.6911 128.654 18.6181 128.875 18.6181C129.032 18.6181 129.173 18.6451 129.297 18.6992L129.167 19.2831C129.102 19.2615 129.043 19.2453 128.989 19.2345C128.935 19.2237 128.867 19.2183 128.786 19.2183C128.619 19.2183 128.443 19.2859 128.259 19.421C128.081 19.5562 127.924 19.7914 127.789 20.1266V22.657H127.124Z" fill="black"/>
<path d="M131.176 22.7543C130.754 22.7543 130.46 22.6327 130.292 22.3894C130.13 22.1461 130.049 21.8298 130.049 21.4405V19.2588H129.465V18.756L130.081 18.7154L130.162 17.6124H130.722V18.7154H131.784V19.2588H130.722V21.4486C130.722 21.6919 130.765 21.8811 130.852 22.0163C130.944 22.1461 131.103 22.211 131.33 22.211C131.4 22.211 131.476 22.2001 131.557 22.1785C131.638 22.1515 131.711 22.1272 131.776 22.1055L131.906 22.6084C131.798 22.6462 131.679 22.6787 131.549 22.7057C131.425 22.7381 131.3 22.7543 131.176 22.7543Z" fill="black"/>
<path d="M133.41 22.7543C133.08 22.7543 132.804 22.657 132.582 22.4624C132.366 22.2623 132.258 21.9866 132.258 21.6351C132.258 21.2026 132.45 20.8728 132.834 20.6457C133.223 20.4132 133.837 20.251 134.675 20.1591C134.675 19.9914 134.651 19.8319 134.602 19.6806C134.559 19.5292 134.478 19.4075 134.359 19.3156C134.245 19.2183 134.08 19.1696 133.864 19.1696C133.637 19.1696 133.423 19.2129 133.223 19.2994C133.023 19.3859 132.845 19.4832 132.688 19.5913L132.428 19.1291C132.612 19.0101 132.837 18.8966 133.101 18.7884C133.372 18.6749 133.664 18.6181 133.977 18.6181C134.459 18.6181 134.807 18.7668 135.024 19.0642C135.24 19.3561 135.348 19.7481 135.348 20.2402V22.657H134.797L134.74 22.1866H134.715C134.532 22.338 134.329 22.4705 134.107 22.584C133.891 22.6976 133.658 22.7543 133.41 22.7543ZM133.604 22.2191C133.794 22.2191 133.972 22.1731 134.14 22.0812C134.307 21.9893 134.486 21.8595 134.675 21.6919V20.597C134.021 20.6781 133.561 20.7998 133.296 20.962C133.037 21.1242 132.907 21.3323 132.907 21.5865C132.907 21.8081 132.974 21.9704 133.11 22.0731C133.245 22.1704 133.41 22.2191 133.604 22.2191Z" fill="black"/>
<path d="M137.618 22.7543C137.337 22.7543 137.069 22.703 136.815 22.6003C136.561 22.4921 136.339 22.3624 136.15 22.211L136.483 21.7649C136.656 21.9001 136.834 22.0136 137.018 22.1055C137.202 22.192 137.41 22.2353 137.642 22.2353C137.902 22.2353 138.097 22.1758 138.226 22.0569C138.356 21.9325 138.421 21.7865 138.421 21.6189C138.421 21.4837 138.375 21.3702 138.283 21.2783C138.197 21.1864 138.083 21.1107 137.943 21.0512C137.807 20.9863 137.667 20.9268 137.521 20.8728C137.337 20.8025 137.156 20.7241 136.977 20.6376C136.799 20.5456 136.653 20.4294 136.539 20.2888C136.426 20.1428 136.369 19.959 136.369 19.7373C136.369 19.4183 136.488 19.1534 136.726 18.9425C136.969 18.7262 137.305 18.6181 137.732 18.6181C137.975 18.6181 138.202 18.6614 138.413 18.7479C138.624 18.8344 138.805 18.9398 138.956 19.0642L138.632 19.4859C138.497 19.3832 138.356 19.2994 138.21 19.2345C138.064 19.1696 137.905 19.1372 137.732 19.1372C137.483 19.1372 137.299 19.1939 137.18 19.3075C137.067 19.421 137.01 19.5535 137.01 19.7049C137.01 19.8292 137.05 19.932 137.132 20.0131C137.213 20.0888 137.318 20.1564 137.448 20.2158C137.578 20.2699 137.715 20.3267 137.861 20.3861C138.051 20.4564 138.237 20.5375 138.421 20.6295C138.605 20.716 138.756 20.8349 138.875 20.9863C139 21.1323 139.062 21.3296 139.062 21.5784C139.062 21.7892 139.005 21.9839 138.891 22.1623C138.783 22.3407 138.621 22.484 138.405 22.5921C138.194 22.7003 137.932 22.7543 137.618 22.7543Z" fill="black"/>
<g clip-path="url(#clip0_1265_6597)">
<path d="M38.8401 38.8594C38.7711 38.015 38.7075 37.3 38.6385 36.5437C38.612 36.2432 38.5802 35.9323 38.5537 35.5904L38.5006 35.1345C38.4635 34.8392 38.2991 34.7045 38.1983 34.6475C37.9968 34.5283 37.79 34.5646 37.6998 34.5957L37.4718 34.6579C37.4718 34.6579 37.4559 34.663 37.4453 34.6682C36.6657 34.9324 36.1459 34.6682 35.536 33.6942C34.9261 32.7254 34.3162 31.7359 33.7276 30.7775C33.054 29.6844 32.354 28.5498 31.6592 27.4411C31.5903 27.3323 31.585 27.2857 31.5797 27.2857C31.5797 27.2753 31.6115 27.2235 31.76 27.0888C34.5337 24.5813 36.5649 21.4418 37.8006 17.7687C37.9438 17.3438 38.0552 16.9294 37.8112 16.603C37.5725 16.2766 37.1324 16.2507 36.6975 16.2455C36.0027 16.2455 35.308 16.2455 34.6185 16.2455C33.4677 16.2455 32.2744 16.2455 31.1077 16.23C30.0947 16.2144 29.8136 17.0744 29.7076 17.4008C28.981 19.6285 27.9893 21.4055 26.6687 22.8302C26.0217 23.5296 24.6163 24.3482 23.4283 24.8041V17.5407C23.4283 17.2091 23.4018 16.7999 23.1101 16.5201C22.8184 16.2455 22.4154 16.2196 22.1449 16.2248H17.568C17.2923 16.2248 16.8998 16.2559 16.6187 16.5305C16.3482 16.805 16.3217 17.1884 16.3217 17.4526C16.3323 18.323 16.3323 19.2089 16.327 20.0689C16.327 20.6025 16.327 21.1828 16.327 21.7164C16.327 22.908 16.571 23.1359 17.8226 23.1359H17.8968C19.1538 23.1359 21.1266 23.1463 22.4684 23.1359V24.7937H17.7484H17.5999C17.3241 24.7937 16.921 24.8145 16.6293 25.0994C16.4172 25.3066 16.3164 25.6071 16.3217 26.0112C16.3429 27.5136 16.3376 29.0989 16.3217 30.5858C16.3217 30.9485 16.4225 31.2282 16.624 31.4251C16.8415 31.6323 17.1438 31.7256 17.5415 31.7204H22.4737V33.3161C21.8797 33.3161 21.063 33.3161 20.4213 33.3161C19.5038 33.3161 18.4007 33.3161 17.6158 33.3057C17.3294 33.3005 16.9157 33.3212 16.6293 33.601C16.4172 33.803 16.3164 34.0983 16.3217 34.4973C16.3376 35.8961 16.3429 37.3622 16.3217 39.0045C16.3217 39.4138 16.4172 39.7143 16.6346 39.9163C16.9051 40.1753 17.2657 40.2168 17.5415 40.2168C17.5627 40.2168 17.5839 40.2168 17.6052 40.2168C18.6924 40.1961 19.5038 40.1961 20.3311 40.2013C20.7024 40.2013 21.2645 40.2013 21.7577 40.2013C23.1791 40.2013 23.3912 39.994 23.3912 38.6263C23.3912 38.6108 23.3912 38.6004 23.3912 38.4191V31.7152H25.9899L26.1331 31.9121L29.8083 37.9891H29.8136C30.5084 39.1496 31.2933 39.9422 32.6351 40.2013C33.2662 40.3204 33.5632 40.336 34.3375 40.336C35.4883 40.336 36.7611 40.2064 38.0445 39.9474C38.7711 39.8023 38.8825 39.2739 38.8507 38.8543L38.8401 38.8594ZM17.9022 22.2448H17.637C17.1968 22.2448 17.2445 21.8511 17.2445 21.8511C17.2445 21.3226 17.2445 20.5973 17.2445 20.0689C17.2445 19.2089 17.2392 18.3178 17.2392 17.4423C17.2392 17.09 17.5733 17.1211 17.5733 17.1211H22.1555C22.1555 17.1211 22.4737 17.0952 22.4737 17.3283V22.2448C21.1319 22.2448 19.1591 22.2448 17.9022 22.2448V22.2448ZM17.5362 30.8293C17.2286 30.8293 17.2392 30.591 17.2392 30.591C17.2498 29.0938 17.2604 27.5033 17.2392 25.9957C17.2392 25.9957 17.1809 25.6796 17.5999 25.6796H22.4737V30.8241H17.5362V30.8293ZM22.0653 39.3153C22.0653 39.3153 22.0494 39.3153 22.0441 39.3153C21.5509 39.3153 20.7024 39.3153 20.3364 39.3153C19.5038 39.3153 18.6871 39.3309 17.5892 39.3309C17.2392 39.3309 17.2392 39.02 17.2392 39.02C17.2551 37.3674 17.2551 35.8961 17.2392 34.4921C17.2392 34.4921 17.2551 34.202 17.5999 34.202C18.3901 34.202 19.5038 34.2175 20.4266 34.2123C21.0683 34.2123 21.8797 34.2123 22.4737 34.2123V38.8025C22.4737 38.8025 22.4737 38.9786 22.4737 38.9941C22.4737 39.3257 22.06 39.3205 22.06 39.3205L22.0653 39.3153ZM37.9332 39.0563C37.9332 39.0563 37.8907 39.0718 37.8536 39.077C35.8595 39.4811 34.2367 39.6003 32.8101 39.3257C31.7335 39.1185 31.0759 38.4968 30.5985 37.5746L26.7005 31.0676C26.6263 30.907 26.4619 30.8034 26.2869 30.8034H23.3912V25.6848C24.6587 25.3222 26.4354 24.4052 27.3528 23.4157C28.7583 21.8925 29.8189 20.0119 30.5826 17.6599C30.7523 17.1418 30.9008 17.1055 31.0971 17.1107C32.2744 17.1314 33.4677 17.1262 34.6238 17.1262C35.3133 17.1262 36.008 17.1262 36.6975 17.1262C36.8619 17.1262 36.968 17.1366 37.0316 17.1418C37.021 17.2091 36.9892 17.3128 36.9361 17.4785C35.7482 21.0066 33.8018 24.0166 31.1448 26.4257C30.7683 26.7676 30.4447 27.208 30.8849 27.9074C31.5797 29.0109 32.2744 30.1403 32.948 31.2334C33.5366 32.1918 34.1518 33.1865 34.7617 34.1553C35.0905 34.6786 35.9497 36.0411 37.6362 35.5386L37.6468 35.6785C37.6786 36.0049 37.7051 36.3157 37.7316 36.6162C37.8006 37.3726 37.8642 38.0823 37.9332 38.9216C37.9385 38.989 37.9332 39.0252 37.9332 39.0459V39.0563Z" fill="black"/>
</g>
<defs>
<clipPath id="clip0_1265_6597">
<rect width="22.5236" height="24.1215" fill="white" transform="translate(16.3217 16.2247)"/>
</clipPath>
</defs>
</svg>
