<svg width="48" height="52" viewBox="0 0 48 52" fill="none" xmlns="http://www.w3.org/2000/svg">
<path d="M47.9752 48.0136C47.8297 46.2314 47.6954 44.7225 47.5498 43.1261C47.4939 42.4919 47.4267 41.8359 47.3708 41.1142L47.2588 40.152C47.1805 39.5288 46.8335 39.2445 46.6208 39.1242C46.1955 38.8727 45.759 38.9493 45.5687 39.0149L45.0874 39.1461C45.0874 39.1461 45.0538 39.157 45.0314 39.168C43.386 39.7256 42.2891 39.168 41.0019 37.1124C39.7147 35.0677 38.4275 32.9793 37.1851 30.9565C35.7636 28.6494 34.2861 26.2548 32.8198 23.9149C32.6743 23.6853 32.6631 23.5869 32.6519 23.5869C32.6519 23.565 32.7191 23.4557 33.0325 23.1714C38.8865 17.8793 43.1734 11.2533 45.7813 3.50099C46.0836 2.60439 46.3186 1.72967 45.8037 1.04082C45.3 0.351972 44.371 0.297302 43.4532 0.286368C41.9869 0.286368 40.5206 0.286368 39.0655 0.286368C36.6367 0.286368 34.1182 0.286368 31.6558 0.253565C29.5179 0.220763 28.9247 2.03582 28.7008 2.72467C27.1674 7.42632 25.0743 11.1767 22.2872 14.1836C20.9217 15.6597 17.9555 17.3873 15.4483 18.3495V3.01989C15.4483 2.32011 15.3923 1.45631 14.7767 0.865874C14.1611 0.286368 13.3104 0.231697 12.7396 0.242631H3.08C2.49796 0.242631 1.66968 0.308236 1.07645 0.887742C0.505603 1.46725 0.449638 2.27637 0.449638 2.83401C0.472024 4.67093 0.472024 6.54066 0.460831 8.35572C0.460831 9.48193 0.460831 10.7065 0.460831 11.8328C0.460831 14.3476 0.97571 14.8287 3.61726 14.8287H3.77396C6.42671 14.8287 10.5905 14.8506 13.4223 14.8287V18.3276H3.46056H3.14715C2.56512 18.3276 1.71445 18.3713 1.09883 18.9727C0.651113 19.4101 0.438445 20.0443 0.449638 20.8971C0.49441 24.068 0.483217 27.4138 0.449638 30.5519C0.449638 31.3173 0.662306 31.9077 1.08764 32.3232C1.54655 32.7606 2.18456 32.9574 3.02403 32.9465H13.4335V36.3142C12.1799 36.3142 10.4562 36.3142 9.10184 36.3142C7.16545 36.3142 4.8373 36.3142 3.18073 36.2923C2.57631 36.2814 1.70326 36.3251 1.09883 36.9155C0.651113 37.342 0.438445 37.9652 0.449638 38.8071C0.483217 41.7593 0.49441 44.8537 0.449638 48.3198C0.449638 49.1836 0.651113 49.8178 1.11003 50.2442C1.68087 50.7909 2.44199 50.8784 3.02403 50.8784C3.0688 50.8784 3.11358 50.8784 3.15835 50.8784C5.45292 50.8346 7.16545 50.8346 8.91156 50.8456C9.69507 50.8456 10.8815 50.8456 11.9225 50.8456C14.9222 50.8456 15.3699 50.4082 15.3699 47.5216C15.3699 47.4888 15.3699 47.4669 15.3699 47.0842V32.9355H20.8545L21.1567 33.351L28.9135 46.1767H28.9247C30.391 48.6259 32.0475 50.2989 34.8794 50.8456C36.2113 51.097 36.8381 51.1299 38.4723 51.1299C40.9012 51.1299 43.5875 50.8565 46.2962 50.3098C47.8297 50.0036 48.0647 48.8884 47.9976 48.0027L47.9752 48.0136ZM3.78516 12.948H3.22551C2.29649 12.948 2.39722 12.117 2.39722 12.117C2.39722 11.0018 2.39722 9.471 2.39722 8.35572C2.39722 6.54066 2.38603 4.66 2.38603 2.81214C2.38603 2.06862 3.09119 2.13423 3.09119 2.13423H12.762C12.762 2.13423 13.4335 2.07956 13.4335 2.57159V12.948C10.6017 12.948 6.4379 12.948 3.78516 12.948V12.948ZM3.01284 31.0658C2.36364 31.0658 2.38603 30.5628 2.38603 30.5628C2.40842 27.4029 2.4308 24.0461 2.38603 20.8643C2.38603 20.8643 2.26291 20.1973 3.14715 20.1973H13.4335V31.0549H3.01284V31.0658ZM12.5717 48.9758C12.5717 48.9758 12.5381 48.9758 12.5269 48.9758C11.486 48.9758 9.69507 48.9758 8.92275 48.9758C7.16545 48.9758 5.44172 49.0086 3.12477 49.0086C2.38603 49.0086 2.38603 48.3526 2.38603 48.3526C2.41961 44.8646 2.41961 41.7593 2.38603 38.7962C2.38603 38.7962 2.41961 38.1839 3.14715 38.1839C4.81491 38.1839 7.16545 38.2167 9.11303 38.2058C10.4674 38.2058 12.1799 38.2058 13.4335 38.2058V47.8934C13.4335 47.8934 13.4335 48.2651 13.4335 48.2979C13.4335 48.9977 12.5605 48.9868 12.5605 48.9868L12.5717 48.9758ZM46.0612 48.4291C46.0612 48.4291 45.9716 48.4619 45.8933 48.4729C41.6847 49.3257 38.2596 49.5772 35.2487 48.9977C32.9765 48.5603 31.5886 47.2482 30.5812 45.302L22.3544 31.5688C22.1977 31.2298 21.8507 31.0111 21.4813 31.0111H15.3699V20.2083C18.0451 19.4429 21.7947 17.5075 23.7311 15.4191C26.6973 12.2045 28.9359 8.23545 30.5477 3.27137C30.9058 2.17796 31.2192 2.10143 31.6334 2.11236C34.1182 2.1561 36.6367 2.14516 39.0767 2.14516C40.5318 2.14516 41.9981 2.14516 43.4532 2.14516C43.8002 2.14516 44.024 2.16703 44.1584 2.17796C44.136 2.32011 44.0688 2.53879 43.9569 2.88868C41.4496 10.3348 37.3418 16.6875 31.7341 21.7718C30.9394 22.4935 30.2566 23.4229 31.1857 24.899C32.6519 27.2279 34.1182 29.6116 35.5397 31.9187C36.7822 33.9415 38.0806 36.0408 39.3677 38.0855C40.0617 39.1898 41.875 42.0655 45.4344 41.0049L45.4567 41.3001C45.5239 41.989 45.5799 42.645 45.6358 43.2792C45.7813 44.8756 45.9157 46.3735 46.0612 48.1448C46.0724 48.287 46.0612 48.3635 46.0612 48.4073V48.4291Z" fill="black"/>
</svg>
